<?xml version="1.0" standalone="no"?>
<!DOCTYPE svg PUBLIC "-//W3C//DTD SVG 1.1//EN" "http://www.w3.org/Graphics/SVG/1.1/DTD/svg11.dtd" >
<svg>
<metadata>
Created by FontForge 20090914 at Fri Feb 24 11:19:44 2012
 By root
Copyright (c) 2005,  Design by Malgorzata Budyta - 1975, Warszawa, Poland Digitized by Janusz Marian Nowacki - 2005-2007, Grudziadz, Poland This work is released under the GUST Font License --  see http://tug.org/fonts/licenses/GUST-FONT-LICENSE.txt for details.
</metadata>
<defs>
<font id="IwonaCondLight-Regular" horiz-adv-x="440" >
  <font-face 
    font-family="Iwona Cond Light"
    font-weight="300"
    font-stretch="normal"
    units-per-em="1000"
    panose-1="0 0 4 0 0 0 0 0 0 0"
    ascent="770"
    descent="-230"
    x-height="450"
    cap-height="700"
    bbox="-179 -262 1444 1129"
    underline-thickness="32"
    underline-position="-168"
    unicode-range="U+0020-U+FB06"
  />
<missing-glyph horiz-adv-x="280" 
 />
    <glyph glyph-name="f_f_j" unicode="ffj" horiz-adv-x="642" 
d="M570 -103q0 -135 -69 -135q-42 0 -84 37v22q29 -25 57 -25q14 0 22 8t11.5 26t4 30.5t0.5 36.5v521h-162v-418h-58v418h-162v-418h-58v418h-63v32h63v123q0 56 18.5 95.5t58.5 39.5q49 0 95 -39v-22q-34 27 -68 27q-46 0 -46 -101v-123h162v123q0 56 18.5 95.5t58.5 39.5
q49 0 95 -39v-22q-34 27 -68 27q-46 0 -46 -101v-123h220v-553zM578 603q0 -15 -11 -26t-26 -11t-26 11t-11 26t11 26t26 11t26 -11t11 -26z" />
    <glyph glyph-name="f_j" unicode="fj" horiz-adv-x="422" 
d="M350 -103q0 -135 -69 -135q-42 0 -84 37v22q29 -25 57 -25q14 0 22 8t11.5 26t4 30.5t0.5 36.5v521h-162v-418h-58v418h-63v32h63v123q0 56 18.5 95.5t58.5 39.5q49 0 95 -39v-22q-34 27 -68 27q-46 0 -46 -101v-123h220v-553zM358 603q0 -15 -11 -26t-26 -11t-26 11
t-11 26t11 26t26 11t26 -11t11 -26z" />
    <glyph glyph-name="f_k" unicode="fk" horiz-adv-x="638" 
d="M244 647q-34 27 -68 27q-46 0 -46 -101v-123h63v-32h-63v-418h-58v418h-63v32h63v123q0 56 18.5 95.5t58.5 39.5q49 0 95 -39v-22zM629 0h-68l-211 249v-249h-58v700h58v-446l228 196h44l-216 -186z" />
    <glyph glyph-name="T_h" unicode="Th" horiz-adv-x="948" 
d="M502 666h-212v-666h-60v666h-212v34h484v-34zM853 0h-58v323q0 41 -22.5 71t-57.5 30q-59 0 -119 -53v-371h-58v700h58v-306q71 64 141 64q50 0 83 -40t33 -95v-323z" />
    <glyph glyph-name="f_f" unicode="ff" horiz-adv-x="422" 
d="M464 647q-34 27 -68 27q-46 0 -46 -101v-123h63v-32h-63v-418h-58v418h-162v-418h-58v418h-63v32h63v123q0 56 18.5 95.5t58.5 39.5q49 0 95 -39v-22q-34 27 -68 27q-46 0 -46 -101v-123h162v123q0 56 18.5 95.5t58.5 39.5q49 0 95 -39v-22z" />
    <glyph glyph-name="f_i" unicode="fi" horiz-adv-x="475" 
d="M457 31q-46 -39 -91 -39q-39 0 -56.5 39t-17.5 96v291h-162v-418h-58v418h-63v32h63v123q0 56 18.5 95.5t58.5 39.5q49 0 95 -39v-22q-34 27 -68 27q-46 0 -46 -101v-123h220v-323q0 -22 1 -36.5t5 -31t13 -25t24 -8.5q33 0 64 28v-23zM358 603q0 -15 -11 -26t-26 -11
t-26 11t-11 26t11 26t26 11t26 -11t11 -26z" />
    <glyph glyph-name="f_l" unicode="fl" horiz-adv-x="475" 
d="M244 647q-34 27 -68 27q-46 0 -46 -101v-123h63v-32h-63v-418h-58v418h-63v32h63v123q0 56 18.5 95.5t58.5 39.5q49 0 95 -39v-22zM457 31q-46 -39 -91 -39q-39 0 -56.5 39t-17.5 96v573h58v-573q0 -22 1 -36.5t5 -31t13 -25t24 -8.5q33 0 64 28v-23z" />
    <glyph glyph-name="f_f_i" unicode="ffi" horiz-adv-x="695" 
d="M677 31q-46 -39 -91 -39q-39 0 -56.5 39t-17.5 96v291h-162v-418h-58v418h-162v-418h-58v418h-63v32h63v123q0 56 18.5 95.5t58.5 39.5q49 0 95 -39v-22q-34 27 -68 27q-46 0 -46 -101v-123h162v123q0 56 18.5 95.5t58.5 39.5q49 0 95 -39v-22q-34 27 -68 27
q-46 0 -46 -101v-123h220v-323q0 -22 1 -36.5t5 -31t13 -25t24 -8.5q33 0 64 28v-23zM578 603q0 -15 -11 -26t-26 -11t-26 11t-11 26t11 26t26 11t26 -11t11 -26z" />
    <glyph glyph-name="f_f_l" unicode="ffl" horiz-adv-x="695" 
d="M464 647q-34 27 -68 27q-46 0 -46 -101v-123h63v-32h-63v-418h-58v418h-162v-418h-58v418h-63v32h63v123q0 56 18.5 95.5t58.5 39.5q49 0 95 -39v-22q-34 27 -68 27q-46 0 -46 -101v-123h162v123q0 56 18.5 95.5t58.5 39.5q49 0 95 -39v-22zM677 31q-46 -39 -91 -39
q-39 0 -56.5 39t-17.5 96v573h58v-573q0 -22 1 -36.5t5 -31t13 -25t24 -8.5q33 0 64 28v-23z" />
    <glyph glyph-name=".notdef" horiz-adv-x="280" 
 />
    <glyph glyph-name=".null" horiz-adv-x="0" 
 />
    <glyph glyph-name="nonmarkingreturn" horiz-adv-x="333" 
 />
    <glyph glyph-name="space" unicode=" " horiz-adv-x="333" 
 />
    <glyph glyph-name="exclam" unicode="!" horiz-adv-x="278" 
d="M176 700l-18 -560h-37l-19 560h74zM176 37q0 -15 -11 -26t-26 -11t-26 11t-11 26t11 26t26 11t26 -11t11 -26z" />
    <glyph glyph-name="quotedbl" unicode="&#x22;" horiz-adv-x="187" 
d="M68 526h-34v174h34v-174zM153 526h-34v174h34v-174z" />
    <glyph glyph-name="numbersign" unicode="#" horiz-adv-x="768" 
d="M734 212h-250l-56 -212h-40l57 212h-194l-57 -212h-39l57 212h-178v38h188l51 192h-239v38h250l56 212h40l-57 -212h194l57 212h39l-57 -212h178v-38h-188l-51 -192h239v-38zM507 442h-194l-52 -192h194z" />
    <glyph glyph-name="dollar" unicode="$" horiz-adv-x="575" 
d="M503 184q0 -79 -58.5 -135t-141.5 -61v-103h-32v102q-106 6 -199 68v27q86 -58 199 -63v302q-191 56 -191 172q0 70 56 117.5t135 52.5v69h32v-68q96 -6 173 -68v-27q-75 58 -173 63v-249q86 -27 143 -77.5t57 -121.5zM449 170q0 90 -146 141v-291q61 5 103.5 47.5
t42.5 102.5zM271 631q-57 -5 -97 -39t-40 -85q0 -45 36 -69.5t101 -44.5v238z" />
    <glyph glyph-name="percent" unicode="%" horiz-adv-x="517" 
d="M431 509l-345 -364v46l345 364v-46zM259 550q0 -158 -113 -158q-112 0 -112 158t112 158q113 0 113 -158zM483 150q0 -158 -112 -158t-112 158t112 158t112 -158zM209 550q0 134 -63 134q-62 0 -62 -134t62 -134q63 0 63 134zM434 150q0 134 -63 134t-63 -134t63 -134
t63 134z" />
    <glyph glyph-name="ampersand" unicode="&#x26;" horiz-adv-x="590" 
d="M556 418q-13 -4 -52 -13v-405h-58l1 25q-79 -33 -165 -33q-101 0 -174.5 62.5t-73.5 155.5q0 85 36.5 131.5t111.5 62.5q-47 20 -75.5 54.5t-28.5 80.5q0 75 66 122t155 47q78 0 148 -32v-32q-67 32 -140 32q-69 0 -120 -38.5t-51 -98.5q0 -55 47.5 -90t111.5 -35
q133 0 261 36v-32zM447 57l-1 337q-75 -12 -151 -12q-100 0 -147.5 -40.5t-47.5 -131.5q0 -79 61.5 -132.5t146.5 -53.5q74 0 139 33z" />
    <glyph glyph-name="quotesingle" unicode="'" horiz-adv-x="102" 
d="M68 526h-34v174h34v-174z" />
    <glyph glyph-name="parenleft" unicode="(" horiz-adv-x="275" 
d="M230 -230h-32q-69 118 -97.5 223t-28.5 242t28.5 242t97.5 223h32q-55 -122 -77.5 -227t-22.5 -238t22.5 -238t77.5 -227z" />
    <glyph glyph-name="parenright" unicode=")" horiz-adv-x="275" 
d="M203 235q0 -137 -28.5 -242t-97.5 -223h-32q55 122 77.5 227t22.5 238t-22.5 238t-77.5 227h32q69 -118 97.5 -223t28.5 -242z" />
    <glyph glyph-name="asterisk" unicode="*" horiz-adv-x="300" 
d="M171 714q-9 -58 -24 -113l-18 -11q4 47 -8 95zM126 564q-40 29 -86 41v58q45 -36 86 -77v-22zM147 549q-43 -21 -78 -54l-50 29q56 22 110 36zM179 465l-50 -29q9 58 24 113l18 11q-4 -47 8 -95zM260 487q-45 36 -86 77v22q40 -29 86 -41v-58zM281 626q-56 -22 -110 -36
l-18 11q43 21 78 54z" />
    <glyph glyph-name="plus" unicode="+" horiz-adv-x="778" 
d="M711 231h-303v-302h-38v302h-302v38h302v303h38v-303h303v-38z" />
    <glyph glyph-name="comma" unicode="," horiz-adv-x="178" 
d="M126 74q0 -101 -54 -189h-32q28 90 28 189h58z" />
    <glyph glyph-name="hyphen" unicode="-" horiz-adv-x="401" 
d="M367 212h-333v38h333v-38z" />
    <glyph glyph-name="period" unicode="." horiz-adv-x="178" 
d="M126 37q0 -15 -11 -26t-26 -11t-26 11t-11 26t11 26t26 11t26 -11t11 -26z" />
    <glyph glyph-name="slash" unicode="/" horiz-adv-x="284" 
d="M250 700l-177 -815h-39l177 815h39z" />
    <glyph glyph-name="zero" unicode="0" horiz-adv-x="462" 
d="M424 346q0 -354 -192 -354q-193 0 -193 354t193 354q192 0 192 -354zM358 346q0 322 -126 322q-127 0 -127 -322t127 -322q126 0 126 322z" />
    <glyph glyph-name="one" unicode="1" horiz-adv-x="462" 
d="M289 0h-58v620q-71 -77 -162 -119v32q107 62 177 159h43v-692z" />
    <glyph glyph-name="two" unicode="2" horiz-adv-x="462" 
d="M418 0h-374v35l195 242q113 139 113 263q0 52 -35 89t-86 37q-103 0 -179 -70v32q75 72 179 72q73 0 126 -46t53 -114q0 -39 -11 -76.5t-36.5 -77.5t-43.5 -63.5l-54 -67.5l-171 -209h324v-46z" />
    <glyph glyph-name="three" unicode="3" horiz-adv-x="462" 
d="M418 190q0 -82 -55 -140t-132 -58q-99 0 -187 47v32q88 -47 187 -47q50 0 85.5 49t35.5 117q0 94 -41.5 130.5t-141.5 36.5v28q92 0 130.5 33t38.5 118q0 59 -32.5 95.5t-85.5 36.5q-87 0 -160 -47v32q73 47 160 47q79 0 127.5 -45t48.5 -119q0 -57 -30.5 -98t-83.5 -57
q59 -17 97.5 -70.5t38.5 -120.5z" />
    <glyph glyph-name="four" unicode="4" horiz-adv-x="462" 
d="M418 242h-66v-242h-58v242h-250v34l250 416h58v-416h66v-34zM294 276v354l-213 -354h213z" />
    <glyph glyph-name="five" unicode="5" horiz-adv-x="462" 
d="M418 225q0 -105 -51.5 -169t-135.5 -64q-101 0 -187 54v32q86 -54 187 -54q55 0 88 55t33 146t-33 146t-88 55q-44 0 -82 -21.5t-61 -59.5l-32 1l12 346h334v-46h-304l-8 -250q57 62 141 62t135.5 -64t51.5 -169z" />
    <glyph glyph-name="six" unicode="6" horiz-adv-x="462" 
d="M418 225q0 -105 -51.5 -169t-135.5 -64q-98 0 -142.5 84t-44.5 270q0 93 19 169.5t67 130.5t120 54q67 0 124 -37v-32q-57 37 -124 37q-140 0 -140 -290q22 37 59 58.5t81 21.5q168 0 168 -233zM352 225q0 201 -102 201q-44 0 -81 -21.5t-59 -58.5q0 -20 -0.5 -54
t-0.5 -53.5t0.5 -48.5t3.5 -46.5t8 -39t14.5 -34t22 -24.5t31 -17t42.5 -5q55 0 88 55t33 146z" />
    <glyph glyph-name="seven" unicode="7" horiz-adv-x="462" 
d="M418 667l-287 -667h-63l278 646h-302v46h374v-25z" />
    <glyph glyph-name="eight" unicode="8" horiz-adv-x="462" 
d="M418 194q0 -94 -50 -148t-137 -54t-137 54t-50 148q0 72 30 120.5t84 68.5q-47 17 -72.5 56.5t-25.5 96.5q0 76 45.5 120t125.5 44t125.5 -44t45.5 -120q0 -57 -25.5 -96.5t-72.5 -56.5q54 -20 84 -68.5t30 -120.5zM343 536q0 62 -30 97t-82 35t-82 -35t-30 -97t30 -97
t82 -35t82 35t30 97zM352 194q0 79 -32.5 124.5t-88.5 45.5t-88.5 -45.5t-32.5 -124.5t32.5 -124.5t88.5 -45.5t88.5 45.5t32.5 124.5z" />
    <glyph glyph-name="nine" unicode="9" horiz-adv-x="462" 
d="M418 346q0 -93 -19 -169.5t-67 -130.5t-120 -54q-67 0 -124 37v32q57 -37 124 -37q140 0 140 290q-22 -37 -59 -58.5t-81 -21.5q-168 0 -168 233q0 105 51.5 169t135.5 64q98 0 142.5 -84t44.5 -270zM352 346q0 20 0.5 54t0.5 53.5t-0.5 48.5t-3.5 46.5t-8 39t-14.5 34
t-22 24.5t-31 17t-42.5 5q-55 0 -88 -55t-33 -146q0 -201 102 -201q44 0 81 21.5t59 58.5z" />
    <glyph glyph-name="colon" unicode=":" horiz-adv-x="218" 
d="M146 413q0 -15 -11 -26t-26 -11t-26 11t-11 26t11 26t26 11t26 -11t11 -26zM146 37q0 -15 -11 -26t-26 -11t-26 11t-11 26t11 26t26 11t26 -11t11 -26z" />
    <glyph glyph-name="semicolon" unicode=";" horiz-adv-x="218" 
d="M146 413q0 -15 -11 -26t-26 -11t-26 11t-11 26t11 26t26 11t26 -11t11 -26zM138 74q0 -101 -54 -189h-32q28 90 28 189h58z" />
    <glyph glyph-name="less" unicode="&#x3c;" horiz-adv-x="778" 
d="M688 -83l-607 316v34l607 314v-42l-557 -289l557 -291v-42z" />
    <glyph glyph-name="equal" unicode="=" horiz-adv-x="778" 
d="M711 307h-643v38h643v-38zM711 155h-643v38h643v-38z" />
    <glyph glyph-name="greater" unicode="&#x3e;" horiz-adv-x="778" 
d="M688 265v-34l-607 -314v42l557 289l-557 291v42z" />
    <glyph glyph-name="question" unicode="?" horiz-adv-x="382" 
d="M213 37q0 -15 -11 -26t-26 -11q-16 0 -26.5 11t-10.5 26t10.5 26t26.5 11q15 0 26 -11t11 -26zM348 560q0 -72 -14.5 -108t-63.5 -102t-63.5 -102t-14.5 -108h-32q0 89 12 127q6 17 16 36t18 32t22.5 34l21.5 31q29 44 34.5 70.5t5.5 89.5q0 44 -28.5 76t-70.5 32
q-48 0 -89.5 -23t-67.5 -64v32q26 41 67.5 64t89.5 23q64 0 110.5 -40t46.5 -100z" />
    <glyph glyph-name="at" unicode="@" horiz-adv-x="887" 
d="M851 221q0 -107 -44.5 -172t-108.5 -84q-57 -17 -105 7.5t-48 73.5q-66 -46 -130 -46q-81 0 -120.5 60.5t-39.5 160.5t45 161t130 61q57 0 115 -22v14h55v-388q0 -36 36 -51t73 5q46 24 78 80t32 140q0 156 -110 266t-265 110q-156 0 -266 -110t-110 -266
q0 -155 110 -265t266 -110q91 0 172 42l15 -29q-87 -45 -187 -45q-169 0 -288.5 119t-119.5 288t119.5 288.5t288.5 119.5t288 -119.5t119 -288.5zM545 76v314q-57 22 -113 22q-57 0 -85.5 -56t-28.5 -135q0 -191 114 -191q55 0 113 46z" />
    <glyph glyph-name="A" unicode="A" horiz-adv-x="546" 
d="M537 0h-63l-81 245h-266l-82 -245h-36l234 700h63zM382 279l-121 367l-123 -367h244z" />
    <glyph glyph-name="B" unicode="B" horiz-adv-x="606" 
d="M552 186q0 -96 -70 -145t-184 -49l-150 8h-58v700h58q80 8 150 8q98 0 157.5 -44.5t59.5 -129.5q0 -63 -33.5 -104t-93.5 -58q77 -17 120.5 -64t43.5 -122zM455 534q0 60 -46.5 100t-110.5 40q-70 0 -148 -8v-291l75 1q94 0 162 42t68 116zM478 186q0 73 -64 118.5
t-150 45.5h-114v-316q78 -8 148 -8q73 0 126.5 46t53.5 114z" />
    <glyph glyph-name="C" unicode="C" horiz-adv-x="565" 
d="M538 553q-32 56 -88 88.5t-121 32.5q-201 0 -201 -324t201 -324q106 0 195 57v-34q-89 -57 -195 -57q-136 0 -205.5 98.5t-69.5 259.5t69.5 259.5t205.5 98.5q64 0 119.5 -31t89.5 -84v-40z" />
    <glyph glyph-name="D" unicode="D" horiz-adv-x="661" 
d="M607 350q0 -161 -73 -259.5t-211 -98.5q-82 0 -175 8h-58v700h58q93 8 175 8q138 0 211 -98.5t73 -259.5zM533 350q0 84 -22 155.5t-71 120t-117 48.5q-82 0 -173 -8v-632q91 -8 173 -8q68 0 117 48.5t71 120t22 155.5z" />
    <glyph glyph-name="E" unicode="E" horiz-adv-x="584" 
d="M530 0h-440v700h419v-34h-359v-299h292v-34h-292v-299h380v-34z" />
    <glyph glyph-name="F" unicode="F" horiz-adv-x="554" 
d="M509 666h-359v-299h292v-34h-292v-333h-60v700h419v-34z" />
    <glyph glyph-name="G" unicode="G" horiz-adv-x="643" 
d="M571 0h-60v48q-78 -56 -173 -56q-138 0 -211 98.5t-73 259.5t73 259.5t211 98.5q131 0 219 -96v-34q-88 96 -219 96q-111 0 -160.5 -88.5t-49.5 -235.5t49.5 -235.5t160.5 -88.5q95 0 173 56v212h60v-294z" />
    <glyph glyph-name="H" unicode="H" horiz-adv-x="664" 
d="M574 0h-60v333h-364v-333h-60v700h60v-333h364v333h60v-700z" />
    <glyph glyph-name="I" unicode="I" horiz-adv-x="240" 
d="M150 0h-60v700h60v-700z" />
    <glyph glyph-name="J" unicode="J" horiz-adv-x="297" 
d="M207 57q0 -55 -23.5 -95t-65.5 -40q-61 0 -109 39v23q15 -11 39.5 -19.5t43.5 -8.5q29 0 42 29.5t13 71.5v643h60v-643z" />
    <glyph glyph-name="K" unicode="K" horiz-adv-x="616" 
d="M607 0h-88l-369 344v-344h-60v700h60v-294l384 294h56l-403 -308z" />
    <glyph glyph-name="L" unicode="L" horiz-adv-x="460" 
d="M442 0h-352v700h60v-666h292v-34z" />
    <glyph glyph-name="M" unicode="M" horiz-adv-x="790" 
d="M736 0h-60l-30 595l-247 -595h-36l-245 591l-30 -591h-34l35 700h48l258 -620l258 620h48z" />
    <glyph glyph-name="N" unicode="N" horiz-adv-x="697" 
d="M607 0h-40l-443 607v-607h-34v700h40l443 -607v607h34v-700z" />
    <glyph glyph-name="O" unicode="O" horiz-adv-x="658" 
d="M604 350q0 -161 -69.5 -259.5t-205.5 -98.5t-205.5 98.5t-69.5 259.5t69.5 259.5t205.5 98.5t205.5 -98.5t69.5 -259.5zM530 350q0 324 -201 324t-201 -324t201 -324t201 324z" />
    <glyph glyph-name="P" unicode="P" horiz-adv-x="606" 
d="M552 514q0 -95 -66.5 -145t-175.5 -50q-78 0 -160 14v-333h-60v700h58q86 8 162 8q109 0 175.5 -50t66.5 -144zM478 514q0 67 -49.5 113.5t-118.5 46.5q-75 0 -160 -8v-299q82 -14 160 -14q69 0 118.5 47t49.5 114z" />
    <glyph glyph-name="Q" unicode="Q" horiz-adv-x="658" 
d="M604 350q0 -146 -58 -242t-171 -113q-6 -64 23.5 -93.5t100.5 -29.5q37 0 66 18v-22q-30 -14 -47 -17.5t-51 -3.5q-60 0 -100.5 43t-37.5 102q-136 0 -205.5 98.5t-69.5 259.5t69.5 259.5t205.5 98.5t205.5 -98.5t69.5 -259.5zM530 350q0 324 -201 324t-201 -324
t201 -324t201 324z" />
    <glyph glyph-name="R" unicode="R" horiz-adv-x="573" 
d="M564 0h-70l-193 319q-78 0 -160 14v-333h-60v700h58q86 8 162 8q109 0 175.5 -50t66.5 -144q0 -79 -47 -127t-128 -62zM469 514q0 67 -49.5 113.5t-118.5 46.5q-75 0 -160 -8v-299q82 -14 160 -14q69 0 118.5 47t49.5 114z" />
    <glyph glyph-name="S" unicode="S" horiz-adv-x="571" 
d="M517 198q0 -90 -68.5 -151t-163.5 -61q-123 0 -231 73v29q101 -68 231 -68q71 0 122.5 47.5t51.5 115.5q0 105 -185 160q-212 63 -212 187q0 80 66.5 132t156.5 52q111 0 203 -73v-29q-88 68 -203 68q-67 0 -116 -38t-49 -97q0 -23 11.5 -42.5t25.5 -31t43 -24.5t45 -18
l51 -16q95 -28 158 -82.5t63 -132.5z" />
    <glyph glyph-name="T" unicode="T" horiz-adv-x="520" 
d="M502 666h-212v-666h-60v666h-212v34h484v-34z" />
    <glyph glyph-name="U" unicode="U" horiz-adv-x="624" 
d="M543 196q0 -89 -68.5 -149.5t-162.5 -60.5t-162.5 60.5t-68.5 149.5v504h60v-490q0 -78 53.5 -134t130.5 -56t130.5 56t53.5 134v490h34v-504z" />
    <glyph glyph-name="V" unicode="V" horiz-adv-x="555" 
d="M546 700l-244 -700h-40l-244 700h64l214 -615l214 615h36z" />
    <glyph glyph-name="W" unicode="W" horiz-adv-x="810" 
d="M801 700l-192 -700h-40l-160 586l-160 -586h-40l-191 700h62l163 -595l162 595h35l163 -595l162 595h36z" />
    <glyph glyph-name="X" unicode="X" horiz-adv-x="571" 
d="M544 0h-70l-198 325l-209 -325h-40l229 358l-208 342h70l178 -292l187 292h40l-208 -324z" />
    <glyph glyph-name="Y" unicode="Y" horiz-adv-x="511" 
d="M502 700l-212 -394v-306h-60v280l-212 420h67l180 -369l198 369h39z" />
    <glyph glyph-name="Z" unicode="Z" horiz-adv-x="516" 
d="M489 0h-462v35l382 631h-368v34h434v-41l-379 -625h393v-34z" />
    <glyph glyph-name="bracketleft" unicode="[" horiz-adv-x="186" 
d="M152 -250h-118v1000h118v-32h-84v-936h84v-32z" />
    <glyph glyph-name="backslash" unicode="\" horiz-adv-x="500" 
d="M483 -250h-42l-424 1000h42z" />
    <glyph glyph-name="bracketright" unicode="]" horiz-adv-x="186" 
d="M152 -250h-118v32h84v936h-84v32h118v-1000z" />
    <glyph glyph-name="asciicircum" unicode="^" horiz-adv-x="500" 
d="M478 350h-44l-184 313l-184 -313h-44l206 350h44z" />
    <glyph glyph-name="underscore" unicode="_" horiz-adv-x="500" 
d="M500 -115h-500v38h500v-38z" />
    <glyph glyph-name="grave" unicode="`" 
d="M252 505h-32q-100 100 -100 195h66q0 -109 66 -195z" />
    <glyph glyph-name="a" unicode="a" horiz-adv-x="450" 
d="M378 0h-58v40q-62 -48 -125 -48q-70 0 -112 39.5t-42 107.5q0 70 46 109t122 39q57 0 111 -23v14q0 60 -22.5 103t-66.5 43q-66 0 -134 -38v23q77 49 155 49q58 0 92 -53.5t34 -126.5v-278zM320 232q-52 23 -106 23q-45 0 -76 -34t-31 -82q0 -52 28.5 -83.5t78.5 -31.5
q53 0 106 48v160z" />
    <glyph glyph-name="b" unicode="b" horiz-adv-x="459" 
d="M409 225q0 -105 -41.5 -169t-126.5 -64q-53 0 -111 28v-20h-58v700h58v-290q62 48 125 48q81 0 117.5 -63.5t36.5 -169.5zM343 225q0 45 -4 77.5t-14.5 62.5t-32.5 45.5t-56 15.5q-53 0 -106 -48v-326q54 -28 106 -28q40 0 65 31.5t33.5 73.5t8.5 96z" />
    <glyph glyph-name="c" unicode="c" horiz-adv-x="376" 
d="M354 372q-48 54 -122 54q-52 0 -84 -55.5t-32 -145.5t32 -145.5t84 -55.5q39 0 63.5 11.5t50.5 40.5v-32q-46 -52 -114 -52q-82 0 -132 64t-50 169t50 169t132 64q73 0 122 -54v-32z" />
    <glyph glyph-name="d" unicode="d" horiz-adv-x="459" 
d="M387 0h-58v40q-62 -48 -125 -48q-81 0 -117.5 63.5t-36.5 169.5q0 105 41.5 169t126.5 64q57 0 111 -23v265h58v-700zM329 403q-52 23 -106 23q-40 0 -65 -31.5t-33.5 -73.5t-8.5 -96q0 -45 4 -77.5t14.5 -62.5t32.5 -45.5t56 -15.5q53 0 106 48v331z" />
    <glyph glyph-name="e" unicode="e" horiz-adv-x="432" 
d="M387 217h-271q0 -43 4 -74t14 -59.5t31.5 -43t53.5 -14.5q70 0 122 48v-32q-52 -50 -122 -50q-76 0 -122.5 64t-46.5 169t46.5 169t122.5 64t122 -64t46 -169v-8zM321 249q0 74 -25 125.5t-77 51.5q-53 0 -78 -51.5t-25 -125.5h205z" />
    <glyph glyph-name="f" unicode="f" horiz-adv-x="220" 
d="M253 647q-34 27 -68 27q-46 0 -46 -101v-123h63v-32h-63v-418h-58v418h-63v32h63v123q0 56 18.5 95.5t58.5 39.5q49 0 95 -39v-22z" />
    <glyph glyph-name="g" unicode="g" horiz-adv-x="459" 
d="M387 -58q0 -73 -36 -126.5t-96 -53.5q-81 0 -161 37v22q70 -25 141 -25q45 0 69.5 43t24.5 103v98q-62 -48 -125 -48q-81 0 -117.5 63.5t-36.5 169.5q0 105 41.5 169t126.5 64q57 0 111 -23v15h58v-508zM329 403q-52 23 -106 23q-40 0 -65 -31.5t-33.5 -73.5t-8.5 -96
q0 -45 4 -77.5t14.5 -62.5t32.5 -45.5t56 -15.5q53 0 106 48v331z" />
    <glyph glyph-name="h" unicode="h" horiz-adv-x="455" 
d="M387 0h-58v323q0 41 -22.5 71t-57.5 30q-59 0 -119 -53v-371h-58v700h58v-306q71 64 141 64q50 0 83 -40t33 -95v-323z" />
    <glyph glyph-name="i" unicode="i" horiz-adv-x="251" 
d="M233 31q-46 -39 -91 -39q-39 0 -56.5 39t-17.5 96v323h58v-323q0 -22 1 -36.5t5 -31t13 -25t24 -8.5q33 0 64 28v-23zM134 603q0 -15 -11 -26t-26 -11t-26 11t-11 26t11 26t26 11t26 -11t11 -26z" />
    <glyph glyph-name="j" unicode="j" horiz-adv-x="202" 
d="M130 -103q0 -135 -69 -135q-42 0 -84 37v22q29 -25 57 -25q14 0 22 8t11.5 26t4 30.5t0.5 36.5v553h58v-553zM138 603q0 -15 -11 -26t-26 -11t-26 11t-11 26t11 26t26 11t26 -11t11 -26z" />
    <glyph glyph-name="k" unicode="k" horiz-adv-x="418" 
d="M409 0h-68l-211 249v-249h-58v700h58v-446l228 196h44l-216 -186z" />
    <glyph glyph-name="l" unicode="l" horiz-adv-x="255" 
d="M237 31q-46 -39 -91 -39q-39 0 -56.5 39t-17.5 96v573h58v-573q0 -22 1 -36.5t5 -31t13 -25t24 -8.5q33 0 64 28v-23z" />
    <glyph glyph-name="m" unicode="m" horiz-adv-x="622" 
d="M554 0h-58v323q0 42 -15.5 71.5t-46.5 29.5q-55 0 -98 -52q6 -24 6 -49v-323h-58v323q0 42 -15.5 71.5t-46.5 29.5q-45 0 -92 -53v-371h-58v450h58v-56q58 64 116 64q60 0 84 -69q47 69 128 69q44 0 70 -40t26 -95v-323z" />
    <glyph glyph-name="n" unicode="n" horiz-adv-x="455" 
d="M387 0h-58v323q0 41 -22.5 71t-57.5 30q-59 0 -119 -53v-371h-58v450h58v-56q71 64 141 64q50 0 83 -40t33 -95v-323z" />
    <glyph glyph-name="o" unicode="o" horiz-adv-x="436" 
d="M387 225q0 -113 -43 -173t-125 -60t-125.5 60t-43.5 173t43.5 173t125.5 60t125 -60t43 -173zM321 225q0 98 -26 149.5t-76 51.5q-103 0 -103 -201t103 -201q50 0 76 51.5t26 149.5z" />
    <glyph glyph-name="p" unicode="p" horiz-adv-x="454" 
d="M405 225q0 -105 -41.5 -169t-126.5 -64q-57 0 -111 23v-245h-58v680h58v-40q62 48 125 48q81 0 117.5 -63.5t36.5 -169.5zM339 225q0 45 -4 77.5t-14.5 62.5t-32.5 45.5t-56 15.5q-53 0 -106 -48v-331q52 -23 106 -23q40 0 65 31.5t33.5 73.5t8.5 96z" />
    <glyph glyph-name="q" unicode="q" horiz-adv-x="459" 
d="M387 -230h-58v270q-62 -48 -125 -48q-81 0 -117.5 63.5t-36.5 169.5q0 105 41.5 169t126.5 64q57 0 111 -23v15h58v-680zM329 403q-52 23 -106 23q-40 0 -65 -31.5t-33.5 -73.5t-8.5 -96q0 -45 4 -77.5t14.5 -62.5t32.5 -45.5t56 -15.5q53 0 106 48v331z" />
    <glyph glyph-name="r" unicode="r" horiz-adv-x="306" 
d="M288 404q-24 7 -53 7q-53 0 -105 -56v-355h-58v450h58v-63q62 68 126 68q20 0 32 -5v-46z" />
    <glyph glyph-name="s" unicode="s" horiz-adv-x="376" 
d="M336 124q0 -57 -45 -94.5t-107 -37.5q-82 0 -152 41v32q70 -41 152 -41q39 0 67.5 24.5t28.5 60.5q0 66 -104 100q-63 22 -100.5 49t-37.5 72q0 55 43 91.5t103 36.5q73 0 131 -41v-32q-58 41 -131 41q-37 0 -63.5 -23t-26.5 -57q0 -54 98 -87q144 -49 144 -135z" />
    <glyph glyph-name="t" unicode="t" horiz-adv-x="270" 
d="M243 31q-41 -39 -83 -39q-67 0 -67 135v291h-66v28q45 0 67 45t22 109h35v-150h92v-32h-92v-291q0 -24 0.5 -36.5t4 -30t11.5 -26t21 -8.5q27 0 55 28v-23z" />
    <glyph glyph-name="u" unicode="u" horiz-adv-x="455" 
d="M383 0h-58v56q-71 -64 -141 -64q-50 0 -83 40t-33 95v323h58v-323q0 -41 22.5 -71t57.5 -30q59 0 119 53v371h58v-450z" />
    <glyph glyph-name="v" unicode="v" horiz-adv-x="355" 
d="M346 450l-147 -450h-47l-143 450h55l122 -385l126 385h34z" />
    <glyph glyph-name="w" unicode="w" horiz-adv-x="606" 
d="M588 450l-134 -450h-46l-106 368l-109 -368h-46l-129 450h54l109 -379l112 379h40l109 -379l112 379h34z" />
    <glyph glyph-name="x" unicode="x" horiz-adv-x="373" 
d="M355 0h-61l-114 192l-124 -192h-38l144 222l-136 228h61l108 -182l118 182h38l-137 -213z" />
    <glyph glyph-name="y" unicode="y" horiz-adv-x="455" 
d="M383 -58q0 -73 -32.5 -126.5t-89.5 -53.5q-75 0 -149 37v22q62 -25 128 -25q43 0 64 42.5t21 103.5v114q-71 -64 -141 -64q-50 0 -83 40t-33 95v323h58v-323q0 -41 22.5 -71t57.5 -30q59 0 119 53v371h58v-508z" />
    <glyph glyph-name="z" unicode="z" horiz-adv-x="369" 
d="M342 0h-315v33l253 385h-245v32h307v-33l-253 -385h253v-32z" />
    <glyph glyph-name="braceleft" unicode="{" horiz-adv-x="500" 
d="M400 -252q-179 0 -179 93v333q0 59 -121 59v34q121 0 121 59v333q0 93 179 93v-34q-121 0 -121 -59v-333q0 -25 -17.5 -45.5t-44.5 -30.5q27 -10 44.5 -30.5t17.5 -45.5v-333q0 -59 121 -59v-34z" />
    <glyph glyph-name="bar" unicode="|" horiz-adv-x="278" 
d="M158 -250h-38v1000h38v-1000z" />
    <glyph glyph-name="braceright" unicode="}" horiz-adv-x="500" 
d="M400 233q-121 0 -121 -59v-333q0 -93 -179 -93v34q121 0 121 59v333q0 25 17.5 45.5t44.5 30.5q-27 10 -44.5 30.5t-17.5 45.5v333q0 59 -121 59v34q179 0 179 -93v-333q0 -59 121 -59v-34z" />
    <glyph glyph-name="asciitilde" unicode="~" horiz-adv-x="629" 
d="M502 265q-26 -31 -41.5 -47.5t-40.5 -35t-44 -18.5q-26 0 -65 32t-64 32q-27 0 -48 -16.5t-47 -47.5l-24 21q24 29 40.5 47t41 36t43.5 18q26 0 65 -32t64 -32q27 0 48 16.5t47 47.5z" />
    <glyph glyph-name="uni00A0" unicode="&#xa0;" horiz-adv-x="500" 
 />
    <glyph glyph-name="exclamdown" unicode="&#xa1;" horiz-adv-x="278" 
d="M176 -176h-74l19 560h37zM176 487q0 -15 -11 -26t-26 -11t-26 11t-11 26t11 26t26 11t26 -11t11 -26z" />
    <glyph glyph-name="cent" unicode="&#xa2;" horiz-adv-x="377" 
d="M355 479l-26 -55q9 -6 25 -20v-32q-16 15 -36 28l-160 -344q24 -32 59 -32q43 0 70.5 11.5t58.5 40.5v-32q-54 -52 -129 -52q-43 0 -78 23l-20 -44h-36l30 64q-63 65 -63 190q0 105 46 169t121 64q45 0 84 -18l18 39h36zM289 414q-31 12 -72 12q-46 0 -73.5 -55
t-27.5 -146q0 -81 23 -135z" />
    <glyph glyph-name="sterling" unicode="&#xa3;" horiz-adv-x="530" 
d="M485 0h-440v34q98 62 124 175q13 54 -8 134h-116v32h107q-26 97 -26 137q0 78 53.5 133t129.5 55q71 0 123.5 -44t52.5 -110h-58q0 50 -34.5 85t-83.5 35q-55 0 -90 -46t-35 -108q0 -41 15 -137h110v-32h-105q11 -87 -2 -142q-18 -80 -76 -143h359v-58z" />
    <glyph glyph-name="currency" unicode="&#xa4;" horiz-adv-x="778" 
d="M631 464l-64 -64q55 -65 55 -150q0 -86 -56 -150l64 -64l-27 -27l-63 64q-64 -55 -151 -55q-86 0 -150 54l-63 -63l-27 27l63 63q-55 64 -55 151t55 151l-64 63l27 27l64 -64q64 56 150 56q85 0 151 -56l64 64zM584 250q0 80 -57.5 137.5t-137.5 57.5t-137 -57.5
t-57 -137.5t57 -137t137 -57t137.5 57t57.5 137z" />
    <glyph glyph-name="yen" unicode="&#xa5;" horiz-adv-x="511" 
d="M502 700l-212 -394v-11h128v-32h-128v-72h128v-32h-128v-159h-60v159h-127v32h127v72h-127v32h119l-204 405h67l180 -369l198 369h39z" />
    <glyph glyph-name="brokenbar" unicode="&#xa6;" horiz-adv-x="142" 
d="M90 0h-38v250h38v-250zM90 450h-38v250h38v-250z" />
    <glyph glyph-name="section" unicode="&#xa7;" horiz-adv-x="518" 
d="M446 213q0 -76 -74 -154q52 -54 52 -116q0 -71 -48 -122t-117 -51q-80 0 -144 50v30q61 -48 144 -48q48 0 77.5 42t29.5 99q0 73 -120 130q-80 37 -127 80t-47 104q0 76 74 154q-52 54 -52 116q0 71 48 122t117 51q80 0 144 -50v-30q-61 48 -144 48q-48 0 -77.5 -42
t-29.5 -99q0 -73 120 -130q80 -37 127 -80t47 -104zM388 213q0 22 -11.5 41t-36.5 36.5t-43 27t-51 25.5q-49 24 -82 51q-34 -43 -34 -137q0 -22 11.5 -41t36.5 -36.5t43 -27t51 -25.5q49 -24 82 -51q34 43 34 137z" />
    <glyph glyph-name="dieresis" unicode="&#xa8;" 
d="M174 603q0 -14 -10 -24t-24 -10t-23.5 10t-9.5 24q0 13 9.5 23t23.5 10t24 -9.5t10 -23.5zM332 603q0 -14 -10 -24t-24 -10t-23.5 10t-9.5 24q0 13 9.5 23t23.5 10t24 -9.5t10 -23.5z" />
    <glyph glyph-name="copyright" unicode="&#xa9;" horiz-adv-x="808" 
d="M754 350q0 -145 -102.5 -247.5t-247.5 -102.5t-247.5 102.5t-102.5 247.5t102.5 247.5t247.5 102.5t247.5 -102.5t102.5 -247.5zM722 350q0 132 -93 225t-225 93t-225 -93t-93 -225t93 -225t225 -93t225 93t93 225zM510 462q-17 31 -48 48.5t-66 17.5q-111 0 -111 -178
t111 -178q57 0 107 31v-19q-50 -31 -107 -31q-75 0 -113.5 54t-38.5 143t38.5 143t113.5 54q35 0 65.5 -17t48.5 -47v-21z" />
    <glyph glyph-name="ordfeminine" unicode="&#xaa;" horiz-adv-x="311" 
d="M277 433h-42v24q-47 -29 -90 -29q-51 0 -81 24t-30 65q0 42 33 65t88 23q39 0 80 -13v8q0 36 -16.5 62t-47.5 26q-48 0 -97 -23v14q58 29 112 29q42 0 66.5 -32t24.5 -76v-167zM277 384h-243v25h243v-25zM235 572q-37 14 -76 14q-33 0 -55 -20.5t-22 -48.5
q0 -32 20.5 -50.5t56.5 -18.5q37 0 76 28v96z" />
    <glyph glyph-name="guillemotleft" unicode="&#xab;" horiz-adv-x="442" 
d="M217 0h-58l-125 225l125 225h58l-106 -225zM390 0h-58l-124 225l124 225h58l-105 -225z" />
    <glyph glyph-name="logicalnot" unicode="&#xac;" horiz-adv-x="666" 
d="M576 89h-38v229h-448v38h486v-267z" />
    <glyph glyph-name="uni00AD" unicode="&#xad;" horiz-adv-x="401" 
d="M367 212h-333v38h333v-38z" />
    <glyph glyph-name="registered" unicode="&#xae;" horiz-adv-x="923" 
d="M754 350q0 -145 -102.5 -247.5t-247.5 -102.5t-247.5 102.5t-102.5 247.5t102.5 247.5t247.5 102.5t247.5 -102.5t102.5 -247.5zM722 350q0 132 -93 225t-225 93t-225 -93t-93 -225t93 -225t225 -93t225 93t93 225zM527 155h-39l-106 176q-47 0 -88 7v-183h-33v385h32
q50 5 89 5q60 0 96.5 -27.5t36.5 -79.5q0 -44 -26 -70t-70 -34zM475 438q0 36 -27.5 62t-65.5 26q-49 0 -88 -4v-165q41 -7 88 -7q38 0 65.5 25.5t27.5 62.5z" />
    <glyph glyph-name="macron" unicode="&#xaf;" 
d="M330 543h-220v32h220v-32z" />
    <glyph glyph-name="degree" unicode="&#xb0;" horiz-adv-x="367" 
d="M299 540q0 -48 -34 -82t-81 -34q-48 0 -82 34t-34 82t34 81.5t82 33.5q47 0 81 -33.5t34 -81.5zM267 540q0 34 -24.5 58.5t-58.5 24.5q-35 0 -59.5 -24t-24.5 -59t24.5 -59.5t59.5 -24.5q34 0 58.5 24.5t24.5 59.5z" />
    <glyph glyph-name="plusminus" unicode="&#xb1;" horiz-adv-x="778" 
d="M711 269h-303v-197h-38v197h-302v38h302v303h38v-303h303v-38zM711 0h-643v38h643v-38z" />
    <glyph glyph-name="two.superior" unicode="&#xb2;" horiz-adv-x="296" 
d="M260 388h-224v27l117 139q58 69 58 158q0 28 -18 49t-45 21q-67 0 -107 -55v25q38 56 107 56q44 0 76 -27.5t32 -68.5q0 -81 -83 -175l-98 -113h185v-36z" />
    <glyph glyph-name="three.superior" unicode="&#xb3;" horiz-adv-x="296" 
d="M260 502q0 -49 -33 -84t-79 -35q-62 0 -112 35v25q52 -35 112 -35q25 0 43 28t18 66q0 52 -22 73t-76 21v23q50 0 70.5 20.5t20.5 70.5q0 33 -16.5 53t-44.5 20q-52 0 -92 -35v25q38 35 92 35q48 0 77 -27t29 -71q0 -35 -18 -59.5t-50 -33.5q35 -11 58 -43t23 -72z" />
    <glyph glyph-name="acute" unicode="&#xb4;" 
d="M320 700q0 -95 -100 -195h-32q66 86 66 195h66z" />
    <glyph glyph-name="mu" unicode="&#xb5;" horiz-adv-x="455" 
d="M383 0h-58v56q-71 -64 -141 -64q-37 0 -66 24v-188h-50v622h58v-323q0 -41 22.5 -71t57.5 -30q59 0 119 53v371h58v-450z" />
    <glyph glyph-name="paragraph" unicode="&#xb6;" horiz-adv-x="405" 
d="M371 668h-34v-783h-32v815h66v-32zM271 -115h-32v365q-96 0 -150.5 61.5t-54.5 163.5q0 105 64.5 165t172.5 60v-815z" />
    <glyph glyph-name="periodcentered" unicode="&#xb7;" horiz-adv-x="278" 
d="M176 250q0 -15 -11 -26t-26 -11t-26 11t-11 26t11 26t26 11t26 -11t11 -26z" />
    <glyph glyph-name="cedilla" unicode="&#xb8;" 
d="M289 -138q0 -37 -19 -64.5t-50 -27.5q-39 0 -69 21v21q23 -10 44 -10q45 0 45 80q0 69 -44 119h27q66 -55 66 -139z" />
    <glyph glyph-name="one.superior" unicode="&#xb9;" horiz-adv-x="240" 
d="M168 388h-45v359q-39 -42 -87 -64v25q61 35 98 95h34v-415z" />
    <glyph glyph-name="ordmasculine" unicode="&#xba;" horiz-adv-x="311" 
d="M277 568q0 -68 -31.5 -104t-90.5 -36t-90 36t-31 104t31 104t90 36t90.5 -36t31.5 -104zM277 384h-243v25h243v-25zM229 568q0 121 -74 121q-73 0 -73 -121q0 -120 73 -120q74 0 74 120z" />
    <glyph glyph-name="guillemotright" unicode="&#xbb;" horiz-adv-x="442" 
d="M229 225l-124 -225h-58l105 225l-105 225h58zM403 225l-125 -225h-58l106 225l-106 225h58z" />
    <glyph glyph-name="onequarter" unicode="&#xbc;" horiz-adv-x="583" 
d="M476 700l-340 -700h-36l340 700h36zM186 288h-45v359q-39 -42 -87 -64v25q61 35 98 95h34v-415zM529 145h-39v-145h-45v145h-140v27l140 243h45v-243h39v-27zM445 172v193l-111 -193h111z" />
    <glyph glyph-name="onehalf" unicode="&#xbd;" horiz-adv-x="634" 
d="M476 700l-340 -700h-36l340 700h36zM186 288h-45v359q-39 -42 -87 -64v25q61 35 98 95h34v-415zM580 0h-224v27l117 139q58 69 58 158q0 28 -18 49t-45 21q-67 0 -107 -55v25q38 56 107 56q44 0 76 -27.5t32 -68.5q0 -81 -83 -175l-98 -113h185v-36z" />
    <glyph glyph-name="threequarters" unicode="&#xbe;" horiz-adv-x="641" 
d="M534 700l-340 -700h-36l340 700h36zM278 402q0 -49 -33 -84t-79 -35q-62 0 -112 35v25q52 -35 112 -35q25 0 43 28t18 66q0 52 -22 73t-76 21v23q50 0 70.5 20.5t20.5 70.5q0 33 -16.5 53t-44.5 20q-52 0 -92 -35v25q38 35 92 35q48 0 77 -27t29 -71q0 -35 -18 -59.5
t-50 -33.5q35 -11 58 -43t23 -72zM587 145h-39v-145h-45v145h-140v27l140 243h45v-243h39v-27zM503 172v193l-111 -193h111z" />
    <glyph glyph-name="questiondown" unicode="&#xbf;" horiz-adv-x="382" 
d="M348 -88q-25 -41 -67 -64.5t-90 -23.5q-64 0 -110.5 40t-46.5 100q0 72 14.5 108t63.5 102t63.5 102t14.5 108h32q0 -89 -12 -127q-6 -17 -16 -36.5t-17 -30.5t-24 -35.5l-21 -30.5q-29 -44 -34.5 -70.5t-5.5 -89.5q0 -44 28.5 -76t70.5 -32q48 0 90 23.5t67 64.5v-32z
M243 487q0 -15 -10.5 -26t-26.5 -11q-15 0 -26 11t-11 26t11 26t26 11q16 0 26.5 -11t10.5 -26z" />
    <glyph glyph-name="Agrave" unicode="&#xc0;" horiz-adv-x="546" 
d="M537 0h-63l-81 245h-266l-82 -245h-36l234 700h63zM382 279l-121 367l-123 -367h244zM307 736h-32q-84 60 -140 144h66q44 -84 106 -144z" />
    <glyph glyph-name="Aacute" unicode="&#xc1;" horiz-adv-x="546" 
d="M537 0h-63l-81 245h-266l-82 -245h-36l234 700h63zM382 279l-121 367l-123 -367h244zM415 880q-56 -84 -140 -144h-32q62 60 106 144h66z" />
    <glyph glyph-name="Acircumflex" unicode="&#xc2;" horiz-adv-x="546" 
d="M537 0h-63l-81 245h-266l-82 -245h-36l234 700h63zM382 279l-121 367l-123 -367h244zM422 736h-32l-115 108l-115 -108h-32l109 144h76z" />
    <glyph glyph-name="Atilde" unicode="&#xc3;" horiz-adv-x="546" 
d="M537 0h-63l-81 245h-266l-82 -245h-36l234 700h63zM382 279l-121 367l-123 -367h244zM414 837q-64 -78 -95 -78q-18 0 -45.5 22.5t-45.5 22.5q-29 0 -68 -45l-24 20q64 78 95 78q18 0 45.5 -22.5t45.5 -22.5q29 0 68 45z" />
    <glyph glyph-name="Adieresis" unicode="&#xc4;" horiz-adv-x="546" 
d="M537 0h-63l-81 245h-266l-82 -245h-36l234 700h63zM382 279l-121 367l-123 -367h244zM220 808q0 -14 -10 -24t-24 -10t-23.5 10t-9.5 24t9.5 23.5t23.5 9.5t24 -9.5t10 -23.5zM396 808q0 -14 -10 -24t-24 -10t-23.5 10t-9.5 24t9.5 23.5t23.5 9.5t24 -9.5t10 -23.5z" />
    <glyph glyph-name="Aring" unicode="&#xc5;" horiz-adv-x="546" 
d="M537 0h-63l-81 245h-266l-82 -245h-36l230 687q-41 21 -41 69q0 32 22.5 54.5t54.5 22.5q31 0 54 -22.5t23 -54.5q0 -47 -42 -69zM382 279l-121 367l-123 -367h244zM330 756q0 22 -16 38.5t-39 16.5t-39.5 -16t-16.5 -39t16.5 -39.5t39.5 -16.5t39 16.5t16 39.5z" />
    <glyph glyph-name="AE" unicode="&#xc6;" horiz-adv-x="899" 
d="M845 0h-440l1 245h-250l-110 -245h-37l315 700h500v-34h-359v-299h292v-34h-292v-299h380v-34zM406 279l-1 387h-59l-174 -387h234z" />
    <glyph glyph-name="Ccedilla" unicode="&#xc7;" horiz-adv-x="565" 
d="M538 553q-32 56 -88 88.5t-121 32.5q-201 0 -201 -324t201 -324q106 0 195 57v-34q-79 -50 -172 -56q56 -53 56 -131q0 -37 -19 -64.5t-50 -27.5q-37 0 -69 21v21q23 -10 45 -10q45 0 45 80q0 61 -37 110q-133 2 -201 100t-68 258q0 161 69.5 259.5t205.5 98.5
q64 0 119.5 -31t89.5 -84v-40z" />
    <glyph glyph-name="Egrave" unicode="&#xc8;" horiz-adv-x="584" 
d="M530 0h-440v700h419v-34h-359v-299h292v-34h-292v-299h380v-34zM332 736h-32q-84 60 -140 144h66q44 -84 106 -144z" />
    <glyph glyph-name="Eacute" unicode="&#xc9;" horiz-adv-x="584" 
d="M530 0h-440v700h419v-34h-359v-299h292v-34h-292v-299h380v-34zM440 880q-56 -84 -140 -144h-32q62 60 106 144h66z" />
    <glyph glyph-name="Ecircumflex" unicode="&#xca;" horiz-adv-x="584" 
d="M530 0h-440v700h419v-34h-359v-299h292v-34h-292v-299h380v-34zM447 736h-32l-115 108l-115 -108h-32l109 144h76z" />
    <glyph glyph-name="Edieresis" unicode="&#xcb;" horiz-adv-x="584" 
d="M530 0h-440v700h419v-34h-359v-299h292v-34h-292v-299h380v-34zM245 808q0 -14 -10 -24t-24 -10t-23.5 10t-9.5 24t10 23.5t23 9.5q14 0 24 -9.5t10 -23.5zM421 808q0 -14 -10 -24t-24 -10t-23.5 10t-9.5 24t10 23.5t23 9.5q14 0 24 -9.5t10 -23.5z" />
    <glyph glyph-name="Igrave" unicode="&#xcc;" horiz-adv-x="240" 
d="M150 0h-60v700h60v-700zM152 736h-32q-84 60 -140 144h66q44 -84 106 -144z" />
    <glyph glyph-name="Iacute" unicode="&#xcd;" horiz-adv-x="240" 
d="M150 0h-60v700h60v-700zM260 880q-56 -84 -140 -144h-32q62 60 106 144h66z" />
    <glyph glyph-name="Icircumflex" unicode="&#xce;" horiz-adv-x="240" 
d="M150 0h-60v700h60v-700zM267 736h-32l-115 108l-115 -108h-32l109 144h76z" />
    <glyph glyph-name="Idieresis" unicode="&#xcf;" horiz-adv-x="240" 
d="M150 0h-60v700h60v-700zM65 808q0 -14 -10 -24t-24 -10t-23.5 10t-9.5 24t10 23.5t23 9.5q14 0 24 -9.5t10 -23.5zM241 808q0 -14 -10 -24t-24 -10t-23.5 10t-9.5 24t10 23.5t23 9.5q14 0 24 -9.5t10 -23.5z" />
    <glyph glyph-name="Eth" unicode="&#xd0;" horiz-adv-x="610" 
d="M556 350q0 -161 -73 -259.5t-211 -98.5q-82 0 -175 8h-58v333h-30v34h30v333h58q93 8 175 8q138 0 211 -98.5t73 -259.5zM482 350q0 84 -22 155.5t-71 120t-117 48.5q-82 0 -173 -8v-299h117v-34h-117v-299q91 -8 173 -8q68 0 117 48.5t71 120t22 155.5z" />
    <glyph glyph-name="Ntilde" unicode="&#xd1;" horiz-adv-x="697" 
d="M607 0h-40l-443 607v-607h-34v700h40l443 -607v607h34v-700zM488 837q-64 -78 -95 -78q-18 0 -45.5 22.5t-45.5 22.5q-29 0 -68 -45l-24 20q64 78 95 78q18 0 45.5 -22.5t45.5 -22.5q29 0 68 45z" />
    <glyph glyph-name="Ograve" unicode="&#xd2;" horiz-adv-x="658" 
d="M604 350q0 -161 -69.5 -259.5t-205.5 -98.5t-205.5 98.5t-69.5 259.5t69.5 259.5t205.5 98.5t205.5 -98.5t69.5 -259.5zM530 350q0 324 -201 324t-201 -324t201 -324t201 324zM361 736h-32q-84 60 -140 144h66q44 -84 106 -144z" />
    <glyph glyph-name="Oacute" unicode="&#xd3;" horiz-adv-x="658" 
d="M604 350q0 -161 -69.5 -259.5t-205.5 -98.5t-205.5 98.5t-69.5 259.5t69.5 259.5t205.5 98.5t205.5 -98.5t69.5 -259.5zM530 350q0 324 -201 324t-201 -324t201 -324t201 324zM469 880q-56 -84 -140 -144h-32q62 60 106 144h66z" />
    <glyph glyph-name="Ocircumflex" unicode="&#xd4;" horiz-adv-x="658" 
d="M604 350q0 -161 -69.5 -259.5t-205.5 -98.5t-205.5 98.5t-69.5 259.5t69.5 259.5t205.5 98.5t205.5 -98.5t69.5 -259.5zM530 350q0 324 -201 324t-201 -324t201 -324t201 324zM476 736h-32l-115 108l-115 -108h-32l109 144h76z" />
    <glyph glyph-name="Otilde" unicode="&#xd5;" horiz-adv-x="658" 
d="M604 350q0 -161 -69.5 -259.5t-205.5 -98.5t-205.5 98.5t-69.5 259.5t69.5 259.5t205.5 98.5t205.5 -98.5t69.5 -259.5zM530 350q0 324 -201 324t-201 -324t201 -324t201 324zM468 837q-64 -78 -95 -78q-18 0 -45.5 22.5t-45.5 22.5q-29 0 -68 -45l-24 20q64 78 95 78
q18 0 45.5 -22.5t45.5 -22.5q29 0 68 45z" />
    <glyph glyph-name="Odieresis" unicode="&#xd6;" horiz-adv-x="658" 
d="M604 350q0 -161 -69.5 -259.5t-205.5 -98.5t-205.5 98.5t-69.5 259.5t69.5 259.5t205.5 98.5t205.5 -98.5t69.5 -259.5zM530 350q0 324 -201 324t-201 -324t201 -324t201 324zM274 808q0 -14 -10 -24t-24 -10t-23.5 10t-9.5 24t9.5 23.5t23.5 9.5t24 -9.5t10 -23.5z
M450 808q0 -14 -10 -24t-24 -10t-23.5 10t-9.5 24t9.5 23.5t23.5 9.5t24 -9.5t10 -23.5z" />
    <glyph glyph-name="multiply" unicode="&#xd7;" horiz-adv-x="778" 
d="M631 464l-215 -214l214 -214l-27 -27l-213 214l-214 -214l-27 27l214 214l-215 214l27 27l215 -214l214 214z" />
    <glyph glyph-name="Oslash" unicode="&#xd8;" horiz-adv-x="658" 
d="M604 350q0 -161 -69.5 -259.5t-205.5 -98.5q-101 0 -168 58l-53 -87h-38l68 110q-84 94 -84 277q0 161 69.5 259.5t205.5 98.5q101 0 168 -58l53 87h38l-68 -110q84 -94 84 -277zM530 350q0 148 -41 227l-301 -485q50 -66 141 -66q201 0 201 324zM470 608q-50 66 -141 66
q-201 0 -201 -324q0 -148 41 -227z" />
    <glyph glyph-name="Ugrave" unicode="&#xd9;" horiz-adv-x="624" 
d="M543 196q0 -89 -68.5 -149.5t-162.5 -60.5t-162.5 60.5t-68.5 149.5v504h60v-490q0 -78 53.5 -134t130.5 -56t130.5 56t53.5 134v490h34v-504zM344 736h-32q-84 60 -140 144h66q44 -84 106 -144z" />
    <glyph glyph-name="Uacute" unicode="&#xda;" horiz-adv-x="624" 
d="M543 196q0 -89 -68.5 -149.5t-162.5 -60.5t-162.5 60.5t-68.5 149.5v504h60v-490q0 -78 53.5 -134t130.5 -56t130.5 56t53.5 134v490h34v-504zM452 880q-56 -84 -140 -144h-32q62 60 106 144h66z" />
    <glyph glyph-name="Ucircumflex" unicode="&#xdb;" horiz-adv-x="624" 
d="M543 196q0 -89 -68.5 -149.5t-162.5 -60.5t-162.5 60.5t-68.5 149.5v504h60v-490q0 -78 53.5 -134t130.5 -56t130.5 56t53.5 134v490h34v-504zM459 736h-32l-115 108l-115 -108h-32l109 144h76z" />
    <glyph glyph-name="Udieresis" unicode="&#xdc;" horiz-adv-x="624" 
d="M543 196q0 -89 -68.5 -149.5t-162.5 -60.5t-162.5 60.5t-68.5 149.5v504h60v-490q0 -78 53.5 -134t130.5 -56t130.5 56t53.5 134v490h34v-504zM257 808q0 -14 -10 -24t-24 -10t-23.5 10t-9.5 24t10 23.5t23 9.5q14 0 24 -9.5t10 -23.5zM433 808q0 -14 -10 -24t-24 -10
t-23.5 10t-9.5 24t10 23.5t23 9.5q14 0 24 -9.5t10 -23.5z" />
    <glyph glyph-name="Yacute" unicode="&#xdd;" horiz-adv-x="511" 
d="M502 700l-212 -394v-306h-60v280l-212 420h67l180 -369l198 369h39zM400 880q-56 -84 -140 -144h-32q62 60 106 144h66z" />
    <glyph glyph-name="Thorn" unicode="&#xde;" horiz-adv-x="606" 
d="M552 350q0 -91 -66.5 -137t-175.5 -46q-78 0 -160 14v-181h-60v700h60v-175q85 8 160 8q109 0 175.5 -46t66.5 -137zM478 350q0 63 -50 106t-118 43q-75 0 -160 -8v-276q82 -14 160 -14q68 0 118 43t50 106z" />
    <glyph glyph-name="germandbls" unicode="&#xdf;" horiz-adv-x="431" 
d="M395 124q0 -54 -35 -93t-87 -39q-58 0 -102 41v32q44 -41 102 -41q30 0 48 25t18 60q0 57 -78 102q-98 55 -98 123q0 50 32 87t78 37q29 15 46 42.5t17 59.5q0 47 -29.5 81.5t-73.5 34.5t-73.5 -34.5t-29.5 -81.5v-560h-58v525q0 74 46.5 128.5t114.5 54.5q57 0 96 -44
t39 -104q0 -45 -26 -82t-69 -52q-33 0 -55 -24.5t-22 -59.5q0 -13 4.5 -23.5t17 -20l18.5 -14t26 -15l24 -12.5q109 -61 109 -133z" />
    <glyph glyph-name="agrave" unicode="&#xe0;" horiz-adv-x="450" 
d="M378 0h-58v40q-62 -48 -125 -48q-70 0 -112 39.5t-42 107.5q0 70 46 109t122 39q57 0 111 -23v14q0 60 -22.5 103t-66.5 43q-66 0 -134 -38v23q77 49 155 49q58 0 92 -53.5t34 -126.5v-278zM320 232q-52 23 -106 23q-45 0 -76 -34t-31 -82q0 -52 28.5 -83.5t78.5 -31.5
q53 0 106 48v160zM263 505h-32q-100 100 -100 195h66q0 -109 66 -195z" />
    <glyph glyph-name="aacute" unicode="&#xe1;" horiz-adv-x="450" 
d="M378 0h-58v40q-62 -48 -125 -48q-70 0 -112 39.5t-42 107.5q0 70 46 109t122 39q57 0 111 -23v14q0 60 -22.5 103t-66.5 43q-66 0 -134 -38v23q77 49 155 49q58 0 92 -53.5t34 -126.5v-278zM320 232q-52 23 -106 23q-45 0 -76 -34t-31 -82q0 -52 28.5 -83.5t78.5 -31.5
q53 0 106 48v160zM331 700q0 -95 -100 -195h-32q66 86 66 195h66z" />
    <glyph glyph-name="acircumflex" unicode="&#xe2;" horiz-adv-x="450" 
d="M378 0h-58v40q-62 -48 -125 -48q-70 0 -112 39.5t-42 107.5q0 70 46 109t122 39q57 0 111 -23v14q0 60 -22.5 103t-66.5 43q-66 0 -134 -38v23q77 49 155 49q58 0 92 -53.5t34 -126.5v-278zM320 232q-52 23 -106 23q-45 0 -76 -34t-31 -82q0 -52 28.5 -83.5t78.5 -31.5
q53 0 106 48v160zM363 505h-32l-100 148l-100 -148h-32l100 195h64z" />
    <glyph glyph-name="atilde" unicode="&#xe3;" horiz-adv-x="450" 
d="M378 0h-58v40q-62 -48 -125 -48q-70 0 -112 39.5t-42 107.5q0 70 46 109t122 39q57 0 111 -23v14q0 60 -22.5 103t-66.5 43q-66 0 -134 -38v23q77 49 155 49q58 0 92 -53.5t34 -126.5v-278zM320 232q-52 23 -106 23q-45 0 -76 -34t-31 -82q0 -52 28.5 -83.5t78.5 -31.5
q53 0 106 48v160zM356 629q-60 -72 -87 -72q-15 0 -39 19.5t-40 19.5q-26 0 -59 -39l-25 20q60 72 87 72q15 0 39 -19.5t40 -19.5q26 0 59 39z" />
    <glyph glyph-name="adieresis" unicode="&#xe4;" horiz-adv-x="450" 
d="M378 0h-58v40q-62 -48 -125 -48q-70 0 -112 39.5t-42 107.5q0 70 46 109t122 39q57 0 111 -23v14q0 60 -22.5 103t-66.5 43q-66 0 -134 -38v23q77 49 155 49q58 0 92 -53.5t34 -126.5v-278zM320 232q-52 23 -106 23q-45 0 -76 -34t-31 -82q0 -52 28.5 -83.5t78.5 -31.5
q53 0 106 48v160zM185 603q0 -14 -10 -24t-24 -10t-23.5 10t-9.5 24q0 13 10 23t23 10q14 0 24 -9.5t10 -23.5zM343 603q0 -14 -10 -24t-24 -10t-23.5 10t-9.5 24q0 13 10 23t23 10q14 0 24 -9.5t10 -23.5z" />
    <glyph glyph-name="aring" unicode="&#xe5;" horiz-adv-x="450" 
d="M378 0h-58v40q-62 -48 -125 -48q-70 0 -112 39.5t-42 107.5q0 70 46 109t122 39q57 0 111 -23v14q0 60 -22.5 103t-66.5 43q-66 0 -134 -38v23q77 49 155 49q58 0 92 -53.5t34 -126.5v-278zM320 232q-52 23 -106 23q-45 0 -76 -34t-31 -82q0 -52 28.5 -83.5t78.5 -31.5
q53 0 106 48v160zM308 603q0 -32 -22.5 -54.5t-54.5 -22.5t-54.5 22.5t-22.5 54.5t22.5 54.5t54.5 22.5t54.5 -22.5t22.5 -54.5zM287 603q0 23 -16.5 39.5t-39.5 16.5t-39.5 -16.5t-16.5 -39.5t16.5 -39.5t39.5 -16.5t39.5 16.5t16.5 39.5z" />
    <glyph glyph-name="ae" unicode="&#xe6;" horiz-adv-x="702" 
d="M657 217h-271q0 -43 4 -74t14 -59.5t31.5 -43t53.5 -14.5q70 0 122 48v-32q-52 -50 -122 -50q-66 0 -111 50v-42h-58v40q-62 -48 -125 -48q-70 0 -112 39.5t-42 107.5q0 70 46 109t122 39q57 0 111 -23v14q0 60 -22.5 103t-66.5 43q-66 0 -134 -38v23q77 49 155 49
q71 0 105 -78q48 78 132 78q76 0 122 -64t46 -169v-8zM320 232q-52 23 -106 23q-45 0 -76 -34t-31 -82q0 -52 28.5 -83.5t78.5 -31.5q53 0 106 48v160zM591 249q0 74 -25 125.5t-77 51.5q-53 0 -78 -51.5t-25 -125.5h205z" />
    <glyph glyph-name="ccedilla" unicode="&#xe7;" horiz-adv-x="376" 
d="M354 372q-48 54 -122 54q-52 0 -84 -55.5t-32 -145.5t32 -145.5t84 -55.5q39 0 63.5 11.5t50.5 40.5v-32q-36 -42 -92 -50q58 -53 58 -132q0 -37 -19 -64.5t-50 -27.5q-39 0 -69 21v21q23 -10 44 -10q45 0 45 80q0 61 -37 110q-80 3 -128 66.5t-48 166.5q0 105 50 169
t132 64q73 0 122 -54v-32z" />
    <glyph glyph-name="egrave" unicode="&#xe8;" horiz-adv-x="432" 
d="M387 217h-271q0 -43 4 -74t14 -59.5t31.5 -43t53.5 -14.5q70 0 122 48v-32q-52 -50 -122 -50q-76 0 -122.5 64t-46.5 169t46.5 169t122.5 64t122 -64t46 -169v-8zM321 249q0 74 -25 125.5t-77 51.5q-53 0 -78 -51.5t-25 -125.5h205zM251 505h-32q-100 100 -100 195h66
q0 -109 66 -195z" />
    <glyph glyph-name="eacute" unicode="&#xe9;" horiz-adv-x="432" 
d="M387 217h-271q0 -43 4 -74t14 -59.5t31.5 -43t53.5 -14.5q70 0 122 48v-32q-52 -50 -122 -50q-76 0 -122.5 64t-46.5 169t46.5 169t122.5 64t122 -64t46 -169v-8zM321 249q0 74 -25 125.5t-77 51.5q-53 0 -78 -51.5t-25 -125.5h205zM319 700q0 -95 -100 -195h-32
q66 86 66 195h66z" />
    <glyph glyph-name="ecircumflex" unicode="&#xea;" horiz-adv-x="432" 
d="M387 217h-271q0 -43 4 -74t14 -59.5t31.5 -43t53.5 -14.5q70 0 122 48v-32q-52 -50 -122 -50q-76 0 -122.5 64t-46.5 169t46.5 169t122.5 64t122 -64t46 -169v-8zM321 249q0 74 -25 125.5t-77 51.5q-53 0 -78 -51.5t-25 -125.5h205zM351 505h-32l-100 148l-100 -148h-32
l100 195h64z" />
    <glyph glyph-name="edieresis" unicode="&#xeb;" horiz-adv-x="432" 
d="M387 217h-271q0 -43 4 -74t14 -59.5t31.5 -43t53.5 -14.5q70 0 122 48v-32q-52 -50 -122 -50q-76 0 -122.5 64t-46.5 169t46.5 169t122.5 64t122 -64t46 -169v-8zM321 249q0 74 -25 125.5t-77 51.5q-53 0 -78 -51.5t-25 -125.5h205zM173 603q0 -14 -10 -24t-24 -10
t-23.5 10t-9.5 24q0 13 10 23t23 10q14 0 24 -9.5t10 -23.5zM331 603q0 -14 -10 -24t-24 -10t-23.5 10t-9.5 24q0 13 10 23t23 10q14 0 24 -9.5t10 -23.5z" />
    <glyph glyph-name="igrave" unicode="&#xec;" horiz-adv-x="251" 
d="M233 31q-46 -39 -91 -39q-39 0 -56.5 39t-17.5 96v323h58v-323q0 -22 1 -36.5t5 -31t13 -25t24 -8.5q33 0 64 28v-23zM129 505h-32q-100 100 -100 195h66q0 -109 66 -195z" />
    <glyph glyph-name="iacute" unicode="&#xed;" horiz-adv-x="251" 
d="M233 31q-46 -39 -91 -39q-39 0 -56.5 39t-17.5 96v323h58v-323q0 -22 1 -36.5t5 -31t13 -25t24 -8.5q33 0 64 28v-23zM197 700q0 -95 -100 -195h-32q66 86 66 195h66z" />
    <glyph glyph-name="icircumflex" unicode="&#xee;" horiz-adv-x="251" 
d="M233 31q-46 -39 -91 -39q-39 0 -56.5 39t-17.5 96v323h58v-323q0 -22 1 -36.5t5 -31t13 -25t24 -8.5q33 0 64 28v-23zM229 505h-32l-100 148l-100 -148h-32l100 195h64z" />
    <glyph glyph-name="idieresis" unicode="&#xef;" horiz-adv-x="251" 
d="M233 31q-46 -39 -91 -39q-39 0 -56.5 39t-17.5 96v323h58v-323q0 -22 1 -36.5t5 -31t13 -25t24 -8.5q33 0 64 28v-23zM69 603q0 -14 -10 -24t-24 -10t-23.5 10t-9.5 24q0 13 10 23t23 10q14 0 24 -9.5t10 -23.5zM191 603q0 -14 -10 -24t-24 -10t-23.5 10t-9.5 24
q0 13 10 23t23 10q14 0 24 -9.5t10 -23.5z" />
    <glyph glyph-name="eth" unicode="&#xf0;" horiz-adv-x="462" 
d="M419 346q0 -186 -44.5 -270t-142.5 -84q-84 0 -135.5 64t-51.5 169q0 233 168 233q43 0 80.5 -21.5t59.5 -58.5q0 150 -37 223l-92 -53l-16 28l90 52q-32 40 -85 40q-68 0 -125 -37v32q57 37 125 37q71 0 119 -53l70 41l16 -28l-66 -38q67 -98 67 -276zM353 346
q-22 37 -59.5 58.5t-80.5 21.5q-102 0 -102 -201q0 -91 33.5 -146t87.5 -55q24 0 42.5 5t31 17t22 24.5t14.5 34t8 39t3.5 46.5t0.5 48.5t-0.5 53.5t-0.5 54z" />
    <glyph glyph-name="ntilde" unicode="&#xf1;" horiz-adv-x="455" 
d="M387 0h-58v323q0 41 -22.5 71t-57.5 30q-59 0 -119 -53v-371h-58v450h58v-56q71 64 141 64q50 0 83 -40t33 -95v-323zM355 629q-60 -72 -87 -72q-16 0 -40 19.5t-39 19.5q-26 0 -59 -39l-25 20q60 72 87 72q16 0 40 -19.5t39 -19.5q26 0 59 39z" />
    <glyph glyph-name="ograve" unicode="&#xf2;" horiz-adv-x="436" 
d="M387 225q0 -113 -43 -173t-125 -60t-125.5 60t-43.5 173t43.5 173t125.5 60t125 -60t43 -173zM321 225q0 98 -26 149.5t-76 51.5q-103 0 -103 -201t103 -201q50 0 76 51.5t26 149.5zM251 505h-32q-100 100 -100 195h66q0 -109 66 -195z" />
    <glyph glyph-name="oacute" unicode="&#xf3;" horiz-adv-x="436" 
d="M387 225q0 -113 -43 -173t-125 -60t-125.5 60t-43.5 173t43.5 173t125.5 60t125 -60t43 -173zM321 225q0 98 -26 149.5t-76 51.5q-103 0 -103 -201t103 -201q50 0 76 51.5t26 149.5zM319 700q0 -95 -100 -195h-32q66 86 66 195h66z" />
    <glyph glyph-name="ocircumflex" unicode="&#xf4;" horiz-adv-x="436" 
d="M387 225q0 -113 -43 -173t-125 -60t-125.5 60t-43.5 173t43.5 173t125.5 60t125 -60t43 -173zM321 225q0 98 -26 149.5t-76 51.5q-103 0 -103 -201t103 -201q50 0 76 51.5t26 149.5zM351 505h-32l-100 148l-100 -148h-32l100 195h64z" />
    <glyph glyph-name="otilde" unicode="&#xf5;" horiz-adv-x="436" 
d="M387 225q0 -113 -43 -173t-125 -60t-125.5 60t-43.5 173t43.5 173t125.5 60t125 -60t43 -173zM321 225q0 98 -26 149.5t-76 51.5q-103 0 -103 -201t103 -201q50 0 76 51.5t26 149.5zM344 629q-60 -72 -87 -72q-15 0 -39 19.5t-40 19.5q-26 0 -59 -39l-25 20q60 72 87 72
q15 0 39 -19.5t40 -19.5q26 0 59 39z" />
    <glyph glyph-name="odieresis" unicode="&#xf6;" horiz-adv-x="436" 
d="M387 225q0 -113 -43 -173t-125 -60t-125.5 60t-43.5 173t43.5 173t125.5 60t125 -60t43 -173zM321 225q0 98 -26 149.5t-76 51.5q-103 0 -103 -201t103 -201q50 0 76 51.5t26 149.5zM173 603q0 -14 -10 -24t-24 -10t-23.5 10t-9.5 24q0 13 10 23t23 10q14 0 24 -9.5
t10 -23.5zM331 603q0 -14 -10 -24t-24 -10t-23.5 10t-9.5 24q0 13 10 23t23 10q14 0 24 -9.5t10 -23.5z" />
    <glyph glyph-name="divide" unicode="&#xf7;" horiz-adv-x="778" 
d="M711 231h-643v38h643v-38zM426 402q0 -15 -11 -26t-26 -11t-26 11t-11 26t11 26t26 11t26 -11t11 -26zM426 98q0 -15 -11 -26t-26 -11t-26 11t-11 26t11 26t26 11t26 -11t11 -26z" />
    <glyph glyph-name="oslash" unicode="&#xf8;" horiz-adv-x="436" 
d="M387 225q0 -113 -43 -173t-125 -60q-60 0 -100 32l-32 -53h-37l46 77q-46 61 -46 177q0 113 43.5 173t125.5 60q59 0 99 -32l32 53h37l-46 -77q46 -61 46 -177zM292 380q-28 46 -73 46q-103 0 -103 -201q0 -70 14 -118zM321 225q0 70 -14 118l-162 -273q28 -46 74 -46
q50 0 76 51.5t26 149.5z" />
    <glyph glyph-name="ugrave" unicode="&#xf9;" horiz-adv-x="455" 
d="M383 0h-58v56q-71 -64 -141 -64q-50 0 -83 40t-33 95v323h58v-323q0 -41 22.5 -71t57.5 -30q59 0 119 53v371h58v-450zM258 505h-32q-100 100 -100 195h66q0 -109 66 -195z" />
    <glyph glyph-name="uacute" unicode="&#xfa;" horiz-adv-x="455" 
d="M383 0h-58v56q-71 -64 -141 -64q-50 0 -83 40t-33 95v323h58v-323q0 -41 22.5 -71t57.5 -30q59 0 119 53v371h58v-450zM326 700q0 -95 -100 -195h-32q66 86 66 195h66z" />
    <glyph glyph-name="ucircumflex" unicode="&#xfb;" horiz-adv-x="455" 
d="M383 0h-58v56q-71 -64 -141 -64q-50 0 -83 40t-33 95v323h58v-323q0 -41 22.5 -71t57.5 -30q59 0 119 53v371h58v-450zM358 505h-32l-100 148l-100 -148h-32l100 195h64z" />
    <glyph glyph-name="udieresis" unicode="&#xfc;" horiz-adv-x="455" 
d="M383 0h-58v56q-71 -64 -141 -64q-50 0 -83 40t-33 95v323h58v-323q0 -41 22.5 -71t57.5 -30q59 0 119 53v371h58v-450zM180 603q0 -14 -10 -24t-24 -10t-23.5 10t-9.5 24q0 13 9.5 23t23.5 10t24 -9.5t10 -23.5zM338 603q0 -14 -10 -24t-24 -10t-23.5 10t-9.5 24
q0 13 9.5 23t23.5 10t24 -9.5t10 -23.5z" />
    <glyph glyph-name="yacute" unicode="&#xfd;" horiz-adv-x="455" 
d="M383 -58q0 -73 -32.5 -126.5t-89.5 -53.5q-75 0 -149 37v22q62 -25 128 -25q43 0 64 42.5t21 103.5v114q-71 -64 -141 -64q-50 0 -83 40t-33 95v323h58v-323q0 -41 22.5 -71t57.5 -30q59 0 119 53v371h58v-508zM326 700q0 -95 -100 -195h-32q66 86 66 195h66z" />
    <glyph glyph-name="thorn" unicode="&#xfe;" horiz-adv-x="454" 
d="M405 225q0 -105 -41.5 -169t-126.5 -64q-57 0 -111 23v-245h-58v930h58v-290q62 48 125 48q81 0 117.5 -63.5t36.5 -169.5zM339 225q0 45 -4 77.5t-14.5 62.5t-32.5 45.5t-56 15.5q-53 0 -106 -48v-331q52 -23 106 -23q40 0 65 31.5t33.5 73.5t8.5 96z" />
    <glyph glyph-name="ydieresis" unicode="&#xff;" horiz-adv-x="455" 
d="M383 -58q0 -73 -32.5 -126.5t-89.5 -53.5q-75 0 -149 37v22q62 -25 128 -25q43 0 64 42.5t21 103.5v114q-71 -64 -141 -64q-50 0 -83 40t-33 95v323h58v-323q0 -41 22.5 -71t57.5 -30q59 0 119 53v371h58v-508zM180 603q0 -14 -10 -24t-24 -10t-23.5 10t-9.5 24
q0 13 9.5 23t23.5 10t24 -9.5t10 -23.5zM338 603q0 -14 -10 -24t-24 -10t-23.5 10t-9.5 24q0 13 9.5 23t23.5 10t24 -9.5t10 -23.5z" />
    <glyph glyph-name="Amacron" unicode="&#x100;" horiz-adv-x="546" 
d="M537 0h-63l-81 245h-266l-82 -245h-36l234 700h63zM382 279l-121 367l-123 -367h244zM407 793h-264v32h264v-32z" />
    <glyph glyph-name="amacron" unicode="&#x101;" horiz-adv-x="450" 
d="M378 0h-58v40q-62 -48 -125 -48q-70 0 -112 39.5t-42 107.5q0 70 46 109t122 39q57 0 111 -23v14q0 60 -22.5 103t-66.5 43q-66 0 -134 -38v23q77 49 155 49q58 0 92 -53.5t34 -126.5v-278zM320 232q-52 23 -106 23q-45 0 -76 -34t-31 -82q0 -52 28.5 -83.5t78.5 -31.5
q53 0 106 48v160zM341 543h-220v32h220v-32z" />
    <glyph glyph-name="Abreve" unicode="&#x102;" horiz-adv-x="546" 
d="M537 0h-63l-81 245h-266l-82 -245h-36l234 700h63zM382 279l-121 367l-123 -367h244zM407 887q0 -64 -37.5 -111t-94.5 -47t-94.5 47t-37.5 111h29q0 -48 29.5 -83.5t73.5 -35.5t73.5 35.5t29.5 83.5h29z" />
    <glyph glyph-name="abreve" unicode="&#x103;" horiz-adv-x="450" 
d="M378 0h-58v40q-62 -48 -125 -48q-70 0 -112 39.5t-42 107.5q0 70 46 109t122 39q57 0 111 -23v14q0 60 -22.5 103t-66.5 43q-66 0 -134 -38v23q77 49 155 49q58 0 92 -53.5t34 -126.5v-278zM320 232q-52 23 -106 23q-45 0 -76 -34t-31 -82q0 -52 28.5 -83.5t78.5 -31.5
q53 0 106 48v160zM350 682q0 -64 -33 -111t-86 -47t-86 47t-33 111h29q0 -48 25 -83.5t65 -35.5t65 35.5t25 83.5h29z" />
    <glyph glyph-name="Aogonek" unicode="&#x104;" horiz-adv-x="546" 
d="M546 -209q-32 -21 -69 -21q-31 0 -50 27.5t-19 64.5q0 40 17 77q17 36 49 61l-81 245h-266l-82 -245h-36l234 700h63l231 -700q-38 0 -59.5 -35t-21.5 -83q0 -80 45 -80q22 0 45 10v-21zM382 279l-121 367l-123 -367h244z" />
    <glyph glyph-name="aogonek" unicode="&#x105;" horiz-adv-x="450" 
d="M392 -209q-30 -21 -69 -21q-31 0 -50 27.5t-19 64.5q0 86 66 139v39q-62 -48 -125 -48q-70 0 -112 39.5t-42 107.5q0 70 46 109t122 39q57 0 111 -23v14q0 60 -22.5 103t-66.5 43q-66 0 -134 -38v23q77 49 155 49q58 0 92 -53.5t34 -126.5v-278q-40 0 -59 -43
q-17 -36 -17 -75q0 -33 11 -56.5t34 -23.5q22 0 45 10v-21zM320 232q-52 23 -106 23q-45 0 -76 -34t-31 -82q0 -52 28.5 -83.5t78.5 -31.5q53 0 106 48v160z" />
    <glyph glyph-name="Cacute" unicode="&#x106;" horiz-adv-x="565" 
d="M538 553q-32 56 -88 88.5t-121 32.5q-201 0 -201 -324t201 -324q106 0 195 57v-34q-89 -57 -195 -57q-136 0 -205.5 98.5t-69.5 259.5t69.5 259.5t205.5 98.5q64 0 119.5 -31t89.5 -84v-40zM469 880q-56 -84 -140 -144h-32q62 60 106 144h66z" />
    <glyph glyph-name="cacute" unicode="&#x107;" horiz-adv-x="376" 
d="M354 372q-48 54 -122 54q-52 0 -84 -55.5t-32 -145.5t32 -145.5t84 -55.5q39 0 63.5 11.5t50.5 40.5v-32q-46 -52 -114 -52q-82 0 -132 64t-50 169t50 169t132 64q73 0 122 -54v-32zM332 700q0 -95 -100 -195h-32q66 86 66 195h66z" />
    <glyph glyph-name="Ccircumflex" unicode="&#x108;" horiz-adv-x="565" 
d="M538 553q-32 56 -88 88.5t-121 32.5q-201 0 -201 -324t201 -324q106 0 195 57v-34q-89 -57 -195 -57q-136 0 -205.5 98.5t-69.5 259.5t69.5 259.5t205.5 98.5q64 0 119.5 -31t89.5 -84v-40zM476 736h-32l-115 108l-115 -108h-32l109 144h76z" />
    <glyph glyph-name="ccircumflex" unicode="&#x109;" horiz-adv-x="376" 
d="M354 372q-48 54 -122 54q-52 0 -84 -55.5t-32 -145.5t32 -145.5t84 -55.5q39 0 63.5 11.5t50.5 40.5v-32q-46 -52 -114 -52q-82 0 -132 64t-50 169t50 169t132 64q73 0 122 -54v-32zM364 505h-32l-100 148l-100 -148h-32l100 195h64z" />
    <glyph glyph-name="Cdotaccent" unicode="&#x10a;" horiz-adv-x="565" 
d="M538 553q-32 56 -88 88.5t-121 32.5q-201 0 -201 -324t201 -324q106 0 195 57v-34q-89 -57 -195 -57q-136 0 -205.5 98.5t-69.5 259.5t69.5 259.5t205.5 98.5q64 0 119.5 -31t89.5 -84v-40zM366 808q0 -15 -11 -26t-26 -11t-26 11t-11 26t11 26t26 11t26 -11t11 -26z" />
    <glyph glyph-name="cdotaccent" unicode="&#x10b;" horiz-adv-x="376" 
d="M354 372q-48 54 -122 54q-52 0 -84 -55.5t-32 -145.5t32 -145.5t84 -55.5q39 0 63.5 11.5t50.5 40.5v-32q-46 -52 -114 -52q-82 0 -132 64t-50 169t50 169t132 64q73 0 122 -54v-32zM269 603q0 -15 -11 -26t-26 -11t-26 11t-11 26t11 26t26 11t26 -11t11 -26z" />
    <glyph glyph-name="Ccaron" unicode="&#x10c;" horiz-adv-x="565" 
d="M538 553q-32 56 -88 88.5t-121 32.5q-201 0 -201 -324t201 -324q106 0 195 57v-34q-89 -57 -195 -57q-136 0 -205.5 98.5t-69.5 259.5t69.5 259.5t205.5 98.5q64 0 119.5 -31t89.5 -84v-40zM476 880l-109 -144h-76l-109 144h32l115 -108l115 108h32z" />
    <glyph glyph-name="ccaron" unicode="&#x10d;" horiz-adv-x="376" 
d="M354 372q-48 54 -122 54q-52 0 -84 -55.5t-32 -145.5t32 -145.5t84 -55.5q39 0 63.5 11.5t50.5 40.5v-32q-46 -52 -114 -52q-82 0 -132 64t-50 169t50 169t132 64q73 0 122 -54v-32zM364 700l-100 -195h-64l-100 195h32l100 -148l100 148h32z" />
    <glyph glyph-name="Dcaron" unicode="&#x10e;" horiz-adv-x="661" 
d="M607 350q0 -161 -73 -259.5t-211 -98.5q-82 0 -175 8h-58v700h58q93 8 175 8q138 0 211 -98.5t73 -259.5zM533 350q0 84 -22 155.5t-71 120t-117 48.5q-82 0 -173 -8v-632q91 -8 173 -8q68 0 117 48.5t71 120t22 155.5zM470 880l-109 -144h-76l-109 144h32l115 -108
l115 108h32z" />
    <glyph glyph-name="dcaron" unicode="&#x10f;" horiz-adv-x="459" 
d="M387 0h-58v40q-62 -48 -125 -48q-81 0 -117.5 63.5t-36.5 169.5q0 105 41.5 169t126.5 64q57 0 111 -23v265h58v-700zM329 403q-52 23 -106 23q-40 0 -65 -31.5t-33.5 -73.5t-8.5 -96q0 -45 4 -77.5t14.5 -62.5t32.5 -45.5t56 -15.5q53 0 106 48v331zM488 700
q0 -91 -58 -160l-21 16q21 68 21 144h58z" />
    <glyph glyph-name="Dcroat" unicode="&#x110;" horiz-adv-x="610" 
d="M556 350q0 -161 -73 -259.5t-211 -98.5q-82 0 -175 8h-58v333h-30v34h30v333h58q93 8 175 8q138 0 211 -98.5t73 -259.5zM482 350q0 84 -22 155.5t-71 120t-117 48.5q-82 0 -173 -8v-299h117v-34h-117v-299q91 -8 173 -8q68 0 117 48.5t71 120t22 155.5z" />
    <glyph glyph-name="dcroat" unicode="&#x111;" horiz-adv-x="459" 
d="M450 559h-63v-559h-58v40q-62 -48 -125 -48q-81 0 -117.5 63.5t-36.5 169.5q0 105 41.5 169t126.5 64q57 0 111 -23v124h-111v32h111v109h58v-109h63v-32zM329 403q-52 23 -106 23q-40 0 -65 -31.5t-33.5 -73.5t-8.5 -96q0 -45 4 -77.5t14.5 -62.5t32.5 -45.5t56 -15.5
q53 0 106 48v331z" />
    <glyph glyph-name="Emacron" unicode="&#x112;" horiz-adv-x="584" 
d="M530 0h-440v700h419v-34h-359v-299h292v-34h-292v-299h380v-34zM410 793h-220v32h220v-32z" />
    <glyph glyph-name="emacron" unicode="&#x113;" horiz-adv-x="432" 
d="M387 217h-271q0 -43 4 -74t14 -59.5t31.5 -43t53.5 -14.5q70 0 122 48v-32q-52 -50 -122 -50q-76 0 -122.5 64t-46.5 169t46.5 169t122.5 64t122 -64t46 -169v-8zM321 249q0 74 -25 125.5t-77 51.5q-53 0 -78 -51.5t-25 -125.5h205zM329 543h-220v32h220v-32z" />
    <glyph glyph-name="Ebreve" unicode="&#x114;" horiz-adv-x="584" 
d="M530 0h-440v700h419v-34h-359v-299h292v-34h-292v-299h380v-34zM432 887q0 -64 -37.5 -111t-94.5 -47t-94.5 47t-37.5 111h29q0 -48 29.5 -83.5t73.5 -35.5t73.5 35.5t29.5 83.5h29z" />
    <glyph glyph-name="ebreve" unicode="&#x115;" horiz-adv-x="432" 
d="M387 217h-271q0 -43 4 -74t14 -59.5t31.5 -43t53.5 -14.5q70 0 122 48v-32q-52 -50 -122 -50q-76 0 -122.5 64t-46.5 169t46.5 169t122.5 64t122 -64t46 -169v-8zM321 249q0 74 -25 125.5t-77 51.5q-53 0 -78 -51.5t-25 -125.5h205zM338 682q0 -64 -33 -111t-86 -47
t-86 47t-33 111h29q0 -48 25 -83.5t65 -35.5t65 35.5t25 83.5h29z" />
    <glyph glyph-name="Edotaccent" unicode="&#x116;" horiz-adv-x="584" 
d="M530 0h-440v700h419v-34h-359v-299h292v-34h-292v-299h380v-34zM337 808q0 -15 -11 -26t-26 -11t-26 11t-11 26t11 26t26 11t26 -11t11 -26z" />
    <glyph glyph-name="edotaccent" unicode="&#x117;" horiz-adv-x="432" 
d="M387 217h-271q0 -43 4 -74t14 -59.5t31.5 -43t53.5 -14.5q70 0 122 48v-32q-52 -50 -122 -50q-76 0 -122.5 64t-46.5 169t46.5 169t122.5 64t122 -64t46 -169v-8zM321 249q0 74 -25 125.5t-77 51.5q-53 0 -78 -51.5t-25 -125.5h205zM256 603q0 -15 -11 -26t-26 -11
t-26 11t-11 26t11 26t26 11t26 -11t11 -26z" />
    <glyph glyph-name="Eogonek" unicode="&#x118;" horiz-adv-x="584" 
d="M530 0h-22q-22 0 -40 -15.5t-27 -39.5q-12 -30 -12 -63t11 -56.5t34 -23.5q22 0 45 10v-21q-30 -21 -69 -21q-31 0 -50 27.5t-19 64.5q0 84 65 138h-356v700h419v-34h-359v-299h292v-34h-292v-299h380v-34z" />
    <glyph glyph-name="eogonek" unicode="&#x119;" horiz-adv-x="432" 
d="M387 217h-271q0 -43 4 -74t14 -59.5t31.5 -43t53.5 -14.5q70 0 122 48v-32q-16 -15 -27 -22q-55 -36 -70 -75q-11 -31 -11 -63q0 -80 45 -80q22 0 45 10v-21q-31 -21 -69 -21q-32 0 -50.5 27.5t-18.5 64.5q0 80 57 132q-16 -2 -23 -2q-76 0 -122.5 64t-46.5 169t46.5 169
t122.5 64t122 -64t46 -169v-8zM321 249q0 74 -25 125.5t-77 51.5q-53 0 -78 -51.5t-25 -125.5h205z" />
    <glyph glyph-name="Ecaron" unicode="&#x11a;" horiz-adv-x="584" 
d="M530 0h-440v700h419v-34h-359v-299h292v-34h-292v-299h380v-34zM447 880l-109 -144h-76l-109 144h32l115 -108l115 108h32z" />
    <glyph glyph-name="ecaron" unicode="&#x11b;" horiz-adv-x="432" 
d="M387 217h-271q0 -43 4 -74t14 -59.5t31.5 -43t53.5 -14.5q70 0 122 48v-32q-52 -50 -122 -50q-76 0 -122.5 64t-46.5 169t46.5 169t122.5 64t122 -64t46 -169v-8zM321 249q0 74 -25 125.5t-77 51.5q-53 0 -78 -51.5t-25 -125.5h205zM351 700l-100 -195h-64l-100 195h32
l100 -148l100 148h32z" />
    <glyph glyph-name="Gcircumflex" unicode="&#x11c;" horiz-adv-x="643" 
d="M571 0h-60v48q-78 -56 -173 -56q-138 0 -211 98.5t-73 259.5t73 259.5t211 98.5q131 0 219 -96v-34q-88 96 -219 96q-111 0 -160.5 -88.5t-49.5 -235.5t49.5 -235.5t160.5 -88.5q95 0 173 56v212h60v-294zM485 736h-32l-115 108l-115 -108h-32l109 144h76z" />
    <glyph glyph-name="gcircumflex" unicode="&#x11d;" horiz-adv-x="459" 
d="M387 -58q0 -73 -36 -126.5t-96 -53.5q-81 0 -161 37v22q70 -25 141 -25q45 0 69.5 43t24.5 103v98q-62 -48 -125 -48q-81 0 -117.5 63.5t-36.5 169.5q0 105 41.5 169t126.5 64q57 0 111 -23v15h58v-508zM329 403q-52 23 -106 23q-40 0 -65 -31.5t-33.5 -73.5t-8.5 -96
q0 -45 4 -77.5t14.5 -62.5t32.5 -45.5t56 -15.5q53 0 106 48v331zM351 505h-32l-100 148l-100 -148h-32l100 195h64z" />
    <glyph glyph-name="Gbreve" unicode="&#x11e;" horiz-adv-x="643" 
d="M571 0h-60v48q-78 -56 -173 -56q-138 0 -211 98.5t-73 259.5t73 259.5t211 98.5q131 0 219 -96v-34q-88 96 -219 96q-111 0 -160.5 -88.5t-49.5 -235.5t49.5 -235.5t160.5 -88.5q95 0 173 56v212h60v-294zM470 887q0 -64 -37.5 -111t-94.5 -47t-94.5 47t-37.5 111h29
q0 -48 29.5 -83.5t73.5 -35.5t73.5 35.5t29.5 83.5h29z" />
    <glyph glyph-name="gbreve" unicode="&#x11f;" horiz-adv-x="459" 
d="M387 -58q0 -73 -36 -126.5t-96 -53.5q-81 0 -161 37v22q70 -25 141 -25q45 0 69.5 43t24.5 103v98q-62 -48 -125 -48q-81 0 -117.5 63.5t-36.5 169.5q0 105 41.5 169t126.5 64q57 0 111 -23v15h58v-508zM329 403q-52 23 -106 23q-40 0 -65 -31.5t-33.5 -73.5t-8.5 -96
q0 -45 4 -77.5t14.5 -62.5t32.5 -45.5t56 -15.5q53 0 106 48v331zM338 682q0 -64 -33 -111t-86 -47t-86 47t-33 111h29q0 -48 25 -83.5t65 -35.5t65 35.5t25 83.5h29z" />
    <glyph glyph-name="Gdotaccent" unicode="&#x120;" horiz-adv-x="643" 
d="M571 0h-60v48q-78 -56 -173 -56q-138 0 -211 98.5t-73 259.5t73 259.5t211 98.5q131 0 219 -96v-34q-88 96 -219 96q-111 0 -160.5 -88.5t-49.5 -235.5t49.5 -235.5t160.5 -88.5q95 0 173 56v212h60v-294zM375 808q0 -15 -11 -26t-26 -11t-26 11t-11 26t11 26t26 11
t26 -11t11 -26z" />
    <glyph glyph-name="gdotaccent" unicode="&#x121;" horiz-adv-x="459" 
d="M387 -58q0 -73 -36 -126.5t-96 -53.5q-81 0 -161 37v22q70 -25 141 -25q45 0 69.5 43t24.5 103v98q-62 -48 -125 -48q-81 0 -117.5 63.5t-36.5 169.5q0 105 41.5 169t126.5 64q57 0 111 -23v15h58v-508zM329 403q-52 23 -106 23q-40 0 -65 -31.5t-33.5 -73.5t-8.5 -96
q0 -45 4 -77.5t14.5 -62.5t32.5 -45.5t56 -15.5q53 0 106 48v331zM256 603q0 -15 -11 -26t-26 -11t-26 11t-11 26t11 26t26 11t26 -11t11 -26z" />
    <glyph glyph-name="Gcommaaccent" unicode="&#x122;" horiz-adv-x="643" 
d="M571 0h-60v48q-78 -56 -173 -56q-138 0 -211 98.5t-73 259.5t73 259.5t211 98.5q131 0 219 -96v-34q-88 96 -219 96q-111 0 -160.5 -88.5t-49.5 -235.5t49.5 -235.5t160.5 -88.5q95 0 173 56v212h60v-294zM367 -24q0 -89 -58 -160l-21 16q21 72 21 144h58z" />
    <glyph glyph-name="gcommaaccent" unicode="&#x123;" horiz-adv-x="459" 
d="M387 -58q0 -73 -36 -126.5t-96 -53.5q-81 0 -161 37v22q70 -25 141 -25q45 0 69.5 43t24.5 103v98q-62 -48 -125 -48q-81 0 -117.5 63.5t-36.5 169.5q0 105 41.5 169t126.5 64q57 0 111 -23v15h58v-508zM329 403q-52 23 -106 23q-40 0 -65 -31.5t-33.5 -73.5t-8.5 -96
q0 -45 4 -77.5t14.5 -62.5t32.5 -45.5t56 -15.5q53 0 106 48v331zM319 644q-21 -68 -21 -144h-58q0 91 58 160z" />
    <glyph glyph-name="Hcircumflex" unicode="&#x124;" horiz-adv-x="664" 
d="M574 0h-60v333h-364v-333h-60v700h60v-333h364v333h60v-700zM479 736h-32l-115 108l-115 -108h-32l109 144h76z" />
    <glyph glyph-name="hcircumflex" unicode="&#x125;" horiz-adv-x="455" 
d="M387 0h-58v323q0 41 -22.5 71t-57.5 30q-59 0 -119 -53v-371h-58v700h58v-306q71 64 141 64q50 0 83 -40t33 -95v-323zM362 755h-32l-100 148l-100 -148h-32l100 195h64z" />
    <glyph glyph-name="Hbar" unicode="&#x126;" horiz-adv-x="664" 
d="M655 509h-81v-509h-60v333h-364v-333h-60v509h-81v32h81v159h60v-159h364v159h60v-159h81v-32zM514 367v142h-364v-142h364z" />
    <glyph glyph-name="hbar" unicode="&#x127;" horiz-adv-x="459" 
d="M387 0h-58v323q0 41 -22.5 71t-57.5 30q-59 0 -119 -53v-371h-58v559h-63v32h63v109h58v-109h99v-32h-99v-165q71 64 141 64q50 0 83 -40t33 -95v-323z" />
    <glyph glyph-name="Itilde" unicode="&#x128;" horiz-adv-x="240" 
d="M150 0h-60v700h60v-700zM259 837q-64 -78 -95 -78q-18 0 -45.5 22.5t-45.5 22.5q-29 0 -68 -45l-24 20q64 78 95 78q18 0 45.5 -22.5t45.5 -22.5q29 0 68 45z" />
    <glyph glyph-name="itilde" unicode="&#x129;" horiz-adv-x="251" 
d="M233 31q-46 -39 -91 -39q-39 0 -56.5 39t-17.5 96v323h58v-323q0 -22 1 -36.5t5 -31t13 -25t24 -8.5q33 0 64 28v-23zM222 629q-60 -72 -87 -72q-15 0 -39 19.5t-40 19.5q-26 0 -59 -39l-25 20q60 72 87 72q15 0 39 -19.5t40 -19.5q26 0 59 39z" />
    <glyph glyph-name="Imacron" unicode="&#x12a;" horiz-adv-x="240" 
d="M150 0h-60v700h60v-700zM230 793h-220v32h220v-32z" />
    <glyph glyph-name="imacron" unicode="&#x12b;" horiz-adv-x="251" 
d="M233 31q-46 -39 -91 -39q-39 0 -56.5 39t-17.5 96v323h58v-323q0 -22 1 -36.5t5 -31t13 -25t24 -8.5q33 0 64 28v-23zM207 543h-220v32h220v-32z" />
    <glyph glyph-name="Ibreve" unicode="&#x12c;" horiz-adv-x="240" 
d="M150 0h-60v700h60v-700zM252 887q0 -64 -37.5 -111t-94.5 -47t-94.5 47t-37.5 111h29q0 -48 29.5 -83.5t73.5 -35.5t73.5 35.5t29.5 83.5h29z" />
    <glyph glyph-name="ibreve" unicode="&#x12d;" horiz-adv-x="251" 
d="M233 31q-46 -39 -91 -39q-39 0 -56.5 39t-17.5 96v323h58v-323q0 -22 1 -36.5t5 -31t13 -25t24 -8.5q33 0 64 28v-23zM216 682q0 -64 -33 -111t-86 -47t-86 47t-33 111h29q0 -48 25 -83.5t65 -35.5t65 35.5t25 83.5h29z" />
    <glyph glyph-name="Iogonek" unicode="&#x12e;" horiz-adv-x="240" 
d="M179 -209q-31 -21 -69 -21q-31 0 -50 27.5t-19 64.5q0 85 64 138h-15v700h60v-700h-18q-43 -51 -43 -118q0 -80 45 -80q22 0 45 10v-21z" />
    <glyph glyph-name="iogonek" unicode="&#x12f;" horiz-adv-x="251" 
d="M233 31q-18 -14 -27 -20q-58 -35 -70 -66q-11 -31 -11 -63q0 -80 44 -80q22 0 45 10v-21q-30 -21 -69 -21q-31 0 -50 27.5t-19 64.5q0 77 57 131q-34 5 -49.5 43t-15.5 91v323h58v-323q0 -22 1 -36.5t5 -31t13 -25t24 -8.5q33 0 64 28v-23zM134 603q0 -15 -11 -26
t-26 -11t-26 11t-11 26t11 26t26 11t26 -11t11 -26z" />
    <glyph glyph-name="Idotaccent" unicode="&#x130;" horiz-adv-x="240" 
d="M150 0h-60v700h60v-700zM157 808q0 -15 -11 -26t-26 -11t-26 11t-11 26t11 26t26 11t26 -11t11 -26z" />
    <glyph glyph-name="dotlessi" unicode="&#x131;" horiz-adv-x="251" 
d="M233 31q-46 -39 -91 -39q-39 0 -56.5 39t-17.5 96v323h58v-323q0 -22 1 -36.5t5 -31t13 -25t24 -8.5q33 0 64 28v-23z" />
    <glyph glyph-name="I_J" unicode="&#x132;" horiz-adv-x="528" 
d="M150 0h-60v700h60v-700zM438 57q0 -55 -23.5 -95t-65.5 -40q-61 0 -109 39v23q15 -11 39.5 -19.5t43.5 -8.5q29 0 42 29.5t13 71.5v643h60v-643z" />
    <glyph glyph-name="i_j" unicode="&#x133;" horiz-adv-x="457" 
d="M237 31q-46 -39 -91 -39q-39 0 -56.5 39t-17.5 96v323h58v-323q0 -22 1 -36.5t5 -31t13 -25t24 -8.5q33 0 64 28v-23zM138 603q0 -15 -11 -26t-26 -11t-26 11t-11 26t11 26t26 11t26 -11t11 -26zM385 -103q0 -135 -69 -135q-42 0 -84 37v22q29 -25 57 -25q14 0 22 8
t11.5 26t4 30.5t0.5 36.5v553h58v-553zM393 603q0 -15 -11 -26t-26 -11t-26 11t-11 26t11 26t26 11t26 -11t11 -26z" />
    <glyph glyph-name="Jcircumflex" unicode="&#x134;" horiz-adv-x="297" 
d="M207 57q0 -55 -23.5 -95t-65.5 -40q-61 0 -109 39v23q15 -11 39.5 -19.5t43.5 -8.5q29 0 42 29.5t13 71.5v643h60v-643zM324 736h-32l-115 108l-115 -108h-32l109 144h76z" />
    <glyph glyph-name="jcircumflex" unicode="&#x135;" horiz-adv-x="202" 
d="M130 -103q0 -135 -69 -135q-42 0 -84 37v22q29 -25 57 -25q14 0 22 8t11.5 26t4 30.5t0.5 36.5v553h58v-553zM233 505h-32l-100 148l-100 -148h-32l100 195h64z" />
    <glyph glyph-name="Kcommaaccent" unicode="&#x136;" horiz-adv-x="616" 
d="M607 0h-88l-369 344v-344h-60v700h60v-294l384 294h56l-403 -308zM369 -24q0 -89 -58 -160l-21 16q21 72 21 144h58z" />
    <glyph glyph-name="kcommaaccent" unicode="&#x137;" horiz-adv-x="418" 
d="M409 0h-68l-211 249v-249h-58v700h58v-446l228 196h44l-216 -186zM270 -24q0 -89 -58 -160l-21 16q21 72 21 144h58z" />
    <glyph glyph-name="Lacute" unicode="&#x139;" horiz-adv-x="460" 
d="M442 0h-352v700h60v-666h292v-34zM260 880q-56 -84 -140 -144h-32q62 60 106 144h66z" />
    <glyph glyph-name="lacute" unicode="&#x13a;" horiz-adv-x="255" 
d="M237 31q-46 -39 -91 -39q-39 0 -56.5 39t-17.5 96v573h58v-573q0 -22 1 -36.5t5 -31t13 -25t24 -8.5q33 0 64 28v-23zM201 950q0 -95 -100 -195h-32q66 86 66 195h66z" />
    <glyph glyph-name="Lcommaaccent" unicode="&#x13b;" horiz-adv-x="460" 
d="M442 0h-352v700h60v-666h292v-34zM302 -24q0 -89 -58 -160l-21 16q21 72 21 144h58z" />
    <glyph glyph-name="lcommaaccent" unicode="&#x13c;" horiz-adv-x="255" 
d="M237 31q-46 -39 -91 -39q-39 0 -56.5 39t-17.5 96v573h58v-573q0 -22 1 -36.5t5 -31t13 -25t24 -8.5q33 0 64 28v-23zM162 -24q0 -89 -58 -160l-21 16q21 72 21 144h58z" />
    <glyph glyph-name="Lcaron" unicode="&#x13d;" horiz-adv-x="460" 
d="M442 0h-352v700h60v-666h292v-34zM307 700q0 -95 -100 -195h-32q66 86 66 195h66z" />
    <glyph glyph-name="lcaron" unicode="&#x13e;" horiz-adv-x="255" 
d="M237 31q-46 -39 -91 -39q-39 0 -56.5 39t-17.5 96v573h58v-573q0 -22 1 -36.5t5 -31t13 -25t24 -8.5q33 0 64 28v-23zM231 700q0 -91 -58 -160l-21 16q21 68 21 144h58z" />
    <glyph glyph-name="Ldot" unicode="&#x13f;" horiz-adv-x="460" 
d="M352 0h-352v700h60v-666h292v-34zM297 358q0 -15 -11 -26t-26 -11t-26 11t-11 26t11 26t26 11t26 -11t11 -26z" />
    <glyph glyph-name="ldot" unicode="&#x140;" horiz-adv-x="255" 
d="M165 31q-46 -39 -91 -39q-39 0 -56.5 39t-17.5 96v573h58v-573q0 -22 1 -36.5t5 -31t13 -25t24 -8.5q33 0 64 28v-23zM194 358q0 -15 -11 -26t-26 -11t-26 11t-11 26t11 26t26 11t26 -11t11 -26z" />
    <glyph glyph-name="Lslash" unicode="&#x141;" horiz-adv-x="425" 
d="M407 0h-352v252l-37 -39v50l37 39v398h60v-343l190 203v-50l-190 -203v-273h292v-34z" />
    <glyph glyph-name="lslash" unicode="&#x142;" horiz-adv-x="300" 
d="M282 31q-46 -39 -91 -39q-39 0 -56.5 39t-17.5 96v264l-99 -56v33l99 57v275h58v-250l107 61v-33l-107 -61v-290q0 -22 1 -36.5t5 -31t13 -25t24 -8.5q32 0 64 28v-23z" />
    <glyph glyph-name="Nacute" unicode="&#x143;" horiz-adv-x="697" 
d="M607 0h-40l-443 607v-607h-34v700h40l443 -607v607h34v-700zM489 880q-56 -84 -140 -144h-32q62 60 106 144h66z" />
    <glyph glyph-name="nacute" unicode="&#x144;" horiz-adv-x="455" 
d="M387 0h-58v323q0 41 -22.5 71t-57.5 30q-59 0 -119 -53v-371h-58v450h58v-56q71 64 141 64q50 0 83 -40t33 -95v-323zM330 700q0 -95 -100 -195h-32q66 86 66 195h66z" />
    <glyph glyph-name="Ncommaaccent" unicode="&#x145;" horiz-adv-x="697" 
d="M607 0h-40l-443 607v-607h-34v700h40l443 -607v607h34v-700zM378 -24q0 -89 -58 -160l-21 16q21 72 21 144h58z" />
    <glyph glyph-name="ncommaaccent" unicode="&#x146;" horiz-adv-x="455" 
d="M387 0h-58v323q0 41 -22.5 71t-57.5 30q-59 0 -119 -53v-371h-58v450h58v-56q71 64 141 64q50 0 83 -40t33 -95v-323zM259 -24q0 -89 -58 -160l-21 16q21 72 21 144h58z" />
    <glyph glyph-name="Ncaron" unicode="&#x147;" horiz-adv-x="697" 
d="M607 0h-40l-443 607v-607h-34v700h40l443 -607v607h34v-700zM496 880l-109 -144h-76l-109 144h32l115 -108l115 108h32z" />
    <glyph glyph-name="ncaron" unicode="&#x148;" horiz-adv-x="455" 
d="M387 0h-58v323q0 41 -22.5 71t-57.5 30q-59 0 -119 -53v-371h-58v450h58v-56q71 64 141 64q50 0 83 -40t33 -95v-323zM362 700l-100 -195h-64l-100 195h32l100 -148l100 148h32z" />
    <glyph glyph-name="Eng" unicode="&#x14a;" horiz-adv-x="697" 
d="M607 349q0 -51 -1.5 -87.5t-6 -83t-15.5 -78t-27.5 -60t-43.5 -43t-63 -14.5q-71 0 -135 32l15 30q58 -28 120 -28q23 0 40.5 13t28 41.5t16.5 54.5t8.5 72t3 73t0.5 78q0 63 -11.5 120.5t-34 105.5t-62 76.5t-90.5 28.5q-64 0 -118 -33.5t-81 -90.5v-556h-60v700h60v-81
q36 45 88 70t111 25q80 0 140 -53.5t89 -135t29 -176.5z" />
    <glyph glyph-name="eng" unicode="&#x14b;" horiz-adv-x="455" 
d="M387 -26q0 -55 -31 -95t-79 -40q-68 0 -135 65v22q57 -53 112 -53q34 0 54.5 30t20.5 71v349q0 41 -22.5 71t-57.5 30q-59 0 -119 -53v-371h-58v450h58v-56q71 64 141 64q50 0 83 -40t33 -95v-349z" />
    <glyph glyph-name="Omacron" unicode="&#x14c;" horiz-adv-x="658" 
d="M604 350q0 -161 -69.5 -259.5t-205.5 -98.5t-205.5 98.5t-69.5 259.5t69.5 259.5t205.5 98.5t205.5 -98.5t69.5 -259.5zM530 350q0 324 -201 324t-201 -324t201 -324t201 324zM439 793h-220v32h220v-32z" />
    <glyph glyph-name="omacron" unicode="&#x14d;" horiz-adv-x="436" 
d="M387 225q0 -113 -43 -173t-125 -60t-125.5 60t-43.5 173t43.5 173t125.5 60t125 -60t43 -173zM321 225q0 98 -26 149.5t-76 51.5q-103 0 -103 -201t103 -201q50 0 76 51.5t26 149.5zM329 543h-220v32h220v-32z" />
    <glyph glyph-name="Obreve" unicode="&#x14e;" horiz-adv-x="658" 
d="M604 350q0 -161 -69.5 -259.5t-205.5 -98.5t-205.5 98.5t-69.5 259.5t69.5 259.5t205.5 98.5t205.5 -98.5t69.5 -259.5zM530 350q0 324 -201 324t-201 -324t201 -324t201 324zM461 887q0 -64 -37.5 -111t-94.5 -47t-94.5 47t-37.5 111h29q0 -48 29.5 -83.5t73.5 -35.5
t73.5 35.5t29.5 83.5h29z" />
    <glyph glyph-name="obreve" unicode="&#x14f;" horiz-adv-x="436" 
d="M387 225q0 -113 -43 -173t-125 -60t-125.5 60t-43.5 173t43.5 173t125.5 60t125 -60t43 -173zM321 225q0 98 -26 149.5t-76 51.5q-103 0 -103 -201t103 -201q50 0 76 51.5t26 149.5zM338 682q0 -64 -33 -111t-86 -47t-86 47t-33 111h29q0 -48 25 -83.5t65 -35.5t65 35.5
t25 83.5h29z" />
    <glyph glyph-name="Ohungarumlaut" unicode="&#x150;" horiz-adv-x="658" 
d="M604 350q0 -161 -69.5 -259.5t-205.5 -98.5t-205.5 98.5t-69.5 259.5t69.5 259.5t205.5 98.5t205.5 -98.5t69.5 -259.5zM530 350q0 324 -201 324t-201 -324t201 -324t201 324zM416 880q-56 -85 -139 -144h-32q65 64 105 144h66zM521 880q-56 -84 -140 -144h-32
q65 63 106 144h66z" />
    <glyph glyph-name="ohungarumlaut" unicode="&#x151;" horiz-adv-x="436" 
d="M387 225q0 -113 -43 -173t-125 -60t-125.5 60t-43.5 173t43.5 173t125.5 60t125 -60t43 -173zM321 225q0 98 -26 149.5t-76 51.5q-103 0 -103 -201t103 -201q50 0 76 51.5t26 149.5zM267 700q0 -95 -100 -195h-32q66 86 66 195h66zM371 700q0 -95 -100 -195h-32
q66 86 66 195h66z" />
    <glyph glyph-name="OE" unicode="&#x152;" horiz-adv-x="965" 
d="M911 0h-440q-23 0 -71 -4t-71 -4q-136 0 -205.5 98.5t-69.5 259.5t69.5 259.5t205.5 98.5q23 0 71 -4t71 -4h419v-34h-359v-299h292v-34h-292v-299h380v-34zM471 606q-49 68 -142 68q-201 0 -201 -324t201 -324q93 0 142 68v512z" />
    <glyph glyph-name="oe" unicode="&#x153;" horiz-adv-x="704" 
d="M659 217h-271q0 -43 4 -74t14 -59.5t31.5 -43t53.5 -14.5q70 0 122 48v-32q-52 -50 -122 -50q-86 0 -134 81q-43 -81 -138 -81q-82 0 -125.5 60t-43.5 173t43.5 173t125.5 60q95 0 138 -81q48 81 134 81q76 0 122 -64t46 -169v-8zM321 225q0 98 -26 149.5t-76 51.5
q-103 0 -103 -201t103 -201q50 0 76 51.5t26 149.5zM593 249q0 74 -25 125.5t-77 51.5q-53 0 -78 -51.5t-25 -125.5h205z" />
    <glyph glyph-name="Racute" unicode="&#x154;" horiz-adv-x="573" 
d="M564 0h-70l-193 319q-78 0 -160 14v-333h-60v700h58q86 8 162 8q109 0 175.5 -50t66.5 -144q0 -79 -47 -127t-128 -62zM469 514q0 67 -49.5 113.5t-118.5 46.5q-75 0 -160 -8v-299q82 -14 160 -14q69 0 118.5 47t49.5 114zM463 880q-56 -84 -140 -144h-32q62 60 106 144
h66z" />
    <glyph glyph-name="racute" unicode="&#x155;" horiz-adv-x="306" 
d="M288 404q-24 7 -53 7q-53 0 -105 -56v-355h-58v450h58v-63q62 68 126 68q20 0 32 -5v-46zM264 700q0 -95 -100 -195h-32q66 86 66 195h66z" />
    <glyph glyph-name="Rcommaaccent" unicode="&#x156;" horiz-adv-x="573" 
d="M564 0h-70l-193 319q-78 0 -160 14v-333h-60v700h58q86 8 162 8q109 0 175.5 -50t66.5 -144q0 -79 -47 -127t-128 -62zM469 514q0 67 -49.5 113.5t-118.5 46.5q-75 0 -160 -8v-299q82 -14 160 -14q69 0 118.5 47t49.5 114zM352 -24q0 -89 -58 -160l-21 16q21 72 21 144
h58z" />
    <glyph glyph-name="rcommaaccent" unicode="&#x157;" horiz-adv-x="306" 
d="M288 404q-24 7 -53 7q-53 0 -105 -56v-355h-58v450h58v-63q62 68 126 68q20 0 32 -5v-46zM193 -24q0 -89 -58 -160l-21 16q21 72 21 144h58z" />
    <glyph glyph-name="Rcaron" unicode="&#x158;" horiz-adv-x="573" 
d="M564 0h-70l-193 319q-78 0 -160 14v-333h-60v700h58q86 8 162 8q109 0 175.5 -50t66.5 -144q0 -79 -47 -127t-128 -62zM469 514q0 67 -49.5 113.5t-118.5 46.5q-75 0 -160 -8v-299q82 -14 160 -14q69 0 118.5 47t49.5 114zM470 880l-109 -144h-76l-109 144h32l115 -108
l115 108h32z" />
    <glyph glyph-name="rcaron" unicode="&#x159;" horiz-adv-x="306" 
d="M288 404q-24 7 -53 7q-53 0 -105 -56v-355h-58v450h58v-63q62 68 126 68q20 0 32 -5v-46zM296 700l-100 -195h-64l-100 195h32l100 -148l100 148h32z" />
    <glyph glyph-name="Sacute" unicode="&#x15a;" horiz-adv-x="571" 
d="M517 198q0 -90 -68.5 -151t-163.5 -61q-123 0 -231 73v29q101 -68 231 -68q71 0 122.5 47.5t51.5 115.5q0 105 -185 160q-212 63 -212 187q0 80 66.5 132t156.5 52q111 0 203 -73v-29q-88 68 -203 68q-67 0 -116 -38t-49 -97q0 -23 11.5 -42.5t25.5 -31t43 -24.5t45 -18
l51 -16q95 -28 158 -82.5t63 -132.5zM425 880q-56 -84 -140 -144h-32q62 60 106 144h66z" />
    <glyph glyph-name="sacute" unicode="&#x15b;" horiz-adv-x="376" 
d="M336 124q0 -57 -45 -94.5t-107 -37.5q-82 0 -152 41v32q70 -41 152 -41q39 0 67.5 24.5t28.5 60.5q0 66 -104 100q-63 22 -100.5 49t-37.5 72q0 55 43 91.5t103 36.5q73 0 131 -41v-32q-58 41 -131 41q-37 0 -63.5 -23t-26.5 -57q0 -54 98 -87q144 -49 144 -135zM284 700
q0 -95 -100 -195h-32q66 86 66 195h66z" />
    <glyph glyph-name="Scircumflex" unicode="&#x15c;" horiz-adv-x="571" 
d="M517 198q0 -90 -68.5 -151t-163.5 -61q-123 0 -231 73v29q101 -68 231 -68q71 0 122.5 47.5t51.5 115.5q0 105 -185 160q-212 63 -212 187q0 80 66.5 132t156.5 52q111 0 203 -73v-29q-88 68 -203 68q-67 0 -116 -38t-49 -97q0 -23 11.5 -42.5t25.5 -31t43 -24.5t45 -18
l51 -16q95 -28 158 -82.5t63 -132.5zM432 736h-32l-115 108l-115 -108h-32l109 144h76z" />
    <glyph glyph-name="scircumflex" unicode="&#x15d;" horiz-adv-x="376" 
d="M336 124q0 -57 -45 -94.5t-107 -37.5q-82 0 -152 41v32q70 -41 152 -41q39 0 67.5 24.5t28.5 60.5q0 66 -104 100q-63 22 -100.5 49t-37.5 72q0 55 43 91.5t103 36.5q73 0 131 -41v-32q-58 41 -131 41q-37 0 -63.5 -23t-26.5 -57q0 -54 98 -87q144 -49 144 -135zM316 505
h-32l-100 148l-100 -148h-32l100 195h64z" />
    <glyph glyph-name="Scedilla" unicode="&#x15e;" horiz-adv-x="571" 
d="M517 198q0 -84 -61.5 -144t-149.5 -67q50 -52 50 -125q0 -37 -19 -64.5t-50 -27.5q-37 0 -69 21v21q23 -10 45 -10q45 0 45 80q0 57 -33 104q-116 3 -221 73v29q101 -68 231 -68q71 0 122.5 47.5t51.5 115.5q0 105 -185 160q-212 63 -212 187q0 80 66.5 132t156.5 52
q111 0 203 -73v-29q-88 68 -203 68q-67 0 -116 -38t-49 -97q0 -23 11.5 -42.5t25.5 -31t43 -24.5t45 -18l51 -16q95 -28 158 -82.5t63 -132.5z" />
    <glyph glyph-name="scedilla" unicode="&#x15f;" horiz-adv-x="376" 
d="M336 124q0 -50 -36 -86t-89 -44q58 -53 58 -132q0 -37 -19 -64.5t-50 -27.5q-39 0 -69 21v21q23 -10 45 -10q23 0 34 23.5t11 56.5q0 61 -37 110q-82 0 -152 41v32q70 -41 152 -41q39 0 67.5 24.5t28.5 60.5q0 66 -104 100q-63 22 -100.5 49t-37.5 72q0 55 43 91.5
t103 36.5q73 0 131 -41v-32q-58 41 -131 41q-37 0 -63.5 -23t-26.5 -57q0 -54 98 -87q144 -49 144 -135z" />
    <glyph glyph-name="Scaron" unicode="&#x160;" horiz-adv-x="571" 
d="M517 198q0 -90 -68.5 -151t-163.5 -61q-123 0 -231 73v29q101 -68 231 -68q71 0 122.5 47.5t51.5 115.5q0 105 -185 160q-212 63 -212 187q0 80 66.5 132t156.5 52q111 0 203 -73v-29q-88 68 -203 68q-67 0 -116 -38t-49 -97q0 -23 11.5 -42.5t25.5 -31t43 -24.5t45 -18
l51 -16q95 -28 158 -82.5t63 -132.5zM432 880l-109 -144h-76l-109 144h32l115 -108l115 108h32z" />
    <glyph glyph-name="scaron" unicode="&#x161;" horiz-adv-x="376" 
d="M336 124q0 -57 -45 -94.5t-107 -37.5q-82 0 -152 41v32q70 -41 152 -41q39 0 67.5 24.5t28.5 60.5q0 66 -104 100q-63 22 -100.5 49t-37.5 72q0 55 43 91.5t103 36.5q73 0 131 -41v-32q-58 41 -131 41q-37 0 -63.5 -23t-26.5 -57q0 -54 98 -87q144 -49 144 -135zM316 700
l-100 -195h-64l-100 195h32l100 -148l100 148h32z" />
    <glyph glyph-name="Tcedilla" unicode="&#x162;" horiz-adv-x="520" 
d="M502 666h-212v-666h-15q64 -53 64 -138q0 -37 -19 -64.5t-50 -27.5q-38 0 -69 21v21q23 -10 45 -10q45 0 45 80q0 67 -43 118h-18v666h-212v34h484v-34z" />
    <glyph glyph-name="tcedilla" unicode="&#x163;" horiz-adv-x="270" 
d="M216 31q-31 -29 -62 -36q59 -54 59 -133q0 -37 -19 -64.5t-50 -27.5q-39 0 -69 21v21q23 -10 45 -10q44 0 44 80q0 62 -37 110q-61 6 -61 135v291h-66v28q45 0 67 45t22 109h35v-150h92v-32h-92v-291q0 -24 0.5 -36.5t4 -30t11.5 -26t21 -8.5q27 0 55 28v-23z" />
    <glyph glyph-name="Tcaron" unicode="&#x164;" horiz-adv-x="520" 
d="M502 666h-212v-666h-60v666h-212v34h484v-34zM407 880l-109 -144h-76l-109 144h32l115 -108l115 108h32z" />
    <glyph glyph-name="tcaron" unicode="&#x165;" horiz-adv-x="270" 
d="M243 31q-41 -39 -83 -39q-67 0 -67 135v291h-66v28q45 0 67 45t22 109h35v-150h92v-32h-92v-291q0 -24 0.5 -36.5t4 -30t11.5 -26t21 -8.5q27 0 55 28v-23zM252 700q0 -91 -58 -160l-21 16q21 68 21 144h58z" />
    <glyph glyph-name="Utilde" unicode="&#x168;" horiz-adv-x="624" 
d="M543 196q0 -89 -68.5 -149.5t-162.5 -60.5t-162.5 60.5t-68.5 149.5v504h60v-490q0 -78 53.5 -134t130.5 -56t130.5 56t53.5 134v490h34v-504zM451 837q-64 -78 -95 -78q-18 0 -45.5 22.5t-45.5 22.5q-29 0 -68 -45l-24 20q64 78 95 78q18 0 45.5 -22.5t45.5 -22.5
q29 0 68 45z" />
    <glyph glyph-name="utilde" unicode="&#x169;" horiz-adv-x="455" 
d="M383 0h-58v56q-71 -64 -141 -64q-50 0 -83 40t-33 95v323h58v-323q0 -41 22.5 -71t57.5 -30q59 0 119 53v371h58v-450zM351 629q-60 -72 -87 -72q-16 0 -40 19.5t-39 19.5q-26 0 -59 -39l-25 20q60 72 87 72q16 0 40 -19.5t39 -19.5q26 0 59 39z" />
    <glyph glyph-name="Umacron" unicode="&#x16a;" horiz-adv-x="624" 
d="M543 196q0 -89 -68.5 -149.5t-162.5 -60.5t-162.5 60.5t-68.5 149.5v504h60v-490q0 -78 53.5 -134t130.5 -56t130.5 56t53.5 134v490h34v-504zM422 793h-220v32h220v-32z" />
    <glyph glyph-name="umacron" unicode="&#x16b;" horiz-adv-x="455" 
d="M383 0h-58v56q-71 -64 -141 -64q-50 0 -83 40t-33 95v323h58v-323q0 -41 22.5 -71t57.5 -30q59 0 119 53v371h58v-450zM336 543h-220v32h220v-32z" />
    <glyph glyph-name="Ubreve" unicode="&#x16c;" horiz-adv-x="624" 
d="M543 196q0 -89 -68.5 -149.5t-162.5 -60.5t-162.5 60.5t-68.5 149.5v504h60v-490q0 -78 53.5 -134t130.5 -56t130.5 56t53.5 134v490h34v-504zM444 887q0 -64 -37.5 -111t-94.5 -47t-94.5 47t-37.5 111h29q0 -48 29.5 -83.5t73.5 -35.5t73.5 35.5t29.5 83.5h29z" />
    <glyph glyph-name="ubreve" unicode="&#x16d;" horiz-adv-x="455" 
d="M383 0h-58v56q-71 -64 -141 -64q-50 0 -83 40t-33 95v323h58v-323q0 -41 22.5 -71t57.5 -30q59 0 119 53v371h58v-450zM345 682q0 -64 -33 -111t-86 -47t-86 47t-33 111h29q0 -48 25 -83.5t65 -35.5t65 35.5t25 83.5h29z" />
    <glyph glyph-name="Uring" unicode="&#x16e;" horiz-adv-x="624" 
d="M543 196q0 -89 -68.5 -149.5t-162.5 -60.5t-162.5 60.5t-68.5 149.5v504h60v-490q0 -78 53.5 -134t130.5 -56t130.5 56t53.5 134v490h34v-504zM389 808q0 -32 -22.5 -54.5t-54.5 -22.5t-54.5 22.5t-22.5 54.5t22.5 54.5t54.5 22.5t54.5 -22.5t22.5 -54.5zM368 808
q0 23 -16.5 39.5t-39.5 16.5t-39.5 -16.5t-16.5 -39.5t16.5 -39.5t39.5 -16.5t39.5 16.5t16.5 39.5z" />
    <glyph glyph-name="uring" unicode="&#x16f;" horiz-adv-x="455" 
d="M383 0h-58v56q-71 -64 -141 -64q-50 0 -83 40t-33 95v323h58v-323q0 -41 22.5 -71t57.5 -30q59 0 119 53v371h58v-450zM303 603q0 -32 -22.5 -54.5t-54.5 -22.5t-54.5 22.5t-22.5 54.5t22.5 54.5t54.5 22.5t54.5 -22.5t22.5 -54.5zM282 603q0 23 -16.5 39.5t-39.5 16.5
t-39.5 -16.5t-16.5 -39.5t16.5 -39.5t39.5 -16.5t39.5 16.5t16.5 39.5z" />
    <glyph glyph-name="Uhungarumlaut" unicode="&#x170;" horiz-adv-x="624" 
d="M543 196q0 -89 -68.5 -149.5t-162.5 -60.5t-162.5 60.5t-68.5 149.5v504h60v-490q0 -78 53.5 -134t130.5 -56t130.5 56t53.5 134v490h34v-504zM399 880q-56 -85 -139 -144h-32q64 64 105 144h66zM504 880q-56 -84 -140 -144h-32q65 63 106 144h66z" />
    <glyph glyph-name="uhungarumlaut" unicode="&#x171;" horiz-adv-x="455" 
d="M383 0h-58v56q-71 -64 -141 -64q-50 0 -83 40t-33 95v323h58v-323q0 -41 22.5 -71t57.5 -30q59 0 119 53v371h58v-450zM274 700q0 -95 -100 -195h-32q66 86 66 195h66zM378 700q0 -95 -100 -195h-32q66 86 66 195h66z" />
    <glyph glyph-name="Uogonek" unicode="&#x172;" horiz-adv-x="624" 
d="M543 196q0 -85 -63 -144.5t-153 -65.5q-33 -47 -33 -104q0 -33 11 -56.5t34 -23.5q22 0 45 10v-21q-30 -21 -69 -21q-31 0 -50 27.5t-19 64.5q0 72 50 124q-89 6 -152 65.5t-63 144.5v504h60v-490q0 -78 53.5 -134t130.5 -56t130.5 56t53.5 134v490h34v-504z" />
    <glyph glyph-name="uogonek" unicode="&#x173;" horiz-adv-x="455" 
d="M398 -209q-32 -21 -69 -21q-32 0 -50.5 27.5t-18.5 64.5q0 86 66 139l-1 55q-71 -64 -141 -64q-50 0 -83 40t-33 95v323h58v-323q0 -41 22.5 -71t57.5 -30q59 0 119 53v371h58v-450q-37 0 -53 -31q-22 -42 -22 -87q0 -80 45 -80q22 0 45 10v-21z" />
    <glyph glyph-name="Wcircumflex" unicode="&#x174;" horiz-adv-x="810" 
d="M801 700l-192 -700h-40l-160 586l-160 -586h-40l-191 700h62l163 -595l162 595h35l163 -595l162 595h36zM570 736h-32l-115 108l-115 -108h-32l109 144h76z" />
    <glyph glyph-name="wcircumflex" unicode="&#x175;" horiz-adv-x="606" 
d="M588 450l-134 -450h-46l-106 368l-109 -368h-46l-129 450h54l109 -379l112 379h40l109 -379l112 379h34zM435 505h-32l-100 148l-100 -148h-32l100 195h64z" />
    <glyph glyph-name="Ycircumflex" unicode="&#x176;" horiz-adv-x="511" 
d="M502 700l-212 -394v-306h-60v280l-212 420h67l180 -369l198 369h39zM407 736h-32l-115 108l-115 -108h-32l109 144h76z" />
    <glyph glyph-name="ycircumflex" unicode="&#x177;" horiz-adv-x="455" 
d="M383 -58q0 -73 -32.5 -126.5t-89.5 -53.5q-75 0 -149 37v22q62 -25 128 -25q43 0 64 42.5t21 103.5v114q-71 -64 -141 -64q-50 0 -83 40t-33 95v323h58v-323q0 -41 22.5 -71t57.5 -30q59 0 119 53v371h58v-508zM358 505h-32l-100 148l-100 -148h-32l100 195h64z" />
    <glyph glyph-name="Ydieresis" unicode="&#x178;" horiz-adv-x="511" 
d="M502 700l-212 -394v-306h-60v280l-212 420h67l180 -369l198 369h39zM205 808q0 -14 -10 -24t-24 -10t-23.5 10t-9.5 24t10 23.5t23 9.5q14 0 24 -9.5t10 -23.5zM381 808q0 -14 -10 -24t-24 -10t-23.5 10t-9.5 24t10 23.5t23 9.5q14 0 24 -9.5t10 -23.5z" />
    <glyph glyph-name="Zacute" unicode="&#x179;" horiz-adv-x="516" 
d="M489 0h-462v35l382 631h-368v34h434v-41l-379 -625h393v-34zM398 880q-56 -84 -140 -144h-32q62 60 106 144h66z" />
    <glyph glyph-name="zacute" unicode="&#x17a;" horiz-adv-x="369" 
d="M342 0h-315v33l253 385h-245v32h307v-33l-253 -385h253v-32zM285 700q0 -95 -100 -195h-32q66 86 66 195h66z" />
    <glyph glyph-name="Zdotaccent" unicode="&#x17b;" horiz-adv-x="516" 
d="M489 0h-462v35l382 631h-368v34h434v-41l-379 -625h393v-34zM295 808q0 -15 -11 -26t-26 -11t-26 11t-11 26t11 26t26 11t26 -11t11 -26z" />
    <glyph glyph-name="zdotaccent" unicode="&#x17c;" horiz-adv-x="369" 
d="M342 0h-315v33l253 385h-245v32h307v-33l-253 -385h253v-32zM222 603q0 -15 -11 -26t-26 -11t-26 11t-11 26t11 26t26 11t26 -11t11 -26z" />
    <glyph glyph-name="Zcaron" unicode="&#x17d;" horiz-adv-x="516" 
d="M489 0h-462v35l382 631h-368v34h434v-41l-379 -625h393v-34zM405 880l-109 -144h-76l-109 144h32l115 -108l115 108h32z" />
    <glyph glyph-name="zcaron" unicode="&#x17e;" horiz-adv-x="369" 
d="M342 0h-315v33l253 385h-245v32h307v-33l-253 -385h253v-32zM317 700l-100 -195h-64l-100 195h32l100 -148l100 148h32z" />
    <glyph glyph-name="longs" unicode="&#x17f;" horiz-adv-x="280" 
d="M244 647q-34 27 -68 27q-46 0 -46 -101v-573h-58v573q0 56 18.5 95.5t58.5 39.5q49 0 95 -39v-22z" />
    <glyph glyph-name="florin" unicode="&#x192;" horiz-adv-x="280" 
d="M244 647q-34 27 -68 27q-46 0 -46 -101v-573h-58v573q0 56 18.5 95.5t58.5 39.5q49 0 95 -39v-22z" />
    <glyph glyph-name="Ohorn" unicode="&#x1a0;" horiz-adv-x="658" 
d="M604 350q0 -161 -69.5 -259.5t-205.5 -98.5t-205.5 98.5t-69.5 259.5t69.5 259.5t205.5 98.5q109 0 179 -68q27 20 41 65q7 22 7 69h34q0 -51 -9 -79q-14 -41 -61 -67q84 -96 84 -278zM530 350q0 324 -201 324t-201 -324t201 -324t201 324z" />
    <glyph glyph-name="ohorn" unicode="&#x1a1;" horiz-adv-x="431" 
d="M422 524q0 -51 -9 -79q-12 -40 -58 -65q32 -59 32 -155q0 -113 -43 -173t-125 -60t-125.5 60t-43.5 173t43.5 173t125.5 60q85 0 127 -63q19 17 35 60q7 22 7 69h34zM321 225q0 98 -26 149.5t-76 51.5q-103 0 -103 -201t103 -201q50 0 76 51.5t26 149.5z" />
    <glyph glyph-name="Uhorn" unicode="&#x1af;" horiz-adv-x="638" 
d="M629 774q0 -54 -9 -79q-13 -43 -68 -71v-428q0 -89 -68.5 -149.5t-162.5 -60.5t-162.5 60.5t-68.5 149.5v504h60v-490q0 -78 53.5 -134t130.5 -56t130.5 56t53.5 134v490h34v-56q23 19 36 61q7 22 7 69h34z" />
    <glyph glyph-name="uhorn" unicode="&#x1b0;" horiz-adv-x="450" 
d="M441 524q0 -51 -9 -79q-10 -34 -49 -60v-385h-58v56q-71 -64 -141 -64q-50 0 -83 40t-33 95v323h58v-323q0 -41 22.5 -71t57.5 -30q59 0 119 53v371h58v-33q11 19 17 38q7 22 7 69h34z" />
    <glyph glyph-name="Gcaron" unicode="&#x1e6;" horiz-adv-x="643" 
d="M571 0h-60v48q-78 -56 -173 -56q-138 0 -211 98.5t-73 259.5t73 259.5t211 98.5q131 0 219 -96v-34q-88 96 -219 96q-111 0 -160.5 -88.5t-49.5 -235.5t49.5 -235.5t160.5 -88.5q95 0 173 56v212h60v-294zM485 880l-109 -144h-76l-109 144h32l115 -108l115 108h32z" />
    <glyph glyph-name="gcaron" unicode="&#x1e7;" horiz-adv-x="459" 
d="M387 -58q0 -73 -36 -126.5t-96 -53.5q-81 0 -161 37v22q70 -25 141 -25q45 0 69.5 43t24.5 103v98q-62 -48 -125 -48q-81 0 -117.5 63.5t-36.5 169.5q0 105 41.5 169t126.5 64q57 0 111 -23v15h58v-508zM329 403q-52 23 -106 23q-40 0 -65 -31.5t-33.5 -73.5t-8.5 -96
q0 -45 4 -77.5t14.5 -62.5t32.5 -45.5t56 -15.5q53 0 106 48v331zM351 700l-100 -195h-64l-100 195h32l100 -148l100 148h32z" />
    <glyph glyph-name="Oogonek" unicode="&#x1ea;" horiz-adv-x="712" 
d="M631 350q0 -155 -64.5 -252.5t-190.5 -104.5q-38 -51 -38 -111q0 -33 11 -56.5t34 -23.5q22 0 45 10v-21q-30 -21 -69 -21q-31 0 -50 27.5t-19 64.5q0 79 56 130q-131 4 -198 102t-67 256q0 161 69.5 259.5t205.5 98.5t205.5 -98.5t69.5 -259.5zM557 350q0 324 -201 324
t-201 -324t201 -324t201 324z" />
    <glyph glyph-name="oogonek" unicode="&#x1eb;" horiz-adv-x="436" 
d="M387 225q0 -106 -38 -165t-110 -67q-38 -49 -38 -111q0 -80 45 -80q22 0 45 10v-21q-31 -21 -69 -21q-32 0 -50.5 27.5t-18.5 64.5q0 78 55 130q-77 4 -117.5 63.5t-40.5 169.5q0 113 43.5 173t125.5 60t125 -60t43 -173zM321 225q0 98 -26 149.5t-76 51.5
q-103 0 -103 -201t103 -201q50 0 76 51.5t26 149.5z" />
    <glyph glyph-name="Gacute" unicode="&#x1f4;" horiz-adv-x="643" 
d="M571 0h-60v48q-78 -56 -173 -56q-138 0 -211 98.5t-73 259.5t73 259.5t211 98.5q131 0 219 -96v-34q-88 96 -219 96q-111 0 -160.5 -88.5t-49.5 -235.5t49.5 -235.5t160.5 -88.5q95 0 173 56v212h60v-294zM478 880q-56 -84 -140 -144h-32q62 60 106 144h66z" />
    <glyph glyph-name="gacute" unicode="&#x1f5;" horiz-adv-x="459" 
d="M387 -58q0 -73 -36 -126.5t-96 -53.5q-81 0 -161 37v22q70 -25 141 -25q45 0 69.5 43t24.5 103v98q-62 -48 -125 -48q-81 0 -117.5 63.5t-36.5 169.5q0 105 41.5 169t126.5 64q57 0 111 -23v15h58v-508zM329 403q-52 23 -106 23q-40 0 -65 -31.5t-33.5 -73.5t-8.5 -96
q0 -45 4 -77.5t14.5 -62.5t32.5 -45.5t56 -15.5q53 0 106 48v331zM319 700q0 -95 -100 -195h-32q66 86 66 195h66z" />
    <glyph glyph-name="Aringacute" unicode="&#x1fa;" horiz-adv-x="546" 
d="M537 0h-63l-81 245h-266l-82 -245h-36l230 687q-41 21 -41 69q0 32 22.5 54.5t54.5 22.5q31 0 54 -22.5t23 -54.5q0 -47 -42 -69zM382 279l-121 367l-123 -367h244zM330 756q0 22 -16 38.5t-39 16.5t-39.5 -16t-16.5 -39t16.5 -39.5t39.5 -16.5t39 16.5t16 39.5z
M413 1013q-56 -84 -140 -144h-32q62 60 106 144h66z" />
    <glyph glyph-name="aringacute" unicode="&#x1fb;" horiz-adv-x="450" 
d="M378 0h-58v40q-62 -48 -125 -48q-70 0 -112 39.5t-42 107.5q0 70 46 109t122 39q57 0 111 -23v14q0 60 -22.5 103t-66.5 43q-66 0 -134 -38v23q77 49 155 49q58 0 92 -53.5t34 -126.5v-278zM320 232q-52 23 -106 23q-45 0 -76 -34t-31 -82q0 -52 28.5 -83.5t78.5 -31.5
q53 0 106 48v160zM308 558q0 -32 -22.5 -54.5t-54.5 -22.5t-54.5 22.5t-22.5 54.5t22.5 54.5t54.5 22.5t54.5 -22.5t22.5 -54.5zM287 558q0 23 -16.5 39.5t-39.5 16.5t-39.5 -16.5t-16.5 -39.5t16.5 -39.5t39.5 -16.5t39.5 16.5t16.5 39.5zM349 815q-56 -84 -140 -144h-32
q62 60 106 144h66z" />
    <glyph glyph-name="AEacute" unicode="&#x1fc;" horiz-adv-x="899" 
d="M845 0h-440l1 245h-250l-110 -245h-37l315 700h500v-34h-359v-299h292v-34h-292v-299h380v-34zM406 279l-1 387h-59l-174 -387h234zM590 880q-56 -84 -140 -144h-32q62 60 106 144h66z" />
    <glyph glyph-name="aeacute" unicode="&#x1fd;" horiz-adv-x="702" 
d="M657 217h-271q0 -43 4 -74t14 -59.5t31.5 -43t53.5 -14.5q70 0 122 48v-32q-52 -50 -122 -50q-66 0 -111 50v-42h-58v40q-62 -48 -125 -48q-70 0 -112 39.5t-42 107.5q0 70 46 109t122 39q57 0 111 -23v14q0 60 -22.5 103t-66.5 43q-66 0 -134 -38v23q77 49 155 49
q71 0 105 -78q48 78 132 78q76 0 122 -64t46 -169v-8zM320 232q-52 23 -106 23q-45 0 -76 -34t-31 -82q0 -52 28.5 -83.5t78.5 -31.5q53 0 106 48v160zM591 249q0 74 -25 125.5t-77 51.5q-53 0 -78 -51.5t-25 -125.5h205zM449 700q0 -95 -100 -195h-32q66 86 66 195h66z" />
    <glyph glyph-name="Oslashacute" unicode="&#x1fe;" horiz-adv-x="658" 
d="M604 350q0 -161 -69.5 -259.5t-205.5 -98.5q-101 0 -168 58l-53 -87h-38l68 110q-84 94 -84 277q0 161 69.5 259.5t205.5 98.5q101 0 168 -58l53 87h38l-68 -110q84 -94 84 -277zM530 350q0 148 -41 227l-301 -485q50 -66 141 -66q201 0 201 324zM470 608q-50 66 -141 66
q-201 0 -201 -324q0 -148 41 -227zM469 880q-56 -84 -140 -144h-32q62 60 106 144h66z" />
    <glyph glyph-name="oslashacute" unicode="&#x1ff;" horiz-adv-x="436" 
d="M387 225q0 -113 -43 -173t-125 -60q-60 0 -100 32l-32 -53h-37l46 77q-46 61 -46 177q0 113 43.5 173t125.5 60q59 0 99 -32l32 53h37l-46 -77q46 -61 46 -177zM292 380q-28 46 -73 46q-103 0 -103 -201q0 -70 14 -118zM321 225q0 70 -14 118l-162 -273q28 -46 74 -46
q50 0 76 51.5t26 149.5zM319 700q0 -95 -100 -195h-32q66 86 66 195h66z" />
    <glyph glyph-name="Adblgrave" unicode="&#x200;" horiz-adv-x="546" 
d="M537 0h-63l-81 245h-266l-82 -245h-36l234 700h63zM382 279l-121 367l-123 -367h244zM359 736h-32q-83 59 -139 144h66q40 -80 105 -144zM255 736h-32q-84 60 -140 144h66q41 -81 106 -144z" />
    <glyph glyph-name="adblgrave" unicode="&#x201;" horiz-adv-x="450" 
d="M378 0h-58v40q-62 -48 -125 -48q-70 0 -112 39.5t-42 107.5q0 70 46 109t122 39q57 0 111 -23v14q0 60 -22.5 103t-66.5 43q-66 0 -134 -38v23q77 49 155 49q58 0 92 -53.5t34 -126.5v-278zM320 232q-52 23 -106 23q-45 0 -76 -34t-31 -82q0 -52 28.5 -83.5t78.5 -31.5
q53 0 106 48v160zM315 505h-32q-100 100 -100 195h66q0 -109 66 -195zM211 505h-32q-100 100 -100 195h66q0 -109 66 -195z" />
    <glyph glyph-name="Edblgrave" unicode="&#x204;" horiz-adv-x="584" 
d="M530 0h-440v700h419v-34h-359v-299h292v-34h-292v-299h380v-34zM384 736h-32q-83 59 -139 144h66q41 -80 105 -144zM280 736h-32q-84 60 -140 144h66q41 -81 106 -144z" />
    <glyph glyph-name="edblgrave" unicode="&#x205;" horiz-adv-x="432" 
d="M387 217h-271q0 -43 4 -74t14 -59.5t31.5 -43t53.5 -14.5q70 0 122 48v-32q-52 -50 -122 -50q-76 0 -122.5 64t-46.5 169t46.5 169t122.5 64t122 -64t46 -169v-8zM321 249q0 74 -25 125.5t-77 51.5q-53 0 -78 -51.5t-25 -125.5h205zM303 505h-32q-100 100 -100 195h66
q0 -109 66 -195zM199 505h-32q-100 100 -100 195h66q0 -109 66 -195z" />
    <glyph glyph-name="Idblgrave" unicode="&#x208;" horiz-adv-x="240" 
d="M150 0h-60v700h60v-700zM204 736h-32q-83 59 -139 144h66q41 -80 105 -144zM100 736h-32q-84 60 -140 144h66q41 -81 106 -144z" />
    <glyph glyph-name="idblgrave" unicode="&#x209;" horiz-adv-x="251" 
d="M233 31q-46 -39 -91 -39q-39 0 -56.5 39t-17.5 96v323h58v-323q0 -22 1 -36.5t5 -31t13 -25t24 -8.5q33 0 64 28v-23zM181 505h-32q-100 100 -100 195h66q0 -109 66 -195zM77 505h-32q-100 100 -100 195h66q0 -109 66 -195z" />
    <glyph glyph-name="Odblgrave" unicode="&#x20c;" horiz-adv-x="658" 
d="M604 350q0 -161 -69.5 -259.5t-205.5 -98.5t-205.5 98.5t-69.5 259.5t69.5 259.5t205.5 98.5t205.5 -98.5t69.5 -259.5zM530 350q0 324 -201 324t-201 -324t201 -324t201 324zM413 736h-32q-83 59 -139 144h66q40 -80 105 -144zM309 736h-32q-84 60 -140 144h66
q41 -81 106 -144z" />
    <glyph glyph-name="odblgrave" unicode="&#x20d;" horiz-adv-x="436" 
d="M387 225q0 -113 -43 -173t-125 -60t-125.5 60t-43.5 173t43.5 173t125.5 60t125 -60t43 -173zM321 225q0 98 -26 149.5t-76 51.5q-103 0 -103 -201t103 -201q50 0 76 51.5t26 149.5zM303 505h-32q-100 100 -100 195h66q0 -109 66 -195zM199 505h-32q-100 100 -100 195h66
q0 -109 66 -195z" />
    <glyph glyph-name="Rdblgrave" unicode="&#x210;" horiz-adv-x="573" 
d="M564 0h-70l-193 319q-78 0 -160 14v-333h-60v700h58q86 8 162 8q109 0 175.5 -50t66.5 -144q0 -79 -47 -127t-128 -62zM469 514q0 67 -49.5 113.5t-118.5 46.5q-75 0 -160 -8v-299q82 -14 160 -14q69 0 118.5 47t49.5 114zM407 736h-32q-83 59 -139 144h66
q40 -80 105 -144zM303 736h-32q-84 60 -140 144h66q41 -81 106 -144z" />
    <glyph glyph-name="rdblgrave" unicode="&#x211;" horiz-adv-x="306" 
d="M288 404q-24 7 -53 7q-53 0 -105 -56v-355h-58v450h58v-63q62 68 126 68q20 0 32 -5v-46zM248 505h-32q-100 100 -100 195h66q0 -109 66 -195zM144 505h-32q-100 100 -100 195h66q0 -109 66 -195z" />
    <glyph glyph-name="Udblgrave" unicode="&#x214;" horiz-adv-x="624" 
d="M543 196q0 -89 -68.5 -149.5t-162.5 -60.5t-162.5 60.5t-68.5 149.5v504h60v-490q0 -78 53.5 -134t130.5 -56t130.5 56t53.5 134v490h34v-504zM396 736h-32q-83 59 -139 144h66q41 -80 105 -144zM292 736h-32q-84 60 -140 144h66q41 -81 106 -144z" />
    <glyph glyph-name="udblgrave" unicode="&#x215;" horiz-adv-x="455" 
d="M383 0h-58v56q-71 -64 -141 -64q-50 0 -83 40t-33 95v323h58v-323q0 -41 22.5 -71t57.5 -30q59 0 119 53v371h58v-450zM310 505h-32q-100 100 -100 195h66q0 -109 66 -195zM206 505h-32q-100 100 -100 195h66q0 -109 66 -195z" />
    <glyph glyph-name="uni0218" unicode="&#x218;" horiz-adv-x="571" 
d="M517 198q0 -90 -68.5 -151t-163.5 -61q-123 0 -231 73v29q101 -68 231 -68q71 0 122.5 47.5t51.5 115.5q0 105 -185 160q-212 63 -212 187q0 80 66.5 132t156.5 52q111 0 203 -73v-29q-88 68 -203 68q-67 0 -116 -38t-49 -97q0 -23 11.5 -42.5t25.5 -31t43 -24.5t45 -18
l51 -16q95 -28 158 -82.5t63 -132.5zM314 -24q0 -89 -58 -160l-21 16q21 72 21 144h58z" />
    <glyph glyph-name="uni0219" unicode="&#x219;" horiz-adv-x="376" 
d="M336 124q0 -57 -45 -94.5t-107 -37.5q-82 0 -152 41v32q70 -41 152 -41q39 0 67.5 24.5t28.5 60.5q0 66 -104 100q-63 22 -100.5 49t-37.5 72q0 55 43 91.5t103 36.5q73 0 131 -41v-32q-58 41 -131 41q-37 0 -63.5 -23t-26.5 -57q0 -54 98 -87q144 -49 144 -135zM213 -24
q0 -89 -58 -160l-21 16q21 72 21 144h58z" />
    <glyph glyph-name="uni021A" unicode="&#x21a;" horiz-adv-x="520" 
d="M502 666h-212v-666h-60v666h-212v34h484v-34zM289 -24q0 -89 -58 -160l-21 16q21 72 21 144h58z" />
    <glyph glyph-name="uni021B" unicode="&#x21b;" horiz-adv-x="270" 
d="M243 31q-41 -39 -83 -39q-67 0 -67 135v291h-66v28q45 0 67 45t22 109h35v-150h92v-32h-92v-291q0 -24 0.5 -36.5t4 -30t11.5 -26t21 -8.5q27 0 55 28v-23zM189 -24q0 -89 -58 -160l-21 16q21 72 21 144h58z" />
    <glyph glyph-name="h.superior" unicode="&#x2b0;" horiz-adv-x="283" 
d="M245 388h-45v194q0 22 -13 38t-33 16q-35 0 -69 -32v-216h-45v420h45v-187q44 42 88 42q30 0 51 -24t21 -57v-194z" />
    <glyph glyph-name="circumflex" unicode="&#x2c6;" 
d="M352 505h-32l-100 148l-100 -148h-32l100 195h64z" />
    <glyph glyph-name="caron" unicode="&#x2c7;" 
d="M352 700l-100 -195h-64l-100 195h32l100 -148l100 148h32z" />
    <glyph glyph-name="breve" unicode="&#x2d8;" 
d="M339 682q0 -64 -33 -111t-86 -47t-86 47t-33 111h29q0 -48 25 -83.5t65 -35.5t65 35.5t25 83.5h29z" />
    <glyph glyph-name="dotaccent" unicode="&#x2d9;" 
d="M257 603q0 -15 -11 -26t-26 -11t-26 11t-11 26t11 26t26 11t26 -11t11 -26z" />
    <glyph glyph-name="ring" unicode="&#x2da;" 
d="M297 603q0 -32 -22.5 -54.5t-54.5 -22.5t-54.5 22.5t-22.5 54.5t22.5 54.5t54.5 22.5t54.5 -22.5t22.5 -54.5zM276 603q0 23 -16.5 39.5t-39.5 16.5t-39.5 -16.5t-16.5 -39.5t16.5 -39.5t39.5 -16.5t39.5 16.5t16.5 39.5z" />
    <glyph glyph-name="ogonek" unicode="&#x2db;" 
d="M224 -209q-32 -21 -69 -21q-32 0 -50.5 27.5t-18.5 64.5q0 86 66 139h26q-44 -52 -44 -119q0 -80 45 -80q22 0 45 10v-21z" />
    <glyph glyph-name="tilde" unicode="&#x2dc;" 
d="M345 629q-60 -72 -87 -72q-16 0 -40 19.5t-39 19.5q-26 0 -59 -39l-25 20q60 72 87 72q16 0 40 -19.5t39 -19.5q26 0 59 39z" />
    <glyph glyph-name="hungarumlaut" unicode="&#x2dd;" 
d="M268 700q0 -95 -100 -195h-32q66 86 66 195h66zM372 700q0 -95 -100 -195h-32q66 86 66 195h66z" />
    <glyph glyph-name="tonos" unicode="&#x384;" 
d="M286 700q0 -124 -66 -228l-21 11q14 70 17.5 106.5t3.5 110.5h66z" />
    <glyph glyph-name="dieresistonos" unicode="&#x385;" 
d="M253 700q0 -124 -66 -228l-21 11q14 70 17.5 106.5t3.5 110.5h66zM165 603q0 -14 -10 -24t-24 -10t-23.5 10t-9.5 24q0 13 10 23t23 10q14 0 24 -9.5t10 -23.5zM342 603q0 -14 -10 -24t-24 -10t-23.5 10t-9.5 24q0 13 9.5 23t23.5 10t24 -9.5t10 -23.5z" />
    <glyph glyph-name="Alphatonos" unicode="&#x386;" horiz-adv-x="546" 
d="M528 0h-63l-81 245h-266l-82 -245h-36l234 700h63zM100 700q0 -124 -66 -228l-21 11q14 70 17.5 106.5t3.5 110.5h66zM373 279l-121 367l-123 -367h244z" />
    <glyph glyph-name="Epsilontonos" unicode="&#x388;" horiz-adv-x="616" 
d="M571 0h-440v700h419v-34h-359v-299h292v-34h-292v-299h380v-34zM87 700q0 -124 -66 -228l-21 11q14 70 17.5 106.5t3.5 110.5h66z" />
    <glyph glyph-name="Etatonos" unicode="&#x389;" horiz-adv-x="696" 
d="M615 0h-60v333h-364v-333h-60v700h60v-333h364v333h60v-700zM87 700q0 -124 -66 -228l-21 11q14 70 17.5 106.5t3.5 110.5h66z" />
    <glyph glyph-name="Iotatonos" unicode="&#x38a;" horiz-adv-x="272" 
d="M191 0h-60v700h60v-700zM87 700q0 -124 -66 -228l-21 11q14 70 17.5 106.5t3.5 110.5h66z" />
    <glyph glyph-name="Omicrontonos" unicode="&#x38c;" horiz-adv-x="699" 
d="M618 350q0 -161 -69.5 -259.5t-205.5 -98.5t-205.5 98.5t-69.5 259.5t69.5 259.5t205.5 98.5t205.5 -98.5t69.5 -259.5zM87 700q0 -124 -66 -228l-21 11q14 70 17.5 106.5t3.5 110.5h66zM544 350q0 324 -201 324t-201 -324t201 -324t201 324z" />
    <glyph glyph-name="Upsilontonos" unicode="&#x38e;" horiz-adv-x="602" 
d="M593 700l-212 -394v-306h-60v280l-212 420h67l180 -369l198 369h39zM87 700q0 -124 -66 -228l-21 11q14 70 17.5 106.5t3.5 110.5h66z" />
    <glyph glyph-name="Omegatonos" unicode="&#x38f;" horiz-adv-x="710" 
d="M629 0h-206v58q63 56 97.5 132t34.5 160q0 324 -201 324t-201 -324q0 -84 34.5 -160t97.5 -132v-58h-206v58h145q-69 52 -107 128.5t-38 163.5q0 161 69.5 259.5t205.5 98.5t205.5 -98.5t69.5 -259.5q0 -87 -38 -163.5t-107 -128.5h145v-58zM87 700q0 -124 -66 -228
l-21 11q14 70 17.5 106.5t3.5 110.5h66z" />
    <glyph glyph-name="iotadieresistonos" unicode="&#x390;" horiz-adv-x="251" 
d="M233 31q-46 -39 -91 -39q-39 0 -56.5 39t-17.5 96v323h58v-323q0 -22 1 -36.5t5 -31t13 -25t24 -8.5q33 0 64 28v-23zM130 700q0 -124 -66 -228l-21 11q14 70 17.5 106.5t3.5 110.5h66zM42 603q0 -14 -10 -24t-24 -10t-23.5 10t-9.5 24q0 13 9.5 23t23.5 10t24 -9.5
t10 -23.5zM219 603q0 -14 -10 -24t-24 -10t-23.5 10t-9.5 24q0 13 10 23t23 10q14 0 24 -9.5t10 -23.5z" />
    <glyph glyph-name="Alpha" unicode="&#x391;" horiz-adv-x="546" 
d="M537 0h-63l-81 245h-266l-82 -245h-36l234 700h63zM382 279l-121 367l-123 -367h244z" />
    <glyph glyph-name="Beta" unicode="&#x392;" horiz-adv-x="606" 
d="M552 186q0 -96 -70 -145t-184 -49l-150 8h-58v700h58q80 8 150 8q98 0 157.5 -44.5t59.5 -129.5q0 -63 -33.5 -104t-93.5 -58q77 -17 120.5 -64t43.5 -122zM455 534q0 60 -46.5 100t-110.5 40q-70 0 -148 -8v-291l75 1q94 0 162 42t68 116zM478 186q0 73 -64 118.5
t-150 45.5h-114v-316q78 -8 148 -8q73 0 126.5 46t53.5 114z" />
    <glyph glyph-name="Gamma" unicode="&#x393;" horiz-adv-x="536" 
d="M500 666h-359v-666h-60v700h419v-34z" />
    <glyph glyph-name="Delta" unicode="&#x394;" horiz-adv-x="599" 
d="M590 0h-581l260 700h64zM513 34l-227 620l-230 -620h457z" />
    <glyph glyph-name="Epsilon" unicode="&#x395;" horiz-adv-x="584" 
d="M530 0h-440v700h419v-34h-359v-299h292v-34h-292v-299h380v-34z" />
    <glyph glyph-name="Zeta" unicode="&#x396;" horiz-adv-x="516" 
d="M489 0h-462v35l382 631h-368v34h434v-41l-379 -625h393v-34z" />
    <glyph glyph-name="Eta" unicode="&#x397;" horiz-adv-x="664" 
d="M574 0h-60v333h-364v-333h-60v700h60v-333h364v333h60v-700z" />
    <glyph glyph-name="Theta" unicode="&#x398;" horiz-adv-x="658" 
d="M604 350q0 -161 -69.5 -259.5t-205.5 -98.5t-205.5 98.5t-69.5 259.5t69.5 259.5t205.5 98.5t205.5 -98.5t69.5 -259.5zM530 350q0 324 -201 324t-201 -324t201 -324t201 324zM486 321h-314v58h314v-58z" />
    <glyph glyph-name="Iota" unicode="&#x399;" horiz-adv-x="240" 
d="M150 0h-60v700h60v-700z" />
    <glyph glyph-name="Kappa" unicode="&#x39a;" horiz-adv-x="616" 
d="M607 0h-88l-369 344v-344h-60v700h60v-294l384 294h56l-403 -308z" />
    <glyph glyph-name="Lambda" unicode="&#x39b;" horiz-adv-x="546" 
d="M537 0h-63l-213 646l-216 -646h-36l234 700h63z" />
    <glyph glyph-name="Mu" unicode="&#x39c;" horiz-adv-x="790" 
d="M736 0h-60l-30 595l-247 -595h-36l-245 591l-30 -591h-34l35 700h48l258 -620l258 620h48z" />
    <glyph glyph-name="Nu" unicode="&#x39d;" horiz-adv-x="697" 
d="M607 0h-40l-443 607v-607h-34v700h40l443 -607v607h34v-700z" />
    <glyph glyph-name="Xi" unicode="&#x39e;" horiz-adv-x="607" 
d="M562 640h-517v60h517v-60zM536 320h-465v60h465v-60zM562 0h-517v60h517v-60z" />
    <glyph glyph-name="Omicron" unicode="&#x39f;" horiz-adv-x="658" 
d="M604 350q0 -161 -69.5 -259.5t-205.5 -98.5t-205.5 98.5t-69.5 259.5t69.5 259.5t205.5 98.5t205.5 -98.5t69.5 -259.5zM530 350q0 324 -201 324t-201 -324t201 -324t201 324z" />
    <glyph glyph-name="Pi" unicode="&#x3a0;" horiz-adv-x="646" 
d="M565 0h-60v666h-364v-666h-60v700h484v-700z" />
    <glyph glyph-name="Rho" unicode="&#x3a1;" horiz-adv-x="606" 
d="M552 514q0 -95 -66.5 -145t-175.5 -50q-78 0 -160 14v-333h-60v700h58q86 8 162 8q109 0 175.5 -50t66.5 -144zM478 514q0 67 -49.5 113.5t-118.5 46.5q-75 0 -160 -8v-299q82 -14 160 -14q69 0 118.5 47t49.5 114z" />
    <glyph glyph-name="Sigma" unicode="&#x3a3;" horiz-adv-x="548" 
d="M494 0h-440v60l147 290l-147 290v60h440v-60h-375l147 -290l-147 -290h375v-60z" />
    <glyph glyph-name="Tau" unicode="&#x3a4;" horiz-adv-x="520" 
d="M502 666h-212v-666h-60v666h-212v34h484v-34z" />
    <glyph glyph-name="Upsilon" unicode="&#x3a5;" horiz-adv-x="554" 
d="M527 657q-107 -73 -167.5 -187.5t-60.5 -244.5v-225h-60v225q0 133 -54.5 249t-157.5 186v46q176 -122 240 -302q62 189 228 301z" />
    <glyph glyph-name="Phi" unicode="&#x3a6;" horiz-adv-x="622" 
d="M573 350q0 -94 -68 -159.5t-163 -66.5v-124h-60v124q-96 1 -164 66.5t-68 159.5t68 159.5t164 66.5v124h60v-124q95 -1 163 -66.5t68 -159.5zM282 156v388q-74 -1 -124 -58t-50 -136t50 -136t124 -58zM515 350q0 78 -50 135.5t-123 58.5v-388q73 1 123 58.5t50 135.5z
" />
    <glyph glyph-name="Chi" unicode="&#x3a7;" horiz-adv-x="571" 
d="M544 0h-70l-198 325l-209 -325h-40l229 358l-208 342h70l178 -292l187 292h40l-208 -324z" />
    <glyph glyph-name="Psi" unicode="&#x3a8;" horiz-adv-x="730" 
d="M640 450q0 -93 -71.5 -158t-173.5 -74v-218h-60v218q-102 9 -173.5 74t-71.5 158v250h60v-250q0 -76 53 -131.5t132 -66.5v448h60v-448q79 11 132 66.5t53 131.5v250h60v-250z" />
    <glyph glyph-name="Omega" unicode="&#x3a9;" horiz-adv-x="658" 
d="M604 0h-206v58q63 56 97.5 132t34.5 160q0 324 -201 324t-201 -324q0 -84 34.5 -160t97.5 -132v-58h-206v58h145q-69 52 -107 128.5t-38 163.5q0 161 69.5 259.5t205.5 98.5t205.5 -98.5t69.5 -259.5q0 -87 -38 -163.5t-107 -128.5h145v-58z" />
    <glyph glyph-name="Iotadieresis" unicode="&#x3aa;" horiz-adv-x="240" 
d="M150 0h-60v700h60v-700zM74 853q0 -14 -10 -24t-24 -10t-23.5 10t-9.5 24q0 13 9.5 23t23.5 10t24 -9.5t10 -23.5zM232 853q0 -14 -10 -24t-24 -10t-23.5 10t-9.5 24q0 13 9.5 23t23.5 10t24 -9.5t10 -23.5z" />
    <glyph glyph-name="Upsilondieresis" unicode="&#x3ab;" horiz-adv-x="511" 
d="M502 700l-212 -394v-306h-60v280l-212 420h67l180 -369l198 369h39zM214 853q0 -14 -10 -24t-24 -10t-23.5 10t-9.5 24q0 13 9.5 23t23.5 10t24 -9.5t10 -23.5zM372 853q0 -14 -10 -24t-24 -10t-23.5 10t-9.5 24q0 13 9.5 23t23.5 10t24 -9.5t10 -23.5z" />
    <glyph glyph-name="alphatonos" unicode="&#x3ac;" horiz-adv-x="481" 
d="M455 -8q-80 0 -101 108q-42 -108 -124 -108q-79 0 -129.5 68t-50.5 161q0 96 49.5 166.5t130.5 70.5q51 0 87.5 -34.5t53.5 -91.5q18 65 43 118h37q-53 -116 -69 -231q-15 -193 73 -193v-34zM348 222q6 81 -25 141.5t-93 60.5q-61 0 -91.5 -59.5t-30.5 -143.5
q0 -80 31 -137.5t91 -57.5q30 0 51.5 16.5t34.5 48.5t19.5 60.5t12.5 70.5zM330 700q0 -95 -100 -195h-32q66 86 66 195h66z" />
    <glyph glyph-name="epsilontonos" unicode="&#x3ad;" horiz-adv-x="467" 
d="M422 89q-27 -46 -73.5 -72.5t-100.5 -26.5q-82 0 -142.5 43.5t-60.5 112.5q0 37 28.5 64.5t70.5 38.5q-31 14 -51 38t-20 54q0 56 52 88t123 32q90 0 152 -67l-25 -23q-51 56 -127 56q-47 0 -82 -23.5t-35 -62.5q0 -35 26.5 -58.5t63.5 -23.5l54 -32q-172 0 -172 -81
q0 -53 43 -87.5t102 -34.5q45 0 83.5 22t61.5 60zM348 700q0 -95 -100 -195h-32q66 86 66 195h66z" />
    <glyph glyph-name="etatonos" unicode="&#x3ae;" horiz-adv-x="453" 
d="M385 -172h-58v495q0 41 -22 71t-57 30q-60 0 -118 -53v-371h-58v450h58v-56q69 64 140 64q49 0 82 -40t33 -95v-495zM329 700q0 -95 -100 -195h-32q66 86 66 195h66z" />
    <glyph glyph-name="iotatonos" unicode="&#x3af;" horiz-adv-x="251" 
d="M233 31q-46 -39 -91 -39q-39 0 -56.5 39t-17.5 96v323h58v-323q0 -22 1 -36.5t5 -31t13 -25t24 -8.5q33 0 64 28v-23zM197 700q0 -95 -100 -195h-32q66 86 66 195h66z" />
    <glyph glyph-name="upsilondieresistonos" unicode="&#x3b0;" horiz-adv-x="483" 
d="M434 250q0 -104 -55.5 -181t-143.5 -77q-63 0 -106.5 46.5t-43.5 111.5v188q0 35 -16.5 61t-45.5 26v32q50 0 85 -35t35 -84v-188q0 -50 25 -87t67 -37q75 0 120 67t45 157q0 92 -67 177l36 28q65 -82 65 -205zM268 700q0 -124 -66 -228l-21 11q14 70 17.5 106.5
t3.5 110.5h66zM180 603q0 -14 -10 -24t-24 -10t-23.5 10t-9.5 24q0 13 9.5 23t23.5 10t24 -9.5t10 -23.5zM357 603q0 -14 -10 -24t-24 -10t-23.5 10t-9.5 24q0 13 10 23t23 10q14 0 24 -9.5t10 -23.5z" />
    <glyph glyph-name="alpha" unicode="&#x3b1;" horiz-adv-x="481" 
d="M455 -8q-80 0 -101 108q-42 -108 -124 -108q-79 0 -129.5 68t-50.5 161q0 96 49.5 166.5t130.5 70.5q51 0 87.5 -34.5t53.5 -91.5q18 65 43 118h37q-53 -116 -69 -231q-15 -193 73 -193v-34zM348 222q6 81 -25 141.5t-93 60.5q-61 0 -91.5 -59.5t-30.5 -143.5
q0 -80 31 -137.5t91 -57.5q30 0 51.5 16.5t34.5 48.5t19.5 60.5t12.5 70.5z" />
    <glyph glyph-name="beta" unicode="&#x3b2;" horiz-adv-x="504" 
d="M454 179q0 -77 -53.5 -132t-129.5 -55q-79 0 -141 48v-212h-58v667q0 87 52 150t131 63q76 0 129.5 -55t53.5 -132q0 -62 -47.5 -106t-119.5 -64q78 -17 130.5 -62t52.5 -110zM396 179q0 54 -40.5 90t-98 50.5t-127.5 14.5v-262q62 -48 141 -48q55 0 90 46t35 109z
M380 521q0 63 -35 109t-90 46q-58 0 -91.5 -54t-33.5 -127v-129q65 0 120 15.5t92.5 52t37.5 87.5z" />
    <glyph glyph-name="gamma" unicode="&#x3b3;" 
d="M390 450q0 -252 -158 -455l1 -167h-58v172q0 240 -166 450h74q124 -154 146 -369q103 167 103 369h58z" />
    <glyph glyph-name="delta" unicode="&#x3b4;" horiz-adv-x="436" 
d="M387 225q0 -113 -43 -173t-125 -60t-125.5 60t-43.5 173t43.5 173t125.5 60q11 0 16 -1l-152 211v32h271v-32h-213l203 -270q43 -57 43 -173zM321 225q0 98 -26 149.5t-76 51.5q-103 0 -103 -201t103 -201q50 0 76 51.5t26 149.5z" />
    <glyph glyph-name="epsilon" unicode="&#x3b5;" horiz-adv-x="467" 
d="M422 89q-27 -46 -73.5 -72.5t-100.5 -26.5q-82 0 -142.5 43.5t-60.5 112.5q0 37 28.5 64.5t70.5 38.5q-31 14 -51 38t-20 54q0 56 52 88t123 32q90 0 152 -67l-25 -23q-51 56 -127 56q-47 0 -82 -23.5t-35 -62.5q0 -35 26.5 -58.5t63.5 -23.5l54 -32q-172 0 -172 -81
q0 -53 43 -87.5t102 -34.5q45 0 83.5 22t61.5 60z" />
    <glyph glyph-name="zeta" unicode="&#x3b6;" horiz-adv-x="436" 
d="M387 0q0 -80 -16 -153h-34q4 37 5 55.5t-1 45.5t-12 39.5t-29 12.5q-102 0 -176 65t-74 160q0 135 65.5 253t180.5 188h-213v34h271v-34q-112 -73 -175 -190t-63 -251q0 -74 63.5 -120.5t149.5 -46.5q24 0 41 -17t17 -41z" />
    <glyph glyph-name="eta" unicode="&#x3b7;" horiz-adv-x="453" 
d="M385 -172h-58v495q0 41 -22 71t-57 30q-60 0 -118 -53v-371h-58v450h58v-56q69 64 140 64q49 0 82 -40t33 -95v-495z" />
    <glyph glyph-name="theta" unicode="&#x3b8;" horiz-adv-x="491" 
d="M442 346q0 -69 -10 -128.5t-31.5 -112t-61 -83t-93.5 -30.5q-53 0 -92.5 30.5t-61.5 82.5t-32 112.5t-10 128.5q0 70 10 131t31 115t61 85t94 31q55 0 94.5 -31t61 -85t31 -115t9.5 -131zM384 362q0 54 -2 90.5t-10 82.5t-22 73.5t-40.5 46.5t-63.5 19t-63 -19t-40 -46.5
t-22.5 -73t-10.5 -82.5t-2 -91h276zM384 330h-276q0 -65 4.5 -111t18 -94.5t42.5 -73.5t73 -25t73 25t42.5 73.5t18 94.5t4.5 111z" />
    <glyph glyph-name="iota" unicode="&#x3b9;" horiz-adv-x="251" 
d="M233 31q-46 -39 -91 -39q-39 0 -56.5 39t-17.5 96v323h58v-323q0 -22 1 -36.5t5 -31t13 -25t24 -8.5q33 0 64 28v-23z" />
    <glyph glyph-name="kappa" unicode="&#x3ba;" horiz-adv-x="447" 
d="M429 0h-80l-153 157l-66 -108v-49h-58v450h58v-336l153 250q28 45 56.5 71t66.5 26v-40q-47 0 -94 -75l-85 -138z" />
    <glyph glyph-name="lambda" unicode="&#x3bb;" horiz-adv-x="435" 
d="M417 0q-79 0 -118 132l-63 212l-155 -344h-63l193 429l-34 113q-8 27 -14 44t-16 38t-24 31.5t-31 10.5v34q46 0 72 -40t46 -109l122 -410q9 -32 17.5 -52t26.5 -37.5t41 -17.5v-34z" />
    <glyph glyph-name="mu.greek" unicode="&#x3bc;" horiz-adv-x="455" 
d="M383 0h-58v56q-71 -64 -141 -64q-37 0 -66 24v-188h-50v622h58v-323q0 -41 22.5 -71t57.5 -30q59 0 119 53v371h58v-450z" />
    <glyph glyph-name="nu" unicode="&#x3bd;" horiz-adv-x="444" 
d="M395 450q0 -252 -155 -450h-61l-152 450h62l131 -390q109 180 109 390h66z" />
    <glyph glyph-name="xi" unicode="&#x3be;" horiz-adv-x="436" 
d="M387 0q0 -80 -16 -153h-34q4 37 5 55.5t-1 45.5t-12 39.5t-29 12.5q-101 0 -175.5 59t-74.5 149q0 132 220 155q-44 19 -71 55t-27 82q0 52 27 97t74 69h-194v34h281v-34q-59 0 -100 -44t-41 -105t41 -105t100 -44v-23q-252 0 -252 -120q0 -75 66 -121t155 -46
q24 0 41 -17t17 -41z" />
    <glyph glyph-name="omicron" unicode="&#x3bf;" horiz-adv-x="436" 
d="M387 225q0 -113 -43 -173t-125 -60t-125.5 60t-43.5 173t43.5 173t125.5 60t125 -60t43 -173zM321 225q0 98 -26 149.5t-76 51.5q-103 0 -103 -201t103 -201q50 0 76 51.5t26 149.5z" />
    <glyph glyph-name="pi" unicode="&#x3c0;" horiz-adv-x="544" 
d="M499 404h-98v-327q0 -21 14 -36t34 -15v-34q-43 0 -74.5 24t-31.5 61v327h-130v-191q0 -94 -40 -162t-112 -68v47q56 0 87 54t31 129v191h-22q-80 0 -80 -35h-32q0 37 33.5 59t78.5 22h342v-46z" />
    <glyph glyph-name="rho" unicode="&#x3c1;" horiz-adv-x="492" 
d="M446 221q0 -93 -48.5 -161.5t-126.5 -68.5q-76 0 -130 59v-129q-6 -82 -23 -151h-60q19 83 25 156q4 44 4 93t-2 109t-2 93q0 96 50.5 167t131.5 71t131 -71t50 -167zM388 221q0 84 -31 144t-92 60t-92.5 -60t-31.5 -144v-141q52 -55 130 -55q40 0 67.5 30t38.5 72.5
t11 93.5z" />
    <glyph glyph-name="uni03C2" unicode="&#x3c2;" horiz-adv-x="436" 
d="M387 0q0 -80 -16 -153h-34q4 37 5 55.5t-1 45.5t-12 39.5t-29 12.5q-102 0 -176 65t-74 160t57.5 164t144.5 69q75 0 135 -46v-34q-60 46 -135 46q-65 0 -104.5 -59.5t-39.5 -139.5q0 -75 66 -121t155 -46q24 0 41 -17t17 -41z" />
    <glyph glyph-name="sigma" unicode="&#x3c3;" 
d="M440 434q-21 -3 -127 -5q74 -53 74 -204q0 -113 -43 -173t-125 -60t-125.5 60t-43.5 173t43.5 173t125.5 60q9 0 25 -2q68 7 189 26zM321 225q0 98 -26 149.5t-76 51.5q-103 0 -103 -201t103 -201q50 0 76 51.5t26 149.5z" />
    <glyph glyph-name="tau" unicode="&#x3c4;" horiz-adv-x="432" 
d="M398 404h-153v-277q0 -22 1 -36.5t5 -31t13 -25t24 -8.5q32 0 64 28v-23q-46 -39 -91 -39q-39 0 -56.5 39t-17.5 96v277h-40q-79 0 -79 -35h-34q0 37 33.5 59t79.5 22h251v-46z" />
    <glyph glyph-name="upsilon" unicode="&#x3c5;" horiz-adv-x="483" 
d="M434 250q0 -104 -55.5 -181t-143.5 -77q-63 0 -106.5 46.5t-43.5 111.5v188q0 35 -16.5 61t-45.5 26v32q50 0 85 -35t35 -84v-188q0 -50 25 -87t67 -37q75 0 120 67t45 157q0 92 -67 177l36 28q65 -82 65 -205z" />
    <glyph glyph-name="phi" unicode="&#x3c6;" horiz-adv-x="579" 
d="M530 225q0 -96 -65 -164t-158 -69v-222h-34v222q-93 1 -158 69t-65 164t65 164t158 69v242h34v-242q93 -1 158 -69t65 -164zM273 24v402q-72 -1 -118.5 -60.5t-46.5 -140.5t46.5 -140.5t118.5 -60.5zM472 225q0 81 -46.5 140.5t-118.5 60.5v-402q72 1 118.5 60.5
t46.5 140.5z" />
    <glyph glyph-name="chi" unicode="&#x3c7;" horiz-adv-x="471" 
d="M453 -230q-71 0 -122 101l-93 187l-154 -280h-66l189 344l-97 195q-17 33 -25.5 48t-27.5 33t-39 18v34q41 0 68 -31t54 -87l87 -174l160 292h66l-195 -355l103 -209q42 -82 92 -82v-34z" />
    <glyph glyph-name="psi" unicode="&#x3c8;" horiz-adv-x="579" 
d="M530 155q0 -74 -66.5 -118t-156.5 -45v-222h-34v222q-91 1 -157 45t-66 118v295h58v-295q0 -57 49 -93.5t116 -37.5v676h34v-676q67 1 116 37.5t49 93.5v295h58v-295z" />
    <glyph glyph-name="omega" unicode="&#x3c9;" horiz-adv-x="605" 
d="M556 230q0 -62 -15 -114.5t-49 -88t-83 -35.5q-78 0 -110 86q-31 -86 -101 -86q-72 0 -110 70t-38 168t73 228l28 -16q-43 -76 -43 -212q0 -43 2.5 -73.5t11 -63.5t27.5 -50t49 -17q70 0 85 117q-9 55 -9 157h58v-47.5t1 -46.5t3 -47.5t5.5 -41.5t9.5 -37.5t13.5 -27.5
t19 -20t25.5 -6q29 0 48 17t27.5 50t11 63.5t2.5 73.5q0 136 -43 212l28 16q73 -130 73 -228z" />
    <glyph glyph-name="iotadieresis" unicode="&#x3ca;" horiz-adv-x="251" 
d="M233 31q-46 -39 -91 -39q-39 0 -56.5 39t-17.5 96v323h58v-323q0 -22 1 -36.5t5 -31t13 -25t24 -8.5q33 0 64 28v-23zM51 603q0 -14 -10 -24t-24 -10t-23.5 10t-9.5 24q0 13 10 23t23 10q14 0 24 -9.5t10 -23.5zM209 603q0 -14 -10 -24t-24 -10t-23.5 10t-9.5 24
q0 13 10 23t23 10q14 0 24 -9.5t10 -23.5z" />
    <glyph glyph-name="upsilondieresis" unicode="&#x3cb;" horiz-adv-x="483" 
d="M434 250q0 -104 -55.5 -181t-143.5 -77q-63 0 -106.5 46.5t-43.5 111.5v188q0 35 -16.5 61t-45.5 26v32q50 0 85 -35t35 -84v-188q0 -50 25 -87t67 -37q75 0 120 67t45 157q0 92 -67 177l36 28q65 -82 65 -205zM189 603q0 -14 -10 -24t-24 -10t-23.5 10t-9.5 24
q0 13 10 23t23 10q14 0 24 -9.5t10 -23.5zM347 603q0 -14 -10 -24t-24 -10t-23.5 10t-9.5 24q0 13 10 23t23 10q14 0 24 -9.5t10 -23.5z" />
    <glyph glyph-name="omicrontonos" unicode="&#x3cc;" horiz-adv-x="436" 
d="M387 225q0 -113 -43 -173t-125 -60t-125.5 60t-43.5 173t43.5 173t125.5 60t125 -60t43 -173zM321 225q0 98 -26 149.5t-76 51.5q-103 0 -103 -201t103 -201q50 0 76 51.5t26 149.5zM319 700q0 -95 -100 -195h-32q66 86 66 195h66z" />
    <glyph glyph-name="upsilontonos" unicode="&#x3cd;" horiz-adv-x="483" 
d="M434 250q0 -104 -55.5 -181t-143.5 -77q-63 0 -106.5 46.5t-43.5 111.5v188q0 35 -16.5 61t-45.5 26v32q50 0 85 -35t35 -84v-188q0 -50 25 -87t67 -37q75 0 120 67t45 157q0 92 -67 177l36 28q65 -82 65 -205zM335 700q0 -95 -100 -195h-32q66 86 66 195h66z" />
    <glyph glyph-name="omegatonos" unicode="&#x3ce;" horiz-adv-x="605" 
d="M556 230q0 -62 -15 -114.5t-49 -88t-83 -35.5q-78 0 -110 86q-31 -86 -101 -86q-72 0 -110 70t-38 168t73 228l28 -16q-43 -76 -43 -212q0 -43 2.5 -73.5t11 -63.5t27.5 -50t49 -17q70 0 85 117q-9 55 -9 157h58v-47.5t1 -46.5t3 -47.5t5.5 -41.5t9.5 -37.5t13.5 -27.5
t19 -20t25.5 -6q29 0 48 17t27.5 50t11 63.5t2.5 73.5q0 136 -43 212l28 16q73 -130 73 -228zM403 700q0 -95 -100 -195h-32q66 86 66 195h66z" />
    <glyph glyph-name="uni03D1" unicode="&#x3d1;" horiz-adv-x="535" 
d="M512 468l-43 -15q8 -61 8 -115q0 -141 -59 -243.5t-166 -102.5q-66 0 -113 46t-47 112v188q0 34 -20 60t-50 26v34q53 0 90.5 -35t37.5 -85v-188q0 -50 29 -87t73 -37q46 0 80 27t52 73t26.5 98.5t8.5 113.5q0 58 -4 103q-45 -8 -85 -8q-79 0 -136.5 40.5t-57.5 106.5
q0 59 32.5 102.5t83.5 43.5q86 0 138.5 -66t72.5 -173q22 7 37 13zM412 474q-26 218 -160 218q-37 0 -59.5 -33.5t-22.5 -78.5q0 -52 47.5 -82.5t112.5 -30.5q35 0 82 7z" />
    <glyph glyph-name="uni03D5" unicode="&#x3d5;" horiz-adv-x="548" 
d="M514 225q0 -89 -61 -154.5t-150 -76.5v-224h-58v224q-89 11 -150 76.5t-61 154.5q0 66 34 125.5t90 103.5l21 -26q-87 -68 -87 -203q0 -73 43.5 -129t109.5 -68v272q0 64 38 111t96 47q47 0 78.5 -35.5t44 -86t12.5 -111.5zM456 225v35.5t-1 34t-3 34t-5.5 30t-9.5 27.5
t-13.5 19.5t-19 14t-25.5 4.5q-37 0 -56.5 -36.5t-19.5 -87.5v-272q66 12 109.5 68t43.5 129z" />
    <glyph glyph-name="uni03D6" unicode="&#x3d6;" horiz-adv-x="605" 
d="M556 230q0 -62 -15 -114.5t-49 -88t-83 -35.5q-78 0 -110 86q-31 -86 -101 -86q-72 0 -110 70t-38 168t73 228l28 -16q-43 -76 -43 -212q0 -43 2.5 -73.5t11 -63.5t27.5 -50t49 -17q70 0 85 117q-9 55 -9 157h58v-47.5t1 -46.5t3 -47.5t5.5 -41.5t9.5 -37.5t13.5 -27.5
t19 -20t25.5 -6q29 0 48 17t27.5 50t11 63.5t2.5 73.5q0 86 -18.5 157.5t-64 121.5t-112.5 50q-101 0 -165 -26l-8 20q97 38 173 38q79 0 138 -53t87 -133.5t28 -174.5z" />
    <glyph glyph-name="epsilon.alt" unicode="&#x3f5;" horiz-adv-x="394" 
d="M349 372q-48 54 -122 54q-50 0 -81.5 -50.5t-34.5 -134.5h177v-32h-177q3 -84 34.5 -134.5t81.5 -50.5q39 0 63.5 11.5t50.5 40.5v-32q-46 -52 -114 -52q-82 0 -132 64t-50 169t50 169t132 64q73 0 122 -54v-32z" />
    <glyph glyph-name="afii10023" unicode="&#x401;" horiz-adv-x="584" 
d="M530 0h-440v700h419v-34h-359v-299h292v-34h-292v-299h380v-34zM245 808q0 -14 -10 -24t-24 -10t-23.5 10t-9.5 24t10 23.5t23 9.5q14 0 24 -9.5t10 -23.5zM421 808q0 -14 -10 -24t-24 -10t-23.5 10t-9.5 24t10 23.5t23 9.5q14 0 24 -9.5t10 -23.5z" />
    <glyph glyph-name="afii10051" unicode="&#x402;" horiz-adv-x="587" 
d="M533 -26q0 -55 -27 -95t-72 -40q-80 0 -121 65v23q13 -21 42 -37.5t54 -16.5q31 0 47.5 30t16.5 71v349q0 41 -21.5 71t-55.5 30q-28 0 -62 -16t-53 -37v-371h-60v666h-212v34h484v-34h-212v-272q53 64 138 64q49 0 81.5 -40t32.5 -95v-349z" />
    <glyph glyph-name="afii10052" unicode="&#x403;" horiz-adv-x="554" 
d="M509 666h-359v-666h-60v700h419v-34zM419 880q-56 -84 -140 -144h-32q62 60 106 144h66z" />
    <glyph glyph-name="afii10053" unicode="&#x404;" horiz-adv-x="565" 
d="M538 553q-32 56 -88 88.5t-121 32.5q-196 0 -201 -307h306v-34h-306q5 -307 201 -307q106 0 195 57v-34q-89 -57 -195 -57q-136 0 -205.5 98.5t-69.5 259.5t69.5 259.5t205.5 98.5q64 0 119.5 -31t89.5 -84v-40z" />
    <glyph glyph-name="afii10054" unicode="&#x405;" horiz-adv-x="571" 
d="M517 198q0 -90 -68.5 -151t-163.5 -61q-123 0 -231 73v29q101 -68 231 -68q71 0 122.5 47.5t51.5 115.5q0 105 -185 160q-212 63 -212 187q0 80 66.5 132t156.5 52q111 0 203 -73v-29q-88 68 -203 68q-67 0 -116 -38t-49 -97q0 -23 11.5 -42.5t25.5 -31t43 -24.5t45 -18
l51 -16q95 -28 158 -82.5t63 -132.5z" />
    <glyph glyph-name="afii10055" unicode="&#x406;" horiz-adv-x="240" 
d="M150 0h-60v700h60v-700z" />
    <glyph glyph-name="afii10056" unicode="&#x407;" horiz-adv-x="240" 
d="M150 0h-60v700h60v-700zM65 808q0 -14 -10 -24t-24 -10t-23.5 10t-9.5 24t10 23.5t23 9.5q14 0 24 -9.5t10 -23.5zM241 808q0 -14 -10 -24t-24 -10t-23.5 10t-9.5 24t10 23.5t23 9.5q14 0 24 -9.5t10 -23.5z" />
    <glyph glyph-name="afii10057" unicode="&#x408;" horiz-adv-x="297" 
d="M207 57q0 -55 -23.5 -95t-65.5 -40q-61 0 -109 39v23q15 -11 39.5 -19.5t43.5 -8.5q29 0 42 29.5t13 71.5v643h60v-643z" />
    <glyph glyph-name="afii10058" unicode="&#x409;" horiz-adv-x="940" 
d="M886 186q0 -96 -70 -145t-184 -49l-150 8h-58v666h-262v-213q0 -246 -123 -461l-30 17q119 214 119 458v233h356v-316h114q117 0 202.5 -53t85.5 -145zM812 186q0 73 -64 118.5t-150 45.5h-114v-316q78 -8 148 -8q73 0 126.5 46t53.5 114z" />
    <glyph glyph-name="afii10059" unicode="&#x40a;" horiz-adv-x="1030" 
d="M976 186q0 -96 -70 -145t-184 -49l-150 8h-58v333h-364v-333h-60v700h60v-333h364v333h60v-316h114q117 0 202.5 -53t85.5 -145zM902 186q0 73 -64 118.5t-150 45.5h-114v-316q78 -8 148 -8q73 0 126.5 46t53.5 114z" />
    <glyph glyph-name="afii10060" unicode="&#x40b;" horiz-adv-x="587" 
d="M533 0h-60v323q0 41 -21.5 71t-55.5 30q-28 0 -62 -16t-53 -37v-371h-60v666h-212v34h484v-34h-212v-272q53 64 138 64q49 0 81.5 -40t32.5 -95v-323z" />
    <glyph glyph-name="afii10061" unicode="&#x40c;" horiz-adv-x="616" 
d="M607 0h-88l-369 344v-344h-60v700h60v-294l384 294h56l-403 -308zM480 880q-56 -84 -140 -144h-32q62 60 106 144h66z" />
    <glyph glyph-name="afii10062" unicode="&#x40e;" horiz-adv-x="580" 
d="M490 172q0 -73 -49 -126.5t-120 -53.5q-109 0 -207 49v23q37 -16 92.5 -27t96.5 -11q54 0 90.5 43.5t36.5 102.5v202q-98 -49 -207 -49q-71 0 -120 53t-49 127v195h60v-195q0 -59 36.5 -102.5t90.5 -43.5q40 0 95 11t94 26v304h60v-528zM391 876q0 -55 -34 -95.5
t-85 -40.5t-85 40.5t-34 95.5h34q0 -47 23.5 -81t61.5 -34t61.5 34t23.5 81h34z" />
    <glyph glyph-name="afii10145" unicode="&#x40f;" horiz-adv-x="664" 
d="M574 0h-225v-153h-34v153h-225v700h60v-666h364v666h60v-700z" />
    <glyph glyph-name="afii10017" unicode="&#x410;" horiz-adv-x="546" 
d="M537 0h-63l-81 245h-266l-82 -245h-36l234 700h63zM382 279l-121 367l-123 -367h244z" />
    <glyph glyph-name="afii10018" unicode="&#x411;" horiz-adv-x="606" 
d="M552 186q0 -96 -70 -145t-184 -49l-150 8h-58v700h388v-34h-328v-282h114q117 0 202.5 -53t85.5 -145zM478 186q0 73 -64 118.5t-150 45.5h-114v-316q78 -8 148 -8q73 0 126.5 46t53.5 114z" />
    <glyph glyph-name="afii10019" unicode="&#x412;" horiz-adv-x="606" 
d="M552 186q0 -96 -70 -145t-184 -49l-150 8h-58v700h58q80 8 150 8q98 0 157.5 -44.5t59.5 -129.5q0 -63 -33.5 -104t-93.5 -58q77 -17 120.5 -64t43.5 -122zM455 534q0 60 -46.5 100t-110.5 40q-70 0 -148 -8v-291l75 1q94 0 162 42t68 116zM478 186q0 73 -64 118.5
t-150 45.5h-114v-316q78 -8 148 -8q73 0 126.5 46t53.5 114z" />
    <glyph glyph-name="afii10020" unicode="&#x413;" horiz-adv-x="554" 
d="M509 666h-359v-666h-60v700h419v-34z" />
    <glyph glyph-name="afii10021" unicode="&#x414;" horiz-adv-x="566" 
d="M512 -153h-34v153h-417v-153h-34v187h31q90 326 90 666h333v-666h31v-187zM421 34v632h-239q0 -323 -89 -632h328z" />
    <glyph glyph-name="afii10022" unicode="&#x415;" horiz-adv-x="584" 
d="M530 0h-440v700h419v-34h-359v-299h292v-34h-292v-299h380v-34z" />
    <glyph glyph-name="afii10024" unicode="&#x416;" horiz-adv-x="790" 
d="M736 0h-60l-63 266q-6 24 -23.5 38.5t-49 20t-53.5 7t-62 1.5v-333h-60v333q-40 0 -62 -1.5t-53.5 -7t-49 -20t-23.5 -38.5l-63 -266h-60l77 277q21 74 140 87q-25 20 -39 45l-156 291h58l155 -300q17 -33 76 -33v333h60v-333q59 0 76 33l155 300h58l-156 -291
q-14 -25 -39 -45q119 -13 140 -87z" />
    <glyph glyph-name="afii10025" unicode="&#x417;" horiz-adv-x="482" 
d="M428 193q0 -83 -55 -142t-132 -59q-99 0 -187 47v32q87 -45 187 -45q47 0 80 49t33 118q0 94 -39.5 131.5t-135.5 37.5v27q91 0 129 34t38 120q0 58 -32 94.5t-84 36.5q-92 0 -168 -45v32q77 47 168 47q79 0 127.5 -45.5t48.5 -119.5q0 -59 -30.5 -100.5t-84.5 -56.5
q60 -18 98.5 -71.5t38.5 -121.5z" />
    <glyph glyph-name="afii10026" unicode="&#x418;" horiz-adv-x="697" 
d="M607 0h-34v607l-443 -607h-40v700h34v-607l442 607h41v-700z" />
    <glyph glyph-name="afii10027" unicode="&#x419;" horiz-adv-x="697" 
d="M607 0h-34v607l-443 -607h-40v700h34v-607l442 607h41v-700zM467 876q0 -55 -34 -95.5t-85 -40.5t-85 40.5t-34 95.5h34q0 -47 23.5 -81t61.5 -34t61.5 34t23.5 81h34z" />
    <glyph glyph-name="afii10028" unicode="&#x41a;" horiz-adv-x="616" 
d="M607 0h-88l-369 344v-344h-60v700h60v-294l384 294h56l-403 -308z" />
    <glyph glyph-name="afii10029" unicode="&#x41b;" horiz-adv-x="574" 
d="M484 0h-60v666h-262v-213q0 -246 -123 -461l-30 17q119 214 119 458v233h356v-700z" />
    <glyph glyph-name="afii10030" unicode="&#x41c;" horiz-adv-x="790" 
d="M736 0h-60l-30 595l-247 -595h-36l-245 591l-30 -591h-34l35 700h48l258 -620l258 620h48z" />
    <glyph glyph-name="afii10031" unicode="&#x41d;" horiz-adv-x="664" 
d="M574 0h-60v333h-364v-333h-60v700h60v-333h364v333h60v-700z" />
    <glyph glyph-name="afii10032" unicode="&#x41e;" horiz-adv-x="658" 
d="M604 350q0 -161 -69.5 -259.5t-205.5 -98.5t-205.5 98.5t-69.5 259.5t69.5 259.5t205.5 98.5t205.5 -98.5t69.5 -259.5zM530 350q0 324 -201 324t-201 -324t201 -324t201 324z" />
    <glyph glyph-name="afii10033" unicode="&#x41f;" horiz-adv-x="664" 
d="M574 0h-60v666h-364v-666h-60v700h484v-700z" />
    <glyph glyph-name="afii10034" unicode="&#x420;" horiz-adv-x="606" 
d="M552 514q0 -95 -66.5 -145t-175.5 -50q-78 0 -160 14v-333h-60v700h58q86 8 162 8q109 0 175.5 -50t66.5 -144zM478 514q0 67 -49.5 113.5t-118.5 46.5q-75 0 -160 -8v-299q82 -14 160 -14q69 0 118.5 47t49.5 114z" />
    <glyph glyph-name="afii10035" unicode="&#x421;" horiz-adv-x="565" 
d="M538 553q-32 56 -88 88.5t-121 32.5q-201 0 -201 -324t201 -324q106 0 195 57v-34q-89 -57 -195 -57q-136 0 -205.5 98.5t-69.5 259.5t69.5 259.5t205.5 98.5q64 0 119.5 -31t89.5 -84v-40z" />
    <glyph glyph-name="afii10036" unicode="&#x422;" horiz-adv-x="520" 
d="M502 666h-212v-666h-60v666h-212v34h484v-34z" />
    <glyph glyph-name="afii10037" unicode="&#x423;" horiz-adv-x="580" 
d="M490 172q0 -73 -49 -126.5t-120 -53.5q-109 0 -207 49v23q37 -16 92.5 -27t96.5 -11q54 0 90.5 43.5t36.5 102.5v202q-98 -49 -207 -49q-71 0 -120 53t-49 127v195h60v-195q0 -59 36.5 -102.5t90.5 -43.5q40 0 95 11t94 26v304h60v-528z" />
    <glyph glyph-name="afii10038" unicode="&#x424;" horiz-adv-x="630" 
d="M576 350q0 -134 -58.5 -215.5t-172.5 -82.5v-52h-60v52q-114 1 -172.5 82.5t-58.5 215.5t58.5 215.5t172.5 82.5v52h60v-52q114 -1 172.5 -82.5t58.5 -215.5zM285 86v528q-157 -1 -157 -264t157 -264zM502 350q0 263 -157 264v-528q157 1 157 264z" />
    <glyph glyph-name="afii10039" unicode="&#x425;" horiz-adv-x="571" 
d="M544 0h-70l-198 325l-209 -325h-40l229 358l-208 342h70l178 -292l187 292h40l-208 -324z" />
    <glyph glyph-name="afii10040" unicode="&#x426;" horiz-adv-x="664" 
d="M605 -153h-34v153h-481v700h60v-666h364v666h60v-666h31v-187z" />
    <glyph glyph-name="afii10041" unicode="&#x427;" horiz-adv-x="580" 
d="M490 0h-60v373q-99 -48 -207 -48q-71 0 -120 53t-49 127v195h60v-195q0 -59 36.5 -102.5t90.5 -43.5q40 0 95 11t94 26v304h60v-700z" />
    <glyph glyph-name="afii10042" unicode="&#x428;" horiz-adv-x="862" 
d="M772 0h-682v700h60v-666h251v666h60v-666h251v666h60v-700z" />
    <glyph glyph-name="afii10043" unicode="&#x429;" horiz-adv-x="862" 
d="M803 -153h-34v153h-679v700h60v-666h251v666h60v-666h251v666h60v-666h31v-187z" />
    <glyph glyph-name="afii10044" unicode="&#x42a;" horiz-adv-x="660" 
d="M606 186q0 -96 -70 -145t-184 -49l-150 8h-58v666h-135v34h195v-316h114q117 0 202.5 -53t85.5 -145zM532 186q0 73 -64 118.5t-150 45.5h-114v-316q78 -8 148 -8q73 0 126.5 46t53.5 114z" />
    <glyph glyph-name="afii10045" unicode="&#x42b;" horiz-adv-x="837" 
d="M552 186q0 -96 -70 -145t-184 -49l-150 8h-58v700h60v-316h114q117 0 202.5 -53t85.5 -145zM747 0h-60v700h60v-700zM478 186q0 73 -64 118.5t-150 45.5h-114v-316q78 -8 148 -8q73 0 126.5 46t53.5 114z" />
    <glyph glyph-name="afii10046" unicode="&#x42c;" horiz-adv-x="606" 
d="M552 186q0 -96 -70 -145t-184 -49l-150 8h-58v700h60v-316h114q117 0 202.5 -53t85.5 -145zM478 186q0 73 -64 118.5t-150 45.5h-114v-316q78 -8 148 -8q73 0 126.5 46t53.5 114z" />
    <glyph glyph-name="afii10047" unicode="&#x42d;" horiz-adv-x="565" 
d="M511 350q0 -161 -69.5 -259.5t-205.5 -98.5q-106 0 -195 57v34q89 -57 195 -57q196 0 201 307h-305v34h305q-5 307 -201 307q-65 0 -121 -32.5t-88 -88.5v40q34 53 89.5 84t119.5 31q136 0 205.5 -98.5t69.5 -259.5z" />
    <glyph glyph-name="afii10048" unicode="&#x42e;" horiz-adv-x="826" 
d="M772 350q0 -161 -69.5 -259.5t-205.5 -98.5q-132 0 -201.5 93.5t-73.5 247.5h-72v-333h-60v700h60v-333h72q4 154 73.5 247.5t201.5 93.5q136 0 205.5 -98.5t69.5 -259.5zM698 350q0 324 -201 324t-201 -324t201 -324t201 324z" />
    <glyph glyph-name="afii10049" unicode="&#x42f;" horiz-adv-x="582" 
d="M492 0h-60v333q-82 -14 -160 -14l-193 -319h-70l197 325q-82 14 -129 62t-47 127q0 94 66.5 144t175.5 50q76 0 162 -8h58v-700zM432 666q-85 8 -160 8q-69 0 -118.5 -46.5t-49.5 -113.5t49.5 -114t118.5 -47q78 0 160 14v299z" />
    <glyph glyph-name="afii10065" unicode="&#x430;" horiz-adv-x="450" 
d="M378 0h-58v40q-62 -48 -125 -48q-70 0 -112 39.5t-42 107.5q0 70 46 109t122 39q57 0 111 -23v14q0 60 -22.5 103t-66.5 43q-66 0 -134 -38v23q77 49 155 49q58 0 92 -53.5t34 -126.5v-278zM320 232q-52 23 -106 23q-45 0 -76 -34t-31 -82q0 -52 28.5 -83.5t78.5 -31.5
q53 0 106 48v160z" />
    <glyph glyph-name="afii10066" unicode="&#x431;" horiz-adv-x="455" 
d="M405 225q0 -113 -43 -173t-125 -60t-125.5 60t-43.5 173q0 227 1 243q6 145 56 194q38 38 112 38q104 0 104 14h32q0 -11 -4 -19.5t-13 -13.5t-16.5 -8t-23.5 -4l-24.5 -1.5t-28 0t-26.5 0.5q-48 0 -78 -23t-41 -62t-15 -90t0 -107q43 72 134 72q82 0 125 -60t43 -173z
M339 225q0 98 -26 149.5t-76 51.5q-103 0 -103 -201t103 -201q50 0 76 51.5t26 149.5z" />
    <glyph glyph-name="afii10067" unicode="&#x432;" horiz-adv-x="454" 
d="M409 123q0 -64 -46.5 -97.5t-121.5 -33.5l-113 8h-56v450h56q51 8 96 8q68 0 110 -26.5t42 -81.5q0 -78 -82 -100q115 -24 115 -127zM318 350q0 33 -28 54.5t-66 21.5q-44 0 -94 -8v-169h54q54 0 94 28t40 73zM343 123q0 45 -39 73.5t-92 28.5h-82v-193q59 -8 111 -8
q42 0 72 29t30 70z" />
    <glyph glyph-name="afii10068" unicode="&#x433;" horiz-adv-x="333" 
d="M288 418h-158v-418h-58v450h216v-32z" />
    <glyph glyph-name="afii10069" unicode="&#x434;" horiz-adv-x="470" 
d="M416 -153h-32v153h-307v-153h-32v185h29q64 206 64 418h249v-418h29v-185zM329 32v386h-159q0 -197 -62 -386h221z" />
    <glyph glyph-name="afii10070" unicode="&#x435;" horiz-adv-x="432" 
d="M387 217h-271q0 -43 4 -74t14 -59.5t31.5 -43t53.5 -14.5q70 0 122 48v-32q-52 -50 -122 -50q-76 0 -122.5 64t-46.5 169t46.5 169t122.5 64t122 -64t46 -169v-8zM321 249q0 74 -25 125.5t-77 51.5q-53 0 -78 -51.5t-25 -125.5h205z" />
    <glyph glyph-name="afii10072" unicode="&#x436;" horiz-adv-x="512" 
d="M485 0h-58l-36 167q-3 15 -13 24t-27.5 12.5t-30.5 4.5t-35 1v-209h-58v209q-22 0 -35.5 -1t-31 -4.5t-27 -12.5t-12.5 -24l-36 -167h-58l50 177q14 52 95 61q-12 13 -22 32l-101 180h37l95 -188q11 -21 46 -21v209h58v-209q35 0 46 21l94 188h38l-101 -180
q-8 -14 -22 -32q79 -9 95 -61z" />
    <glyph glyph-name="afii10073" unicode="&#x437;" horiz-adv-x="407" 
d="M353 124q0 -55 -43.5 -93.5t-105.5 -38.5q-83 0 -150 47v32q67 -47 150 -47q34 0 58.5 29.5t24.5 70.5q0 45 -39.5 72.5t-93.5 27.5v28q67 0 95 20t28 77q0 35 -22.5 56t-59.5 21q-75 0 -133 -47v32q58 47 133 47q63 0 101.5 -30t38.5 -79q0 -36 -21.5 -63t-59.5 -38
q44 -14 71.5 -48t27.5 -76z" />
    <glyph glyph-name="afii10074" unicode="&#x438;" horiz-adv-x="428" 
d="M356 0h-32l-1 347l-215 -347h-36v450h32v-347l215 347h36z" />
    <glyph glyph-name="afii10075" unicode="&#x439;" horiz-adv-x="428" 
d="M356 0h-32l-1 347l-215 -347h-36v450h32v-347l215 347h36zM333 682q0 -64 -33 -111t-86 -47t-86 47t-33 111h34q0 -56 22 -96.5t63 -40.5t63 40.5t22 96.5h34z" />
    <glyph glyph-name="afii10076" unicode="&#x43a;" horiz-adv-x="452" 
d="M434 0h-79l-225 240v-240h-58v450h58v-205l238 205h49l-224 -193z" />
    <glyph glyph-name="afii10077" unicode="&#x43b;" horiz-adv-x="427" 
d="M355 0h-58v418h-163v-126q0 -163 -89 -301l-27 17q84 133 84 292v150h253v-450z" />
    <glyph glyph-name="afii10078" unicode="&#x43c;" horiz-adv-x="508" 
d="M454 0h-58l-15 337l-121 -337h-40l-119 333l-15 -333h-32l20 450h46l134 -373l134 373h46z" />
    <glyph glyph-name="afii10079" unicode="&#x43d;" horiz-adv-x="430" 
d="M358 0h-58v209h-170v-209h-58v450h58v-209h170v209h58v-450z" />
    <glyph glyph-name="afii10080" unicode="&#x43e;" horiz-adv-x="436" 
d="M387 225q0 -113 -43 -173t-125 -60t-125.5 60t-43.5 173t43.5 173t125.5 60t125 -60t43 -173zM321 225q0 98 -26 149.5t-76 51.5q-103 0 -103 -201t103 -201q50 0 76 51.5t26 149.5z" />
    <glyph glyph-name="afii10081" unicode="&#x43f;" horiz-adv-x="430" 
d="M358 0h-58v418h-170v-418h-58v450h286v-450z" />
    <glyph glyph-name="afii10082" unicode="&#x440;" horiz-adv-x="454" 
d="M405 225q0 -105 -41.5 -169t-126.5 -64q-57 0 -111 23v-245h-58v680h58v-40q62 48 125 48q81 0 117.5 -63.5t36.5 -169.5zM339 225q0 45 -4 77.5t-14.5 62.5t-32.5 45.5t-56 15.5q-53 0 -106 -48v-331q52 -23 106 -23q40 0 65 31.5t33.5 73.5t8.5 96z" />
    <glyph glyph-name="afii10083" unicode="&#x441;" horiz-adv-x="376" 
d="M354 372q-48 54 -122 54q-52 0 -84 -55.5t-32 -145.5t32 -145.5t84 -55.5q39 0 63.5 11.5t50.5 40.5v-32q-46 -52 -114 -52q-82 0 -132 64t-50 169t50 169t132 64q73 0 122 -54v-32z" />
    <glyph glyph-name="afii10084" unicode="&#x442;" horiz-adv-x="313" 
d="M286 418h-100v-418h-58v418h-101v32h259v-32z" />
    <glyph glyph-name="afii10085" unicode="&#x443;" horiz-adv-x="455" 
d="M383 -58q0 -73 -32.5 -126.5t-89.5 -53.5q-75 0 -149 37v22q62 -25 128 -25q43 0 64 42.5t21 103.5v114q-71 -64 -141 -64q-50 0 -83 40t-33 95v323h58v-323q0 -41 22.5 -71t57.5 -30q59 0 119 53v371h58v-508z" />
    <glyph glyph-name="afii10086" unicode="&#x444;" horiz-adv-x="640" 
d="M595 225q0 -108 -67 -170.5t-179 -62.5v-145h-58v145q-112 0 -179 62.5t-67 170.5t67 170.5t179 62.5v145h58v-145q112 0 179 -62.5t67 -170.5zM291 426q-85 0 -132.5 -55t-47.5 -146t47.5 -146t132.5 -55v402zM529 225q0 91 -47.5 146t-132.5 55v-402q85 0 132.5 55
t47.5 146z" />
    <glyph glyph-name="afii10087" unicode="&#x445;" horiz-adv-x="373" 
d="M355 0h-61l-114 192l-124 -192h-38l144 222l-136 228h61l108 -182l118 182h38l-137 -213z" />
    <glyph glyph-name="afii10088" unicode="&#x446;" horiz-adv-x="405" 
d="M387 -153h-32v153h-283v450h58v-418h170v418h58v-418h29v-185z" />
    <glyph glyph-name="afii10089" unicode="&#x447;" horiz-adv-x="421" 
d="M349 0h-58v233q-62 -48 -125 -48q-53 0 -78 52.5t-25 127.5v85h58v-85q0 -146 69 -146q51 0 101 37v194h58v-450z" />
    <glyph glyph-name="afii10090" unicode="&#x448;" horiz-adv-x="659" 
d="M587 0h-515v450h58v-418h170v418h58v-418h171v418h58v-450z" />
    <glyph glyph-name="afii10091" unicode="&#x449;" horiz-adv-x="634" 
d="M616 -153h-32v153h-512v450h58v-418h170v418h58v-418h171v418h58v-418h29v-185z" />
    <glyph glyph-name="afii10092" unicode="&#x44a;" horiz-adv-x="432" 
d="M378 123q0 -61 -37 -96t-99 -35q-36 0 -78 8h-56v418h-90v32h148v-201h37q34 0 52.5 -1t45 -8t40.5 -21q37 -35 37 -96zM312 123q0 41 -25.5 71.5t-63.5 30.5h-57v-193q40 -8 76 -8q32 0 51 29.5t19 69.5z" />
    <glyph glyph-name="afii10093" unicode="&#x44b;" horiz-adv-x="544" 
d="M342 123q0 -61 -37 -96t-99 -35q-36 0 -78 8h-56v450h58v-201h37q34 0 52.5 -1t45 -8t40.5 -21q37 -35 37 -96zM472 0h-58v450h58v-450zM276 123q0 41 -25.5 71.5t-63.5 30.5h-57v-193q40 -8 76 -8q32 0 51 29.5t19 69.5z" />
    <glyph glyph-name="afii10094" unicode="&#x44c;" horiz-adv-x="387" 
d="M342 123q0 -61 -37 -96t-99 -35q-36 0 -78 8h-56v450h58v-201h37q34 0 52.5 -1t45 -8t40.5 -21q37 -35 37 -96zM276 123q0 41 -25.5 71.5t-63.5 30.5h-57v-193q40 -8 76 -8q32 0 51 29.5t19 69.5z" />
    <glyph glyph-name="afii10095" unicode="&#x44d;" horiz-adv-x="412" 
d="M358 225q0 -105 -50 -169t-132 -64q-68 0 -114 52v32q26 -29 50.5 -40.5t63.5 -11.5q50 0 81.5 50.5t34.5 134.5h-177v32h177q-3 84 -34.5 134.5t-81.5 50.5q-74 0 -122 -54v32q49 54 122 54q82 0 132 -64t50 -169z" />
    <glyph glyph-name="afii10096" unicode="&#x44e;" horiz-adv-x="603" 
d="M549 225q0 -113 -43 -173t-125 -60q-79 0 -122.5 55.5t-46.5 161.5h-82v-209h-58v450h58v-209h82q3 106 46.5 161.5t122.5 55.5q82 0 125 -60t43 -173zM483 225q0 98 -26 149.5t-76 51.5q-103 0 -103 -201t103 -201q50 0 76 51.5t26 149.5z" />
    <glyph glyph-name="afii10097" unicode="&#x44f;" horiz-adv-x="441" 
d="M369 0h-58v203q-55 -7 -116 -7l-103 -196h-65l107 204q-89 30 -89 123q0 62 41 96.5t109 34.5q56 0 118 -8h56v-450zM311 235v183q-62 8 -116 8q-36 0 -60 -29.5t-24 -69.5t24 -69.5t60 -29.5q61 0 116 7z" />
    <glyph glyph-name="afii10071" unicode="&#x451;" horiz-adv-x="432" 
d="M387 217h-271q0 -43 4 -74t14 -59.5t31.5 -43t53.5 -14.5q70 0 122 48v-32q-52 -50 -122 -50q-76 0 -122.5 64t-46.5 169t46.5 169t122.5 64t122 -64t46 -169v-8zM321 249q0 74 -25 125.5t-77 51.5q-53 0 -78 -51.5t-25 -125.5h205zM173 603q0 -14 -10 -24t-24 -10
t-23.5 10t-9.5 24q0 13 10 23t23 10q14 0 24 -9.5t10 -23.5zM331 603q0 -14 -10 -24t-24 -10t-23.5 10t-9.5 24q0 13 10 23t23 10q14 0 24 -9.5t10 -23.5z" />
    <glyph glyph-name="afii10099" unicode="&#x452;" horiz-adv-x="518" 
d="M450 -26q0 -55 -31 -95t-79 -40q-68 0 -135 65v22q57 -53 112 -53q34 0 54.5 30t20.5 71v349q0 41 -22.5 71t-57.5 30q-59 0 -119 -53v-371h-58v559h-63v32h63v109h58v-109h99v-32h-99v-165q71 64 141 64q50 0 83 -40t33 -95v-349z" />
    <glyph glyph-name="afii10100" unicode="&#x453;" horiz-adv-x="333" 
d="M288 418h-158v-418h-58v450h216v-32zM280 700q0 -95 -100 -195h-32q66 86 66 195h66z" />
    <glyph glyph-name="afii10101" unicode="&#x454;" horiz-adv-x="412" 
d="M358 372q-48 54 -122 54q-50 0 -81.5 -50.5t-34.5 -134.5h177v-32h-177q3 -84 34.5 -134.5t81.5 -50.5q39 0 63.5 11.5t50.5 40.5v-32q-46 -52 -114 -52q-82 0 -132 64t-50 169t50 169t132 64q73 0 122 -54v-32z" />
    <glyph glyph-name="afii10102" unicode="&#x455;" horiz-adv-x="376" 
d="M336 124q0 -57 -45 -94.5t-107 -37.5q-82 0 -152 41v32q70 -41 152 -41q39 0 67.5 24.5t28.5 60.5q0 66 -104 100q-63 22 -100.5 49t-37.5 72q0 55 43 91.5t103 36.5q73 0 131 -41v-32q-58 41 -131 41q-37 0 -63.5 -23t-26.5 -57q0 -54 98 -87q144 -49 144 -135z" />
    <glyph glyph-name="afii10103" unicode="&#x456;" horiz-adv-x="251" 
d="M233 31q-46 -39 -91 -39q-39 0 -56.5 39t-17.5 96v323h58v-323q0 -22 1 -36.5t5 -31t13 -25t24 -8.5q33 0 64 28v-23zM134 603q0 -15 -11 -26t-26 -11t-26 11t-11 26t11 26t26 11t26 -11t11 -26z" />
    <glyph glyph-name="afii10104" unicode="&#x457;" horiz-adv-x="251" 
d="M233 31q-46 -39 -91 -39q-39 0 -56.5 39t-17.5 96v323h58v-323q0 -22 1 -36.5t5 -31t13 -25t24 -8.5q33 0 64 28v-23zM51 603q0 -14 -10 -24t-24 -10t-23.5 10t-9.5 24q0 13 10 23t23 10q14 0 24 -9.5t10 -23.5zM209 603q0 -14 -10 -24t-24 -10t-23.5 10t-9.5 24
q0 13 10 23t23 10q14 0 24 -9.5t10 -23.5z" />
    <glyph glyph-name="afii10105" unicode="&#x458;" horiz-adv-x="202" 
d="M130 -103q0 -135 -69 -135q-42 0 -84 37v22q29 -25 57 -25q14 0 22 8t11.5 26t4 30.5t0.5 36.5v553h58v-553zM138 603q0 -15 -11 -26t-26 -11t-26 11t-11 26t11 26t26 11t26 -11t11 -26z" />
    <glyph glyph-name="afii10106" unicode="&#x459;" horiz-adv-x="610" 
d="M565 123q0 -61 -37 -96t-99 -35q-36 0 -78 8h-54v418h-163v-126q0 -163 -89 -301l-27 17q84 133 84 292v150h253l-2 -201h37q34 0 52.5 -1t45 -8t40.5 -21q37 -35 37 -96zM499 123q0 41 -25.5 71.5t-63.5 30.5h-57v-193q40 -8 76 -8q32 0 51 29.5t19 69.5z" />
    <glyph glyph-name="afii10107" unicode="&#x45a;" horiz-adv-x="615" 
d="M570 123q0 -60 -36.5 -95.5t-98.5 -35.5q-37 0 -79 8h-56v209h-170v-209h-58v450h58v-209h170v209h58v-201h38q34 0 52.5 -1t44.5 -8t40 -21q37 -34 37 -96zM504 123q0 41 -25.5 71.5t-63.5 30.5h-57v-193q42 -8 77 -8q32 0 50.5 29.5t18.5 69.5z" />
    <glyph glyph-name="afii10108" unicode="&#x45b;" horiz-adv-x="459" 
d="M387 0h-58v323q0 41 -22.5 71t-57.5 30q-59 0 -119 -53v-371h-58v559h-63v32h63v109h58v-109h99v-32h-99v-165q71 64 141 64q50 0 83 -40t33 -95v-323z" />
    <glyph glyph-name="afii10109" unicode="&#x45c;" horiz-adv-x="452" 
d="M434 0h-79l-225 240v-240h-58v450h58v-205l238 205h49l-224 -193zM344 700q0 -95 -100 -195h-32q66 86 66 195h66z" />
    <glyph glyph-name="afii10110" unicode="&#x45e;" horiz-adv-x="455" 
d="M383 -58q0 -73 -32.5 -126.5t-89.5 -53.5q-75 0 -149 37v22q62 -25 128 -25q43 0 64 42.5t21 103.5v114q-71 -64 -141 -64q-50 0 -83 40t-33 95v323h58v-323q0 -41 22.5 -71t57.5 -30q59 0 119 53v371h58v-508zM345 682q0 -64 -33 -111t-86 -47t-86 47t-33 111h34
q0 -56 22 -96.5t63 -40.5t63 40.5t22 96.5h34z" />
    <glyph glyph-name="afii10193" unicode="&#x45f;" horiz-adv-x="430" 
d="M358 0h-127v-153h-32v153h-127v450h58v-418h170v418h58v-450z" />
    <glyph glyph-name="afii10146" unicode="&#x462;" horiz-adv-x="615" 
d="M561 186q0 -96 -70 -145t-184 -49l-150 8h-58v525h-90v34h90v141h60v-141h180v-34h-180v-141h114q117 0 202.5 -53t85.5 -145zM487 186q0 73 -64 118.5t-150 45.5h-114v-316q78 -8 148 -8q73 0 126.5 46t53.5 114z" />
    <glyph glyph-name="afii10147" unicode="&#x472;" horiz-adv-x="784" 
d="M757 333h-90q-4 -154 -73.5 -247.5t-201.5 -93.5t-201.5 93.5t-73.5 247.5h-90v34h90q4 154 73.5 247.5t201.5 93.5t201.5 -93.5t73.5 -247.5h90v-34zM593 367q-5 307 -201 307t-201 -307h402zM593 333h-402q5 -307 201 -307t201 307z" />
    <glyph glyph-name="afii10148" unicode="&#x474;" horiz-adv-x="604" 
d="M577 656q-39 0 -144 -306l-122 -350h-40l-244 700h64l214 -615l107 308q14 42 24.5 70.5l26.5 70.5t29 70t28 55t29.5 41t27.5 14v-58z" />
    <glyph glyph-name="afii10050" unicode="&#x490;" horiz-adv-x="554" 
d="M509 666h-359v-666h-60v700h385v70h34v-104z" />
    <glyph glyph-name="afii10098" unicode="&#x491;" horiz-adv-x="333" 
d="M288 418h-158v-418h-58v450h184v48h32v-80z" />
    <glyph glyph-name="afii10846" unicode="&#x4d9;" horiz-adv-x="436" 
d="M387 225q0 -105 -46 -169t-122 -64t-122.5 64t-46.5 169v8h271q0 91 -21 141t-81 50q-71 0 -123 -48v32q52 50 123 50q76 0 122 -64t46 -169zM321 201h-205q0 -74 25 -125.5t78 -51.5q52 0 77 51.5t25 125.5z" />
    <glyph glyph-name="Ddotbelow" unicode="&#x1e0c;" horiz-adv-x="661" 
d="M607 350q0 -161 -73 -259.5t-211 -98.5q-82 0 -175 8h-58v700h58q93 8 175 8q138 0 211 -98.5t73 -259.5zM533 350q0 84 -22 155.5t-71 120t-117 48.5q-82 0 -173 -8v-632q91 -8 173 -8q68 0 117 48.5t71 120t22 155.5zM357 -115q0 -14 -10 -23.5t-24 -9.5q-13 0 -23 10
t-10 23q0 14 9.5 24t23.5 10t24 -10t10 -24z" />
    <glyph glyph-name="ddotbelow" unicode="&#x1e0d;" horiz-adv-x="459" 
d="M387 0h-58v40q-62 -48 -125 -48q-81 0 -117.5 63.5t-36.5 169.5q0 105 41.5 169t126.5 64q57 0 111 -23v265h58v-700zM329 403q-52 23 -106 23q-40 0 -65 -31.5t-33.5 -73.5t-8.5 -96q0 -45 4 -77.5t14.5 -62.5t32.5 -45.5t56 -15.5q53 0 106 48v331zM264 -115
q0 -14 -10 -23.5t-24 -9.5t-23.5 10t-9.5 23q0 14 9.5 24t23.5 10t24 -10t10 -24z" />
    <glyph glyph-name="Dlinebelow" unicode="&#x1e0e;" horiz-adv-x="661" 
d="M607 350q0 -161 -73 -259.5t-211 -98.5q-82 0 -175 8h-58v700h58q93 8 175 8q138 0 211 -98.5t73 -259.5zM533 350q0 84 -22 155.5t-71 120t-117 48.5q-82 0 -173 -8v-632q91 -8 173 -8q68 0 117 48.5t71 120t22 155.5zM433 -131h-220v32h220v-32z" />
    <glyph glyph-name="dlinebelow" unicode="&#x1e0f;" horiz-adv-x="459" 
d="M387 0h-58v40q-62 -48 -125 -48q-81 0 -117.5 63.5t-36.5 169.5q0 105 41.5 169t126.5 64q57 0 111 -23v265h58v-700zM329 403q-52 23 -106 23q-40 0 -65 -31.5t-33.5 -73.5t-8.5 -96q0 -45 4 -77.5t14.5 -62.5t32.5 -45.5t56 -15.5q53 0 106 48v331zM340 -131h-220v32
h220v-32z" />
    <glyph glyph-name="Hdotbelow" unicode="&#x1e24;" horiz-adv-x="664" 
d="M574 0h-60v333h-364v-333h-60v700h60v-333h364v333h60v-700zM367 -115q0 -14 -10 -23.5t-24 -9.5q-13 0 -23 10t-10 23q0 14 9.5 24t23.5 10t24 -10t10 -24z" />
    <glyph glyph-name="hdotbelow" unicode="&#x1e25;" horiz-adv-x="455" 
d="M387 0h-58v323q0 41 -22.5 71t-57.5 30q-59 0 -119 -53v-371h-58v700h58v-306q71 64 141 64q50 0 83 -40t33 -95v-323zM264 -115q0 -14 -10 -23.5t-24 -9.5t-23.5 10t-9.5 23q0 14 9.5 24t23.5 10t24 -10t10 -24z" />
    <glyph glyph-name="Hbrevebelow" unicode="&#x1e2a;" horiz-adv-x="664" 
d="M574 0h-60v333h-364v-333h-60v700h60v-333h364v333h60v-700zM451 -72q0 -64 -33 -111t-86 -47t-86 47t-33 111h29q0 -48 25 -83.5t65 -35.5t65 35.5t25 83.5h29z" />
    <glyph glyph-name="hbrevebelow" unicode="&#x1e2b;" horiz-adv-x="455" 
d="M387 0h-58v323q0 41 -22.5 71t-57.5 30q-59 0 -119 -53v-371h-58v700h58v-306q71 64 141 64q50 0 83 -40t33 -95v-323zM349 -72q0 -64 -33 -111t-86 -47t-86 47t-33 111h29q0 -48 25 -83.5t65 -35.5t65 35.5t25 83.5h29z" />
    <glyph glyph-name="Rdotaccent" unicode="&#x1e58;" horiz-adv-x="573" 
d="M564 0h-70l-193 319q-78 0 -160 14v-333h-60v700h58q86 8 162 8q109 0 175.5 -50t66.5 -144q0 -79 -47 -127t-128 -62zM469 514q0 67 -49.5 113.5t-118.5 46.5q-75 0 -160 -8v-299q82 -14 160 -14q69 0 118.5 47t49.5 114zM360 808q0 -15 -11 -26t-26 -11t-26 11t-11 26
t11 26t26 11t26 -11t11 -26z" />
    <glyph glyph-name="rdotaccent" unicode="&#x1e59;" horiz-adv-x="306" 
d="M288 404q-24 7 -53 7q-53 0 -105 -56v-355h-58v450h58v-63q62 68 126 68q20 0 32 -5v-46zM201 603q0 -15 -11 -26t-26 -11t-26 11t-11 26t11 26t26 11t26 -11t11 -26z" />
    <glyph glyph-name="Sdotbelow" unicode="&#x1e62;" horiz-adv-x="571" 
d="M517 198q0 -90 -68.5 -151t-163.5 -61q-123 0 -231 73v29q101 -68 231 -68q71 0 122.5 47.5t51.5 115.5q0 105 -185 160q-212 63 -212 187q0 80 66.5 132t156.5 52q111 0 203 -73v-29q-88 68 -203 68q-67 0 -116 -38t-49 -97q0 -23 11.5 -42.5t25.5 -31t43 -24.5t45 -18
l51 -16q95 -28 158 -82.5t63 -132.5zM320 -115q0 -14 -10 -23.5t-24 -9.5t-23.5 10t-9.5 23q0 14 9.5 24t23.5 10t24 -10t10 -24z" />
    <glyph glyph-name="sdotbelow" unicode="&#x1e63;" horiz-adv-x="376" 
d="M336 124q0 -57 -45 -94.5t-107 -37.5q-82 0 -152 41v32q70 -41 152 -41q39 0 67.5 24.5t28.5 60.5q0 66 -104 100q-63 22 -100.5 49t-37.5 72q0 55 43 91.5t103 36.5q73 0 131 -41v-32q-58 41 -131 41q-37 0 -63.5 -23t-26.5 -57q0 -54 98 -87q144 -49 144 -135z
M219 -115q0 -14 -10 -23.5t-24 -9.5q-13 0 -23 10t-10 23q0 14 9.5 24t23.5 10t24 -10t10 -24z" />
    <glyph glyph-name="Tdotbelow" unicode="&#x1e6c;" horiz-adv-x="520" 
d="M502 666h-212v-666h-60v666h-212v34h484v-34zM295 -115q0 -14 -10 -23.5t-24 -9.5q-13 0 -23 10t-10 23q0 14 9.5 24t23.5 10t24 -10t10 -24z" />
    <glyph glyph-name="tdotbelow" unicode="&#x1e6d;" horiz-adv-x="270" 
d="M243 31q-41 -39 -83 -39q-67 0 -67 135v291h-66v28q45 0 67 45t22 109h35v-150h92v-32h-92v-291q0 -24 0.5 -36.5t4 -30t11.5 -26t21 -8.5q27 0 55 28v-23zM195 -115q0 -14 -10 -23.5t-24 -9.5q-13 0 -23 10t-10 23q0 14 9.5 24t23.5 10t24 -10t10 -24z" />
    <glyph glyph-name="Tlinebelow" unicode="&#x1e6e;" horiz-adv-x="520" 
d="M502 666h-212v-666h-60v666h-212v34h484v-34zM370 -131h-220v32h220v-32z" />
    <glyph glyph-name="tlinebelow" unicode="&#x1e6f;" horiz-adv-x="270" 
d="M243 31q-41 -39 -83 -39q-67 0 -67 135v291h-66v28q45 0 67 45t22 109h35v-150h92v-32h-92v-291q0 -24 0.5 -36.5t4 -30t11.5 -26t21 -8.5q27 0 55 28v-23zM270 -131h-220v32h220v-32z" />
    <glyph glyph-name="Wgrave" unicode="&#x1e80;" horiz-adv-x="810" 
d="M801 700l-192 -700h-40l-160 586l-160 -586h-40l-191 700h62l163 -595l162 595h35l163 -595l162 595h36zM455 736h-32q-84 60 -140 144h66q44 -84 106 -144z" />
    <glyph glyph-name="wgrave" unicode="&#x1e81;" horiz-adv-x="606" 
d="M588 450l-134 -450h-46l-106 368l-109 -368h-46l-129 450h54l109 -379l112 379h40l109 -379l112 379h34zM335 505h-32q-100 100 -100 195h66q0 -109 66 -195z" />
    <glyph glyph-name="Wacute" unicode="&#x1e82;" horiz-adv-x="810" 
d="M801 700l-192 -700h-40l-160 586l-160 -586h-40l-191 700h62l163 -595l162 595h35l163 -595l162 595h36zM563 880q-56 -84 -140 -144h-32q62 60 106 144h66z" />
    <glyph glyph-name="wacute" unicode="&#x1e83;" horiz-adv-x="606" 
d="M588 450l-134 -450h-46l-106 368l-109 -368h-46l-129 450h54l109 -379l112 379h40l109 -379l112 379h34zM403 700q0 -95 -100 -195h-32q66 86 66 195h66z" />
    <glyph glyph-name="Wdieresis" unicode="&#x1e84;" horiz-adv-x="810" 
d="M801 700l-192 -700h-40l-160 586l-160 -586h-40l-191 700h62l163 -595l162 595h35l163 -595l162 595h36zM368 808q0 -14 -10 -24t-24 -10t-23.5 10t-9.5 24t9.5 23.5t23.5 9.5t24 -9.5t10 -23.5zM544 808q0 -14 -10 -24t-24 -10t-23.5 10t-9.5 24t9.5 23.5t23.5 9.5
t24 -9.5t10 -23.5z" />
    <glyph glyph-name="wdieresis" unicode="&#x1e85;" horiz-adv-x="606" 
d="M588 450l-134 -450h-46l-106 368l-109 -368h-46l-129 450h54l109 -379l112 379h40l109 -379l112 379h34zM257 603q0 -14 -10 -24t-24 -10t-23.5 10t-9.5 24q0 13 10 23t23 10q14 0 24 -9.5t10 -23.5zM415 603q0 -14 -10 -24t-24 -10t-23.5 10t-9.5 24q0 13 10 23t23 10
q14 0 24 -9.5t10 -23.5z" />
    <glyph glyph-name="Adotbelow" unicode="&#x1ea0;" horiz-adv-x="546" 
d="M537 0h-63l-81 245h-266l-82 -245h-36l234 700h63zM382 279l-121 367l-123 -367h244zM309 -115q0 -14 -10 -23.5t-24 -9.5q-13 0 -23 10t-10 23q0 14 9.5 24t23.5 10t24 -10t10 -24z" />
    <glyph glyph-name="adotbelow" unicode="&#x1ea1;" horiz-adv-x="450" 
d="M378 0h-58v40q-62 -48 -125 -48q-70 0 -112 39.5t-42 107.5q0 70 46 109t122 39q57 0 111 -23v14q0 60 -22.5 103t-66.5 43q-66 0 -134 -38v23q77 49 155 49q58 0 92 -53.5t34 -126.5v-278zM320 232q-52 23 -106 23q-45 0 -76 -34t-31 -82q0 -52 28.5 -83.5t78.5 -31.5
q53 0 106 48v160zM265 -115q0 -14 -10 -23.5t-24 -9.5q-13 0 -23 10t-10 23q0 14 9.5 24t23.5 10t24 -10t10 -24z" />
    <glyph glyph-name="Ahookabove" unicode="&#x1ea2;" horiz-adv-x="546" 
d="M537 0h-63l-81 245h-266l-82 -245h-36l234 700h63zM382 279l-121 367l-123 -367h244zM347 878q0 -23 -32 -77q-31 -56 -31 -77h-19q0 25 23 77q24 50 24 77q0 52 -28 52q-32 0 -45.5 -32t5.5 -65l-23 13q-18 35 2.5 69t60.5 34q30 0 46.5 -19.5t16.5 -51.5z" />
    <glyph glyph-name="ahookabove" unicode="&#x1ea3;" horiz-adv-x="450" 
d="M378 0h-58v40q-62 -48 -125 -48q-70 0 -112 39.5t-42 107.5q0 70 46 109t122 39q57 0 111 -23v14q0 60 -22.5 103t-66.5 43q-66 0 -134 -38v23q77 49 155 49q58 0 92 -53.5t34 -126.5v-278zM320 232q-52 23 -106 23q-45 0 -76 -34t-31 -82q0 -52 28.5 -83.5t78.5 -31.5
q53 0 106 48v160zM303 628q0 -23 -32 -77q-31 -56 -31 -77h-19q0 25 23 77q24 50 24 77q0 52 -28 52q-32 0 -45.5 -32t5.5 -65l-23 13q-18 35 2.5 69t60.5 34q30 0 46.5 -19.5t16.5 -51.5z" />
    <glyph glyph-name="Acircumflexacute" unicode="&#x1ea4;" horiz-adv-x="546" 
d="M537 0h-63l-81 245h-266l-82 -245h-36l234 700h63zM382 279l-121 367l-123 -367h244zM361 1032q-56 -84 -140 -144h-32q65 63 106 144h66zM422 736h-32l-115 108l-115 -108h-32l109 144h76z" />
    <glyph glyph-name="acircumflexacute" unicode="&#x1ea5;" horiz-adv-x="450" 
d="M378 0h-58v40q-62 -48 -125 -48q-70 0 -112 39.5t-42 107.5q0 70 46 109t122 39q57 0 111 -23v14q0 60 -22.5 103t-66.5 43q-66 0 -134 -38v23q77 49 155 49q58 0 92 -53.5t34 -126.5v-278zM320 232q-52 23 -106 23q-45 0 -76 -34t-31 -82q0 -52 28.5 -83.5t78.5 -31.5
q53 0 106 48v160zM317 782q-56 -84 -140 -144h-32q65 63 106 144h66zM378 486h-32l-115 108l-115 -108h-32l109 144h76z" />
    <glyph glyph-name="Acircumflexgrave" unicode="&#x1ea6;" horiz-adv-x="546" 
d="M537 0h-63l-81 245h-266l-82 -245h-36l234 700h63zM382 279l-121 367l-123 -367h244zM361 888h-32q-84 60 -140 144h66q41 -81 106 -144zM422 736h-32l-115 108l-115 -108h-32l109 144h76z" />
    <glyph glyph-name="acircumflexgrave" unicode="&#x1ea7;" horiz-adv-x="450" 
d="M378 0h-58v40q-62 -48 -125 -48q-70 0 -112 39.5t-42 107.5q0 70 46 109t122 39q57 0 111 -23v14q0 60 -22.5 103t-66.5 43q-66 0 -134 -38v23q77 49 155 49q58 0 92 -53.5t34 -126.5v-278zM320 232q-52 23 -106 23q-45 0 -76 -34t-31 -82q0 -52 28.5 -83.5t78.5 -31.5
q53 0 106 48v160zM317 638h-32q-84 60 -140 144h66q41 -81 106 -144zM378 486h-32l-115 108l-115 -108h-32l109 144h76z" />
    <glyph glyph-name="Acircumflexhookabove" unicode="&#x1ea8;" horiz-adv-x="546" 
d="M537 0h-63l-81 245h-266l-82 -245h-36l234 700h63zM382 279l-121 367l-123 -367h244zM422 736h-32l-115 108l-115 -108h-32l109 144h76zM348 1058q0 -23 -32 -77q-31 -56 -31 -77h-19q0 25 23 77q24 50 24 77q0 52 -28 52q-32 0 -45.5 -32t5.5 -65l-23 13q-18 35 2.5 69
t60.5 34q30 0 46.5 -19.5t16.5 -51.5z" />
    <glyph glyph-name="acircumflexhookabove" unicode="&#x1ea9;" horiz-adv-x="450" 
d="M378 0h-58v40q-62 -48 -125 -48q-70 0 -112 39.5t-42 107.5q0 70 46 109t122 39q57 0 111 -23v14q0 60 -22.5 103t-66.5 43q-66 0 -134 -38v23q77 49 155 49q58 0 92 -53.5t34 -126.5v-278zM320 232q-52 23 -106 23q-45 0 -76 -34t-31 -82q0 -52 28.5 -83.5t78.5 -31.5
q53 0 106 48v160zM378 486h-32l-115 108l-115 -108h-32l109 144h76zM304 808q0 -23 -32 -77q-31 -56 -31 -77h-19q0 25 23 77q24 50 24 77q0 52 -28 52q-32 0 -45.5 -32t5.5 -65l-23 13q-18 35 2.5 69t60.5 34q30 0 46.5 -19.5t16.5 -51.5z" />
    <glyph glyph-name="Acircumflextilde" unicode="&#x1eaa;" horiz-adv-x="546" 
d="M537 0h-63l-81 245h-266l-82 -245h-36l234 700h63zM382 279l-121 367l-123 -367h244zM422 736h-32l-115 108l-115 -108h-32l109 144h76zM414 995q-64 -78 -95 -78q-18 0 -45.5 22.5t-45.5 22.5q-29 0 -68 -45l-24 20q64 78 95 78q18 0 45.5 -22.5t45.5 -22.5q29 0 68 45z
" />
    <glyph glyph-name="acircumflextilde" unicode="&#x1eab;" horiz-adv-x="450" 
d="M378 0h-58v40q-62 -48 -125 -48q-70 0 -112 39.5t-42 107.5q0 70 46 109t122 39q57 0 111 -23v14q0 60 -22.5 103t-66.5 43q-66 0 -134 -38v23q77 49 155 49q58 0 92 -53.5t34 -126.5v-278zM320 232q-52 23 -106 23q-45 0 -76 -34t-31 -82q0 -52 28.5 -83.5t78.5 -31.5
q53 0 106 48v160zM378 486h-32l-115 108l-115 -108h-32l109 144h76zM370 745q-64 -78 -95 -78q-18 0 -45.5 22.5t-45.5 22.5q-29 0 -68 -45l-24 20q64 78 95 78q18 0 45.5 -22.5t45.5 -22.5q29 0 68 45z" />
    <glyph glyph-name="Acircumflexdotbelow" unicode="&#x1eac;" horiz-adv-x="546" 
d="M537 0h-63l-81 245h-266l-82 -245h-36l234 700h63zM382 279l-121 367l-123 -367h244zM422 736h-32l-115 108l-115 -108h-32l109 144h76zM309 -115q0 -14 -10 -23.5t-24 -9.5q-13 0 -23 10t-10 23q0 14 9.5 24t23.5 10t24 -10t10 -24z" />
    <glyph glyph-name="acircumflexdotbelow" unicode="&#x1ead;" horiz-adv-x="450" 
d="M378 0h-58v40q-62 -48 -125 -48q-70 0 -112 39.5t-42 107.5q0 70 46 109t122 39q57 0 111 -23v14q0 60 -22.5 103t-66.5 43q-66 0 -134 -38v23q77 49 155 49q58 0 92 -53.5t34 -126.5v-278zM320 232q-52 23 -106 23q-45 0 -76 -34t-31 -82q0 -52 28.5 -83.5t78.5 -31.5
q53 0 106 48v160zM363 505h-32l-100 148l-100 -148h-32l100 195h64zM265 -115q0 -14 -10 -23.5t-24 -9.5q-13 0 -23 10t-10 23q0 14 9.5 24t23.5 10t24 -10t10 -24z" />
    <glyph glyph-name="Abreveacute" unicode="&#x1eae;" horiz-adv-x="546" 
d="M537 0h-63l-81 245h-266l-82 -245h-36l234 700h63zM382 279l-121 367l-123 -367h244zM407 887q0 -64 -37.5 -111t-94.5 -47t-94.5 47t-37.5 111h29q0 -48 29.5 -83.5t73.5 -35.5t73.5 35.5t29.5 83.5h29zM393 1023q-56 -84 -140 -144h-32q62 60 106 144h66z" />
    <glyph glyph-name="abreveacute" unicode="&#x1eaf;" horiz-adv-x="450" 
d="M378 0h-58v40q-62 -48 -125 -48q-70 0 -112 39.5t-42 107.5q0 70 46 109t122 39q57 0 111 -23v14q0 60 -22.5 103t-66.5 43q-66 0 -134 -38v23q77 49 155 49q58 0 92 -53.5t34 -126.5v-278zM320 232q-52 23 -106 23q-45 0 -76 -34t-31 -82q0 -52 28.5 -83.5t78.5 -31.5
q53 0 106 48v160zM363 637q0 -64 -37.5 -111t-94.5 -47t-94.5 47t-37.5 111h29q0 -48 29.5 -83.5t73.5 -35.5t73.5 35.5t29.5 83.5h29zM349 773q-56 -84 -140 -144h-32q62 60 106 144h66z" />
    <glyph glyph-name="Abrevegrave" unicode="&#x1eb0;" horiz-adv-x="546" 
d="M537 0h-63l-81 245h-266l-82 -245h-36l234 700h63zM382 279l-121 367l-123 -367h244zM407 887q0 -64 -37.5 -111t-94.5 -47t-94.5 47t-37.5 111h29q0 -48 29.5 -83.5t73.5 -35.5t73.5 35.5t29.5 83.5h29zM329 879h-32q-84 60 -140 144h66q44 -84 106 -144z" />
    <glyph glyph-name="abrevegrave" unicode="&#x1eb1;" horiz-adv-x="450" 
d="M378 0h-58v40q-62 -48 -125 -48q-70 0 -112 39.5t-42 107.5q0 70 46 109t122 39q57 0 111 -23v14q0 60 -22.5 103t-66.5 43q-66 0 -134 -38v23q77 49 155 49q58 0 92 -53.5t34 -126.5v-278zM320 232q-52 23 -106 23q-45 0 -76 -34t-31 -82q0 -52 28.5 -83.5t78.5 -31.5
q53 0 106 48v160zM363 637q0 -64 -37.5 -111t-94.5 -47t-94.5 47t-37.5 111h29q0 -48 29.5 -83.5t73.5 -35.5t73.5 35.5t29.5 83.5h29zM285 629h-32q-84 60 -140 144h66q44 -84 106 -144z" />
    <glyph glyph-name="Abrevehookabove" unicode="&#x1eb2;" horiz-adv-x="546" 
d="M537 0h-63l-81 245h-266l-82 -245h-36l234 700h63zM382 279l-121 367l-123 -367h244zM407 887q0 -64 -37.5 -111t-94.5 -47t-94.5 47t-37.5 111h29q0 -48 29.5 -83.5t73.5 -35.5t73.5 35.5t29.5 83.5h29zM348 1021q0 -23 -32 -77q-31 -56 -31 -77h-19q0 25 23 77
q24 50 24 77q0 52 -28 52q-32 0 -45.5 -32t5.5 -65l-23 13q-18 35 2.5 69t60.5 34q30 0 46.5 -19.5t16.5 -51.5z" />
    <glyph glyph-name="abrevehookabove" unicode="&#x1eb3;" horiz-adv-x="450" 
d="M378 0h-58v40q-62 -48 -125 -48q-70 0 -112 39.5t-42 107.5q0 70 46 109t122 39q57 0 111 -23v14q0 60 -22.5 103t-66.5 43q-66 0 -134 -38v23q77 49 155 49q58 0 92 -53.5t34 -126.5v-278zM320 232q-52 23 -106 23q-45 0 -76 -34t-31 -82q0 -52 28.5 -83.5t78.5 -31.5
q53 0 106 48v160zM363 637q0 -64 -37.5 -111t-94.5 -47t-94.5 47t-37.5 111h29q0 -48 29.5 -83.5t73.5 -35.5t73.5 35.5t29.5 83.5h29zM304 771q0 -23 -32 -77q-31 -56 -31 -77h-19q0 25 23 77q24 50 24 77q0 52 -28 52q-32 0 -45.5 -32t5.5 -65l-23 13q-18 35 2.5 69
t60.5 34q30 0 46.5 -19.5t16.5 -51.5z" />
    <glyph glyph-name="Abrevetilde" unicode="&#x1eb4;" horiz-adv-x="546" 
d="M537 0h-63l-81 245h-266l-82 -245h-36l234 700h63zM382 279l-121 367l-123 -367h244zM407 887q0 -64 -37.5 -111t-94.5 -47t-94.5 47t-37.5 111h29q0 -48 29.5 -83.5t73.5 -35.5t73.5 35.5t29.5 83.5h29zM414 1002q-64 -78 -95 -78q-18 0 -45.5 22.5t-45.5 22.5
q-29 0 -68 -45l-24 20q64 78 95 78q18 0 45.5 -22.5t45.5 -22.5q29 0 68 45z" />
    <glyph glyph-name="abrevetilde" unicode="&#x1eb5;" horiz-adv-x="450" 
d="M378 0h-58v40q-62 -48 -125 -48q-70 0 -112 39.5t-42 107.5q0 70 46 109t122 39q57 0 111 -23v14q0 60 -22.5 103t-66.5 43q-66 0 -134 -38v23q77 49 155 49q58 0 92 -53.5t34 -126.5v-278zM320 232q-52 23 -106 23q-45 0 -76 -34t-31 -82q0 -52 28.5 -83.5t78.5 -31.5
q53 0 106 48v160zM363 637q0 -64 -37.5 -111t-94.5 -47t-94.5 47t-37.5 111h29q0 -48 29.5 -83.5t73.5 -35.5t73.5 35.5t29.5 83.5h29zM370 752q-64 -78 -95 -78q-18 0 -45.5 22.5t-45.5 22.5q-29 0 -68 -45l-24 20q64 78 95 78q18 0 45.5 -22.5t45.5 -22.5q29 0 68 45z" />
    <glyph glyph-name="Abrevedotbelow" unicode="&#x1eb6;" horiz-adv-x="546" 
d="M537 0h-63l-81 245h-266l-82 -245h-36l234 700h63zM382 279l-121 367l-123 -367h244zM407 887q0 -64 -37.5 -111t-94.5 -47t-94.5 47t-37.5 111h29q0 -48 29.5 -83.5t73.5 -35.5t73.5 35.5t29.5 83.5h29zM309 -115q0 -14 -10 -23.5t-24 -9.5q-13 0 -23 10t-10 23
q0 14 9.5 24t23.5 10t24 -10t10 -24z" />
    <glyph glyph-name="abrevedotbelow" unicode="&#x1eb7;" horiz-adv-x="450" 
d="M378 0h-58v40q-62 -48 -125 -48q-70 0 -112 39.5t-42 107.5q0 70 46 109t122 39q57 0 111 -23v14q0 60 -22.5 103t-66.5 43q-66 0 -134 -38v23q77 49 155 49q58 0 92 -53.5t34 -126.5v-278zM320 232q-52 23 -106 23q-45 0 -76 -34t-31 -82q0 -52 28.5 -83.5t78.5 -31.5
q53 0 106 48v160zM350 682q0 -64 -33 -111t-86 -47t-86 47t-33 111h29q0 -48 25 -83.5t65 -35.5t65 35.5t25 83.5h29zM265 -115q0 -14 -10 -23.5t-24 -9.5q-13 0 -23 10t-10 23q0 14 9.5 24t23.5 10t24 -10t10 -24z" />
    <glyph glyph-name="Edotbelow" unicode="&#x1eb8;" horiz-adv-x="584" 
d="M530 0h-440v700h419v-34h-359v-299h292v-34h-292v-299h380v-34zM334 -115q0 -14 -10 -23.5t-24 -9.5t-23.5 10t-9.5 23q0 14 9.5 24t23.5 10t24 -10t10 -24z" />
    <glyph glyph-name="edotbelow" unicode="&#x1eb9;" horiz-adv-x="432" 
d="M387 217h-271q0 -43 4 -74t14 -59.5t31.5 -43t53.5 -14.5q70 0 122 48v-32q-52 -50 -122 -50q-76 0 -122.5 64t-46.5 169t46.5 169t122.5 64t122 -64t46 -169v-8zM321 249q0 74 -25 125.5t-77 51.5q-53 0 -78 -51.5t-25 -125.5h205zM253 -115q0 -14 -10 -23.5t-24 -9.5
q-13 0 -23 10t-10 23q0 14 9.5 24t23.5 10t24 -10t10 -24z" />
    <glyph glyph-name="Ehookabove" unicode="&#x1eba;" horiz-adv-x="584" 
d="M530 0h-440v700h419v-34h-359v-299h292v-34h-292v-299h380v-34zM372 878q0 -23 -32 -77q-31 -56 -31 -77h-19q0 25 23 77q24 50 24 77q0 52 -28 52q-32 0 -45.5 -32t5.5 -65l-23 13q-18 35 2.5 69t60.5 34q30 0 46.5 -19.5t16.5 -51.5z" />
    <glyph glyph-name="ehookabove" unicode="&#x1ebb;" horiz-adv-x="432" 
d="M387 217h-271q0 -43 4 -74t14 -59.5t31.5 -43t53.5 -14.5q70 0 122 48v-32q-52 -50 -122 -50q-76 0 -122.5 64t-46.5 169t46.5 169t122.5 64t122 -64t46 -169v-8zM321 249q0 74 -25 125.5t-77 51.5q-53 0 -78 -51.5t-25 -125.5h205zM291 628q0 -23 -32 -77
q-31 -56 -31 -77h-19q0 25 23 77q24 50 24 77q0 52 -28 52q-32 0 -45.5 -32t5.5 -65l-23 13q-18 35 2.5 69t60.5 34q30 0 46.5 -19.5t16.5 -51.5z" />
    <glyph glyph-name="Etilde" unicode="&#x1ebc;" horiz-adv-x="584" 
d="M530 0h-440v700h419v-34h-359v-299h292v-34h-292v-299h380v-34zM425 879q-60 -72 -87 -72q-16 0 -40 19.5t-39 19.5q-26 0 -59 -39l-25 20q60 72 87 72q16 0 40 -19.5t39 -19.5q26 0 59 39z" />
    <glyph glyph-name="etilde" unicode="&#x1ebd;" horiz-adv-x="432" 
d="M387 217h-271q0 -43 4 -74t14 -59.5t31.5 -43t53.5 -14.5q70 0 122 48v-32q-52 -50 -122 -50q-76 0 -122.5 64t-46.5 169t46.5 169t122.5 64t122 -64t46 -169v-8zM321 249q0 74 -25 125.5t-77 51.5q-53 0 -78 -51.5t-25 -125.5h205zM344 629q-60 -72 -87 -72
q-15 0 -39 19.5t-40 19.5q-26 0 -59 -39l-25 20q60 72 87 72q15 0 39 -19.5t40 -19.5q26 0 59 39z" />
    <glyph glyph-name="Ecircumflexacute" unicode="&#x1ebe;" horiz-adv-x="584" 
d="M530 0h-440v700h419v-34h-359v-299h292v-34h-292v-299h380v-34zM386 1032q-56 -84 -140 -144h-32q65 63 106 144h66zM447 736h-32l-115 108l-115 -108h-32l109 144h76z" />
    <glyph glyph-name="ecircumflexacute" unicode="&#x1ebf;" horiz-adv-x="432" 
d="M387 217h-271q0 -43 4 -74t14 -59.5t31.5 -43t53.5 -14.5q70 0 122 48v-32q-52 -50 -122 -50q-76 0 -122.5 64t-46.5 169t46.5 169t122.5 64t122 -64t46 -169v-8zM321 249q0 74 -25 125.5t-77 51.5q-53 0 -78 -51.5t-25 -125.5h205zM305 782q-56 -84 -140 -144h-32
q65 63 106 144h66zM366 486h-32l-115 108l-115 -108h-32l109 144h76z" />
    <glyph glyph-name="Ecircumflexgrave" unicode="&#x1ec0;" horiz-adv-x="584" 
d="M530 0h-440v700h419v-34h-359v-299h292v-34h-292v-299h380v-34zM386 888h-32q-84 60 -140 144h66q41 -81 106 -144zM447 736h-32l-115 108l-115 -108h-32l109 144h76z" />
    <glyph glyph-name="ecircumflexgrave" unicode="&#x1ec1;" horiz-adv-x="432" 
d="M387 217h-271q0 -43 4 -74t14 -59.5t31.5 -43t53.5 -14.5q70 0 122 48v-32q-52 -50 -122 -50q-76 0 -122.5 64t-46.5 169t46.5 169t122.5 64t122 -64t46 -169v-8zM321 249q0 74 -25 125.5t-77 51.5q-53 0 -78 -51.5t-25 -125.5h205zM305 638h-32q-84 60 -140 144h66
q41 -81 106 -144zM366 486h-32l-115 108l-115 -108h-32l109 144h76z" />
    <glyph glyph-name="Ecircumflexhookabove" unicode="&#x1ec2;" horiz-adv-x="584" 
d="M530 0h-440v700h419v-34h-359v-299h292v-34h-292v-299h380v-34zM447 736h-32l-115 108l-115 -108h-32l109 144h76zM373 1058q0 -23 -32 -77q-31 -56 -31 -77h-19q0 25 23 77q24 50 24 77q0 52 -28 52q-32 0 -45.5 -32t5.5 -65l-23 13q-18 35 2.5 69t60.5 34
q30 0 46.5 -19.5t16.5 -51.5z" />
    <glyph glyph-name="ecircumflexhookabove" unicode="&#x1ec3;" horiz-adv-x="432" 
d="M387 217h-271q0 -43 4 -74t14 -59.5t31.5 -43t53.5 -14.5q70 0 122 48v-32q-52 -50 -122 -50q-76 0 -122.5 64t-46.5 169t46.5 169t122.5 64t122 -64t46 -169v-8zM321 249q0 74 -25 125.5t-77 51.5q-53 0 -78 -51.5t-25 -125.5h205zM366 486h-32l-115 108l-115 -108h-32
l109 144h76zM292 808q0 -23 -32 -77q-31 -56 -31 -77h-19q0 25 23 77q24 50 24 77q0 52 -28 52q-32 0 -45.5 -32t5.5 -65l-23 13q-18 35 2.5 69t60.5 34q30 0 46.5 -19.5t16.5 -51.5z" />
    <glyph glyph-name="Ecircumflextilde" unicode="&#x1ec4;" horiz-adv-x="584" 
d="M530 0h-440v700h419v-34h-359v-299h292v-34h-292v-299h380v-34zM447 736h-32l-115 108l-115 -108h-32l109 144h76zM439 995q-64 -78 -95 -78q-18 0 -45.5 22.5t-45.5 22.5q-29 0 -68 -45l-24 20q64 78 95 78q18 0 45.5 -22.5t45.5 -22.5q29 0 68 45z" />
    <glyph glyph-name="ecircumflextilde" unicode="&#x1ec5;" horiz-adv-x="432" 
d="M387 217h-271q0 -43 4 -74t14 -59.5t31.5 -43t53.5 -14.5q70 0 122 48v-32q-52 -50 -122 -50q-76 0 -122.5 64t-46.5 169t46.5 169t122.5 64t122 -64t46 -169v-8zM321 249q0 74 -25 125.5t-77 51.5q-53 0 -78 -51.5t-25 -125.5h205zM366 486h-32l-115 108l-115 -108h-32
l109 144h76zM358 745q-64 -78 -95 -78q-18 0 -45.5 22.5t-45.5 22.5q-29 0 -68 -45l-24 20q64 78 95 78q18 0 45.5 -22.5t45.5 -22.5q29 0 68 45z" />
    <glyph glyph-name="Ecircumflexdotbelow" unicode="&#x1ec6;" horiz-adv-x="584" 
d="M530 0h-440v700h419v-34h-359v-299h292v-34h-292v-299h380v-34zM447 736h-32l-115 108l-115 -108h-32l109 144h76zM334 -115q0 -14 -10 -23.5t-24 -9.5t-23.5 10t-9.5 23q0 14 9.5 24t23.5 10t24 -10t10 -24z" />
    <glyph glyph-name="ecircumflexdotbelow" unicode="&#x1ec7;" horiz-adv-x="432" 
d="M387 217h-271q0 -43 4 -74t14 -59.5t31.5 -43t53.5 -14.5q70 0 122 48v-32q-52 -50 -122 -50q-76 0 -122.5 64t-46.5 169t46.5 169t122.5 64t122 -64t46 -169v-8zM321 249q0 74 -25 125.5t-77 51.5q-53 0 -78 -51.5t-25 -125.5h205zM351 505h-32l-100 148l-100 -148h-32
l100 195h64zM253 -115q0 -14 -10 -23.5t-24 -9.5q-13 0 -23 10t-10 23q0 14 9.5 24t23.5 10t24 -10t10 -24z" />
    <glyph glyph-name="Ihookabove" unicode="&#x1ec8;" horiz-adv-x="240" 
d="M150 0h-60v700h60v-700zM193 878q0 -23 -32 -77q-31 -56 -31 -77h-19q0 25 23 77q24 50 24 77q0 52 -28 52q-32 0 -45.5 -32t5.5 -65l-23 13q-18 35 2.5 69t60.5 34q30 0 46.5 -19.5t16.5 -51.5z" />
    <glyph glyph-name="ihookabove" unicode="&#x1ec9;" horiz-adv-x="251" 
d="M233 31q-46 -39 -91 -39q-39 0 -56.5 39t-17.5 96v323h58v-323q0 -22 1 -36.5t5 -31t13 -25t24 -8.5q33 0 64 28v-23zM170 628q0 -23 -32 -77q-31 -56 -31 -77h-19q0 25 23 77q24 50 24 77q0 52 -28 52q-32 0 -45.5 -32t5.5 -65l-23 13q-18 35 2.5 69t60.5 34
q30 0 46.5 -19.5t16.5 -51.5z" />
    <glyph glyph-name="Idotbelow" unicode="&#x1eca;" horiz-adv-x="240" 
d="M150 0h-60v700h60v-700zM155 -115q0 -14 -10 -23.5t-24 -9.5q-13 0 -23 10t-10 23q0 14 9.5 24t23.5 10t24 -10t10 -24z" />
    <glyph glyph-name="idotbelow" unicode="&#x1ecb;" horiz-adv-x="251" 
d="M233 31q-46 -39 -91 -39q-39 0 -56.5 39t-17.5 96v323h58v-323q0 -22 1 -36.5t5 -31t13 -25t24 -8.5q33 0 64 28v-23zM134 603q0 -15 -11 -26t-26 -11t-26 11t-11 26t11 26t26 11t26 -11t11 -26zM132 -115q0 -14 -10 -23.5t-24 -9.5t-23.5 10t-9.5 23q0 14 9.5 24
t23.5 10t24 -10t10 -24z" />
    <glyph glyph-name="Odotbelow" unicode="&#x1ecc;" horiz-adv-x="658" 
d="M604 350q0 -161 -69.5 -259.5t-205.5 -98.5t-205.5 98.5t-69.5 259.5t69.5 259.5t205.5 98.5t205.5 -98.5t69.5 -259.5zM530 350q0 324 -201 324t-201 -324t201 -324t201 324zM364 -115q0 -14 -10 -23.5t-24 -9.5t-23.5 10t-9.5 23q0 14 9.5 24t23.5 10t24 -10t10 -24z
" />
    <glyph glyph-name="odotbelow" unicode="&#x1ecd;" horiz-adv-x="436" 
d="M387 225q0 -113 -43 -173t-125 -60t-125.5 60t-43.5 173t43.5 173t125.5 60t125 -60t43 -173zM321 225q0 98 -26 149.5t-76 51.5q-103 0 -103 -201t103 -201q50 0 76 51.5t26 149.5zM253 -115q0 -14 -10 -23.5t-24 -9.5q-13 0 -23 10t-10 23q0 14 9.5 24t23.5 10t24 -10
t10 -24z" />
    <glyph glyph-name="Ohookabove" unicode="&#x1ece;" horiz-adv-x="658" 
d="M604 350q0 -161 -69.5 -259.5t-205.5 -98.5t-205.5 98.5t-69.5 259.5t69.5 259.5t205.5 98.5t205.5 -98.5t69.5 -259.5zM530 350q0 324 -201 324t-201 -324t201 -324t201 324zM402 878q0 -23 -32 -77q-31 -56 -31 -77h-19q0 25 23 77q24 50 24 77q0 52 -28 52
q-32 0 -45.5 -32t5.5 -65l-23 13q-18 35 2.5 69t60.5 34q30 0 46.5 -19.5t16.5 -51.5z" />
    <glyph glyph-name="ohookabove" unicode="&#x1ecf;" horiz-adv-x="436" 
d="M387 225q0 -113 -43 -173t-125 -60t-125.5 60t-43.5 173t43.5 173t125.5 60t125 -60t43 -173zM321 225q0 98 -26 149.5t-76 51.5q-103 0 -103 -201t103 -201q50 0 76 51.5t26 149.5zM291 628q0 -23 -32 -77q-31 -56 -31 -77h-19q0 25 23 77q24 50 24 77q0 52 -28 52
q-32 0 -45.5 -32t5.5 -65l-23 13q-18 35 2.5 69t60.5 34q30 0 46.5 -19.5t16.5 -51.5z" />
    <glyph glyph-name="Ocircumflexacute" unicode="&#x1ed0;" horiz-adv-x="658" 
d="M604 350q0 -161 -69.5 -259.5t-205.5 -98.5t-205.5 98.5t-69.5 259.5t69.5 259.5t205.5 98.5t205.5 -98.5t69.5 -259.5zM530 350q0 324 -201 324t-201 -324t201 -324t201 324zM415 1032q-56 -84 -140 -144h-32q65 63 106 144h66zM476 736h-32l-115 108l-115 -108h-32
l109 144h76z" />
    <glyph glyph-name="ocircumflexacute" unicode="&#x1ed1;" horiz-adv-x="436" 
d="M387 225q0 -113 -43 -173t-125 -60t-125.5 60t-43.5 173t43.5 173t125.5 60t125 -60t43 -173zM321 225q0 98 -26 149.5t-76 51.5q-103 0 -103 -201t103 -201q50 0 76 51.5t26 149.5zM305 782q-56 -84 -140 -144h-32q65 63 106 144h66zM366 486h-32l-115 108l-115 -108
h-32l109 144h76z" />
    <glyph glyph-name="Ocircumflexgrave" unicode="&#x1ed2;" horiz-adv-x="658" 
d="M604 350q0 -161 -69.5 -259.5t-205.5 -98.5t-205.5 98.5t-69.5 259.5t69.5 259.5t205.5 98.5t205.5 -98.5t69.5 -259.5zM530 350q0 324 -201 324t-201 -324t201 -324t201 324zM415 888h-32q-84 60 -140 144h66q41 -81 106 -144zM476 736h-32l-115 108l-115 -108h-32
l109 144h76z" />
    <glyph glyph-name="ocircumflexgrave" unicode="&#x1ed3;" horiz-adv-x="436" 
d="M387 225q0 -113 -43 -173t-125 -60t-125.5 60t-43.5 173t43.5 173t125.5 60t125 -60t43 -173zM321 225q0 98 -26 149.5t-76 51.5q-103 0 -103 -201t103 -201q50 0 76 51.5t26 149.5zM305 638h-32q-84 60 -140 144h66q41 -81 106 -144zM366 486h-32l-115 108l-115 -108
h-32l109 144h76z" />
    <glyph glyph-name="Ocircumflexhookabove" unicode="&#x1ed4;" horiz-adv-x="658" 
d="M604 350q0 -161 -69.5 -259.5t-205.5 -98.5t-205.5 98.5t-69.5 259.5t69.5 259.5t205.5 98.5t205.5 -98.5t69.5 -259.5zM530 350q0 324 -201 324t-201 -324t201 -324t201 324zM476 736h-32l-115 108l-115 -108h-32l109 144h76zM402 1058q0 -23 -32 -77q-31 -56 -31 -77
h-19q0 25 23 77q24 50 24 77q0 52 -28 52q-32 0 -45.5 -32t5.5 -65l-23 13q-18 35 2.5 69t60.5 34q30 0 46.5 -19.5t16.5 -51.5z" />
    <glyph glyph-name="ocircumflexhookabove" unicode="&#x1ed5;" horiz-adv-x="436" 
d="M387 225q0 -113 -43 -173t-125 -60t-125.5 60t-43.5 173t43.5 173t125.5 60t125 -60t43 -173zM321 225q0 98 -26 149.5t-76 51.5q-103 0 -103 -201t103 -201q50 0 76 51.5t26 149.5zM366 486h-32l-115 108l-115 -108h-32l109 144h76zM292 808q0 -23 -32 -77
q-31 -56 -31 -77h-19q0 25 23 77q24 50 24 77q0 52 -28 52q-32 0 -45.5 -32t5.5 -65l-23 13q-18 35 2.5 69t60.5 34q30 0 46.5 -19.5t16.5 -51.5z" />
    <glyph glyph-name="Ocircumflextilde" unicode="&#x1ed6;" horiz-adv-x="658" 
d="M604 350q0 -161 -69.5 -259.5t-205.5 -98.5t-205.5 98.5t-69.5 259.5t69.5 259.5t205.5 98.5t205.5 -98.5t69.5 -259.5zM530 350q0 324 -201 324t-201 -324t201 -324t201 324zM476 736h-32l-115 108l-115 -108h-32l109 144h76zM468 995q-64 -78 -95 -78q-18 0 -45.5 22.5
t-45.5 22.5q-29 0 -68 -45l-24 20q64 78 95 78q18 0 45.5 -22.5t45.5 -22.5q29 0 68 45z" />
    <glyph glyph-name="ocircumflextilde" unicode="&#x1ed7;" horiz-adv-x="436" 
d="M387 225q0 -113 -43 -173t-125 -60t-125.5 60t-43.5 173t43.5 173t125.5 60t125 -60t43 -173zM321 225q0 98 -26 149.5t-76 51.5q-103 0 -103 -201t103 -201q50 0 76 51.5t26 149.5zM366 486h-32l-115 108l-115 -108h-32l109 144h76zM358 745q-64 -78 -95 -78
q-18 0 -45.5 22.5t-45.5 22.5q-29 0 -68 -45l-24 20q64 78 95 78q18 0 45.5 -22.5t45.5 -22.5q29 0 68 45z" />
    <glyph glyph-name="Ocircumflexdotbelow" unicode="&#x1ed8;" horiz-adv-x="658" 
d="M604 350q0 -161 -69.5 -259.5t-205.5 -98.5t-205.5 98.5t-69.5 259.5t69.5 259.5t205.5 98.5t205.5 -98.5t69.5 -259.5zM530 350q0 324 -201 324t-201 -324t201 -324t201 324zM476 736h-32l-115 108l-115 -108h-32l109 144h76zM364 -115q0 -14 -10 -23.5t-24 -9.5
t-23.5 10t-9.5 23q0 14 9.5 24t23.5 10t24 -10t10 -24z" />
    <glyph glyph-name="ocircumflexdotbelow" unicode="&#x1ed9;" horiz-adv-x="436" 
d="M387 225q0 -113 -43 -173t-125 -60t-125.5 60t-43.5 173t43.5 173t125.5 60t125 -60t43 -173zM321 225q0 98 -26 149.5t-76 51.5q-103 0 -103 -201t103 -201q50 0 76 51.5t26 149.5zM351 505h-32l-100 148l-100 -148h-32l100 195h64zM253 -115q0 -14 -10 -23.5t-24 -9.5
q-13 0 -23 10t-10 23q0 14 9.5 24t23.5 10t24 -10t10 -24z" />
    <glyph glyph-name="Ohornacute" unicode="&#x1eda;" horiz-adv-x="658" 
d="M604 350q0 -161 -69.5 -259.5t-205.5 -98.5t-205.5 98.5t-69.5 259.5t69.5 259.5t205.5 98.5q109 0 179 -68q27 20 41 65q7 22 7 69h34q0 -51 -9 -79q-14 -41 -61 -67q84 -96 84 -278zM530 350q0 324 -201 324t-201 -324t201 -324t201 324zM469 880q-56 -84 -140 -144
h-32q62 60 106 144h66z" />
    <glyph glyph-name="ohornacute" unicode="&#x1edb;" horiz-adv-x="431" 
d="M422 524q0 -51 -9 -79q-12 -40 -58 -65q32 -59 32 -155q0 -113 -43 -173t-125 -60t-125.5 60t-43.5 173t43.5 173t125.5 60q85 0 127 -63q19 17 35 60q7 22 7 69h34zM321 225q0 98 -26 149.5t-76 51.5q-103 0 -103 -201t103 -201q50 0 76 51.5t26 149.5zM319 700
q0 -95 -100 -195h-32q66 86 66 195h66z" />
    <glyph glyph-name="Ohorngrave" unicode="&#x1edc;" horiz-adv-x="658" 
d="M604 350q0 -161 -69.5 -259.5t-205.5 -98.5t-205.5 98.5t-69.5 259.5t69.5 259.5t205.5 98.5q109 0 179 -68q27 20 41 65q7 22 7 69h34q0 -51 -9 -79q-14 -41 -61 -67q84 -96 84 -278zM530 350q0 324 -201 324t-201 -324t201 -324t201 324zM361 736h-32q-84 60 -140 144
h66q44 -84 106 -144z" />
    <glyph glyph-name="ohorngrave" unicode="&#x1edd;" horiz-adv-x="431" 
d="M422 524q0 -51 -9 -79q-12 -40 -58 -65q32 -59 32 -155q0 -113 -43 -173t-125 -60t-125.5 60t-43.5 173t43.5 173t125.5 60q85 0 127 -63q19 17 35 60q7 22 7 69h34zM321 225q0 98 -26 149.5t-76 51.5q-103 0 -103 -201t103 -201q50 0 76 51.5t26 149.5zM251 505h-32
q-100 100 -100 195h66q0 -109 66 -195z" />
    <glyph glyph-name="Ohornhookabove" unicode="&#x1ede;" horiz-adv-x="658" 
d="M604 350q0 -161 -69.5 -259.5t-205.5 -98.5t-205.5 98.5t-69.5 259.5t69.5 259.5t205.5 98.5q109 0 179 -68q27 20 41 65q7 22 7 69h34q0 -51 -9 -79q-14 -41 -61 -67q84 -96 84 -278zM530 350q0 324 -201 324t-201 -324t201 -324t201 324zM402 878q0 -23 -32 -77
q-31 -56 -31 -77h-19q0 25 23 77q24 50 24 77q0 52 -28 52q-32 0 -45.5 -32t5.5 -65l-23 13q-18 35 2.5 69t60.5 34q30 0 46.5 -19.5t16.5 -51.5z" />
    <glyph glyph-name="ohornhookabove" unicode="&#x1edf;" horiz-adv-x="431" 
d="M422 524q0 -51 -9 -79q-12 -40 -58 -65q32 -59 32 -155q0 -113 -43 -173t-125 -60t-125.5 60t-43.5 173t43.5 173t125.5 60q85 0 127 -63q19 17 35 60q7 22 7 69h34zM321 225q0 98 -26 149.5t-76 51.5q-103 0 -103 -201t103 -201q50 0 76 51.5t26 149.5zM291 628
q0 -23 -32 -77q-31 -56 -31 -77h-19q0 25 23 77q24 50 24 77q0 52 -28 52q-32 0 -45.5 -32t5.5 -65l-23 13q-18 35 2.5 69t60.5 34q30 0 46.5 -19.5t16.5 -51.5z" />
    <glyph glyph-name="Ohorntilde" unicode="&#x1ee0;" horiz-adv-x="658" 
d="M604 350q0 -161 -69.5 -259.5t-205.5 -98.5t-205.5 98.5t-69.5 259.5t69.5 259.5t205.5 98.5q109 0 179 -68q27 20 41 65q7 22 7 69h34q0 -51 -9 -79q-14 -41 -61 -67q84 -96 84 -278zM530 350q0 324 -201 324t-201 -324t201 -324t201 324zM468 837q-64 -78 -95 -78
q-18 0 -45.5 22.5t-45.5 22.5q-29 0 -68 -45l-24 20q64 78 95 78q18 0 45.5 -22.5t45.5 -22.5q29 0 68 45z" />
    <glyph glyph-name="ohorntilde" unicode="&#x1ee1;" horiz-adv-x="431" 
d="M422 524q0 -51 -9 -79q-12 -40 -58 -65q32 -59 32 -155q0 -113 -43 -173t-125 -60t-125.5 60t-43.5 173t43.5 173t125.5 60q85 0 127 -63q19 17 35 60q7 22 7 69h34zM321 225q0 98 -26 149.5t-76 51.5q-103 0 -103 -201t103 -201q50 0 76 51.5t26 149.5zM344 629
q-60 -72 -87 -72q-15 0 -39 19.5t-40 19.5q-26 0 -59 -39l-25 20q60 72 87 72q15 0 39 -19.5t40 -19.5q26 0 59 39z" />
    <glyph glyph-name="Ohorndotbelow" unicode="&#x1ee2;" horiz-adv-x="658" 
d="M604 350q0 -161 -69.5 -259.5t-205.5 -98.5t-205.5 98.5t-69.5 259.5t69.5 259.5t205.5 98.5q109 0 179 -68q27 20 41 65q7 22 7 69h34q0 -51 -9 -79q-14 -41 -61 -67q84 -96 84 -278zM530 350q0 324 -201 324t-201 -324t201 -324t201 324zM364 -107q0 -14 -10 -23.5
t-24 -9.5t-23.5 10t-9.5 23q0 14 9.5 24t23.5 10t24 -10t10 -24z" />
    <glyph glyph-name="ohorndotbelow" unicode="&#x1ee3;" horiz-adv-x="431" 
d="M422 524q0 -51 -9 -79q-12 -40 -58 -65q32 -59 32 -155q0 -113 -43 -173t-125 -60t-125.5 60t-43.5 173t43.5 173t125.5 60q85 0 127 -63q19 17 35 60q7 22 7 69h34zM321 225q0 98 -26 149.5t-76 51.5q-103 0 -103 -201t103 -201q50 0 76 51.5t26 149.5zM253 -115
q0 -14 -10 -23.5t-24 -9.5q-13 0 -23 10t-10 23q0 14 9.5 24t23.5 10t24 -10t10 -24z" />
    <glyph glyph-name="Udotbelow" unicode="&#x1ee4;" horiz-adv-x="624" 
d="M543 196q0 -89 -68.5 -149.5t-162.5 -60.5t-162.5 60.5t-68.5 149.5v504h60v-490q0 -78 53.5 -134t130.5 -56t130.5 56t53.5 134v490h34v-504zM347 -115q0 -14 -10 -23.5t-24 -9.5q-13 0 -23 10t-10 23q0 14 9.5 24t23.5 10t24 -10t10 -24z" />
    <glyph glyph-name="udotbelow" unicode="&#x1ee5;" horiz-adv-x="455" 
d="M383 0h-58v56q-71 -64 -141 -64q-50 0 -83 40t-33 95v323h58v-323q0 -41 22.5 -71t57.5 -30q59 0 119 53v371h58v-450zM260 -115q0 -14 -10 -23.5t-24 -9.5t-23.5 10t-9.5 23q0 14 9.5 24t23.5 10t24 -10t10 -24z" />
    <glyph glyph-name="Uhookabove" unicode="&#x1ee6;" horiz-adv-x="624" 
d="M543 196q0 -89 -68.5 -149.5t-162.5 -60.5t-162.5 60.5t-68.5 149.5v504h60v-490q0 -78 53.5 -134t130.5 -56t130.5 56t53.5 134v490h34v-504zM385 878q0 -23 -32 -77q-31 -56 -31 -77h-19q0 25 23 77q24 50 24 77q0 52 -28 52q-32 0 -45.5 -32t5.5 -65l-23 13
q-18 35 2.5 69t60.5 34q30 0 46.5 -19.5t16.5 -51.5z" />
    <glyph glyph-name="uhookabove" unicode="&#x1ee7;" horiz-adv-x="455" 
d="M383 0h-58v56q-71 -64 -141 -64q-50 0 -83 40t-33 95v323h58v-323q0 -41 22.5 -71t57.5 -30q59 0 119 53v371h58v-450zM298 628q0 -23 -32 -77q-31 -56 -31 -77h-19q0 25 23 77q24 50 24 77q0 52 -28 52q-32 0 -45.5 -32t5.5 -65l-23 13q-18 35 2.5 69t60.5 34
q30 0 46.5 -19.5t16.5 -51.5z" />
    <glyph glyph-name="Uhornacute" unicode="&#x1ee8;" horiz-adv-x="638" 
d="M629 774q0 -54 -9 -79q-13 -43 -68 -71v-428q0 -89 -68.5 -149.5t-162.5 -60.5t-162.5 60.5t-68.5 149.5v504h60v-490q0 -78 53.5 -134t130.5 -56t130.5 56t53.5 134v490h34v-56q23 19 36 61q7 22 7 69h34zM461 880q-56 -84 -140 -144h-32q62 60 106 144h66z" />
    <glyph glyph-name="uhornacute" unicode="&#x1ee9;" horiz-adv-x="450" 
d="M441 524q0 -51 -9 -79q-10 -34 -49 -60v-385h-58v56q-71 -64 -141 -64q-50 0 -83 40t-33 95v323h58v-323q0 -41 22.5 -71t57.5 -30q59 0 119 53v371h58v-33q11 19 17 38q7 22 7 69h34zM326 700q0 -95 -100 -195h-32q66 86 66 195h66z" />
    <glyph glyph-name="Uhorngrave" unicode="&#x1eea;" horiz-adv-x="638" 
d="M629 774q0 -54 -9 -79q-13 -43 -68 -71v-428q0 -89 -68.5 -149.5t-162.5 -60.5t-162.5 60.5t-68.5 149.5v504h60v-490q0 -78 53.5 -134t130.5 -56t130.5 56t53.5 134v490h34v-56q23 19 36 61q7 22 7 69h34zM353 736h-32q-84 60 -140 144h66q44 -84 106 -144z" />
    <glyph glyph-name="uhorngrave" unicode="&#x1eeb;" horiz-adv-x="450" 
d="M441 524q0 -51 -9 -79q-10 -34 -49 -60v-385h-58v56q-71 -64 -141 -64q-50 0 -83 40t-33 95v323h58v-323q0 -41 22.5 -71t57.5 -30q59 0 119 53v371h58v-33q11 19 17 38q7 22 7 69h34zM258 505h-32q-100 100 -100 195h66q0 -109 66 -195z" />
    <glyph glyph-name="Uhornhookabove" unicode="&#x1eec;" horiz-adv-x="638" 
d="M629 774q0 -54 -9 -79q-13 -43 -68 -71v-428q0 -89 -68.5 -149.5t-162.5 -60.5t-162.5 60.5t-68.5 149.5v504h60v-490q0 -78 53.5 -134t130.5 -56t130.5 56t53.5 134v490h34v-56q23 19 36 61q7 22 7 69h34zM394 878q0 -23 -32 -77q-31 -56 -31 -77h-19q0 25 23 77
q24 50 24 77q0 52 -28 52q-32 0 -45.5 -32t5.5 -65l-23 13q-18 35 2.5 69t60.5 34q30 0 46.5 -19.5t16.5 -51.5z" />
    <glyph glyph-name="uhornhookabove" unicode="&#x1eed;" horiz-adv-x="450" 
d="M441 524q0 -51 -9 -79q-10 -34 -49 -60v-385h-58v56q-71 -64 -141 -64q-50 0 -83 40t-33 95v323h58v-323q0 -41 22.5 -71t57.5 -30q59 0 119 53v371h58v-33q11 19 17 38q7 22 7 69h34zM298 628q0 -23 -32 -77q-31 -56 -31 -77h-19q0 25 23 77q24 50 24 77q0 52 -28 52
q-32 0 -45.5 -32t5.5 -65l-23 13q-18 35 2.5 69t60.5 34q30 0 46.5 -19.5t16.5 -51.5z" />
    <glyph glyph-name="Uhorntilde" unicode="&#x1eee;" horiz-adv-x="638" 
d="M629 774q0 -54 -9 -79q-13 -43 -68 -71v-428q0 -89 -68.5 -149.5t-162.5 -60.5t-162.5 60.5t-68.5 149.5v504h60v-490q0 -78 53.5 -134t130.5 -56t130.5 56t53.5 134v490h34v-56q23 19 36 61q7 22 7 69h34zM460 837q-64 -78 -95 -78q-18 0 -45.5 22.5t-45.5 22.5
q-29 0 -68 -45l-24 20q64 78 95 78q18 0 45.5 -22.5t45.5 -22.5q29 0 68 45z" />
    <glyph glyph-name="uhorntilde" unicode="&#x1eef;" horiz-adv-x="450" 
d="M441 524q0 -51 -9 -79q-10 -34 -49 -60v-385h-58v56q-71 -64 -141 -64q-50 0 -83 40t-33 95v323h58v-323q0 -41 22.5 -71t57.5 -30q59 0 119 53v371h58v-33q11 19 17 38q7 22 7 69h34zM351 629q-60 -72 -87 -72q-16 0 -40 19.5t-39 19.5q-26 0 -59 -39l-25 20
q60 72 87 72q16 0 40 -19.5t39 -19.5q26 0 59 39z" />
    <glyph glyph-name="Uhorndotbelow" unicode="&#x1ef0;" horiz-adv-x="638" 
d="M629 774q0 -54 -9 -79q-13 -43 -68 -71v-428q0 -89 -68.5 -149.5t-162.5 -60.5t-162.5 60.5t-68.5 149.5v504h60v-490q0 -78 53.5 -134t130.5 -56t130.5 56t53.5 134v490h34v-56q23 19 36 61q7 22 7 69h34zM356 -101q0 -14 -10 -23.5t-24 -9.5t-23.5 10t-9.5 23
q0 14 9.5 24t23.5 10t24 -10t10 -24z" />
    <glyph glyph-name="uhorndotbelow" unicode="&#x1ef1;" horiz-adv-x="450" 
d="M441 524q0 -51 -9 -79q-10 -34 -49 -60v-385h-58v56q-71 -64 -141 -64q-50 0 -83 40t-33 95v323h58v-323q0 -41 22.5 -71t57.5 -30q59 0 119 53v371h58v-33q11 19 17 38q7 22 7 69h34zM260 -115q0 -14 -10 -23.5t-24 -9.5t-23.5 10t-9.5 23q0 14 9.5 24t23.5 10t24 -10
t10 -24z" />
    <glyph glyph-name="Ygrave" unicode="&#x1ef2;" horiz-adv-x="511" 
d="M502 700l-212 -394v-306h-60v280l-212 420h67l180 -369l198 369h39zM292 736h-32q-84 60 -140 144h66q44 -84 106 -144z" />
    <glyph glyph-name="ygrave" unicode="&#x1ef3;" horiz-adv-x="455" 
d="M383 -58q0 -73 -32.5 -126.5t-89.5 -53.5q-75 0 -149 37v22q62 -25 128 -25q43 0 64 42.5t21 103.5v114q-71 -64 -141 -64q-50 0 -83 40t-33 95v323h58v-323q0 -41 22.5 -71t57.5 -30q59 0 119 53v371h58v-508zM258 505h-32q-100 100 -100 195h66q0 -109 66 -195z" />
    <glyph glyph-name="Ydotbelow" unicode="&#x1ef4;" horiz-adv-x="511" 
d="M502 700l-212 -394v-306h-60v280l-212 420h67l180 -369l198 369h39zM295 -115q0 -14 -10 -23.5t-24 -9.5q-13 0 -23 10t-10 23q0 14 9.5 24t23.5 10t24 -10t10 -24z" />
    <glyph glyph-name="ydotbelow" unicode="&#x1ef5;" horiz-adv-x="455" 
d="M383 -58q0 -73 -32.5 -126.5t-89.5 -53.5q-75 0 -149 37v22q62 -25 128 -25q43 0 64 42.5t21 103.5v114q-71 -64 -141 -64q-50 0 -83 40t-33 95v323h58v-323q0 -41 22.5 -71t57.5 -30q59 0 119 53v371h58v-508zM260 -81q0 -14 -10 -23.5t-24 -9.5t-23.5 10t-9.5 23
q0 14 9.5 24t23.5 10t24 -10t10 -24z" />
    <glyph glyph-name="Yhookabove" unicode="&#x1ef6;" horiz-adv-x="511" 
d="M502 700l-212 -394v-306h-60v280l-212 420h67l180 -369l198 369h39zM333 878q0 -23 -32 -77q-31 -56 -31 -77h-19q0 25 23 77q24 50 24 77q0 52 -28 52q-32 0 -45.5 -32t5.5 -65l-23 13q-18 35 2.5 69t60.5 34q30 0 46.5 -19.5t16.5 -51.5z" />
    <glyph glyph-name="yhookabove" unicode="&#x1ef7;" horiz-adv-x="455" 
d="M383 -58q0 -73 -32.5 -126.5t-89.5 -53.5q-75 0 -149 37v22q62 -25 128 -25q43 0 64 42.5t21 103.5v114q-71 -64 -141 -64q-50 0 -83 40t-33 95v323h58v-323q0 -41 22.5 -71t57.5 -30q59 0 119 53v371h58v-508zM298 628q0 -23 -32 -77q-31 -56 -31 -77h-19q0 25 23 77
q24 50 24 77q0 52 -28 52q-32 0 -45.5 -32t5.5 -65l-23 13q-18 35 2.5 69t60.5 34q30 0 46.5 -19.5t16.5 -51.5z" />
    <glyph glyph-name="Ytilde" unicode="&#x1ef8;" horiz-adv-x="511" 
d="M502 700l-212 -394v-306h-60v280l-212 420h67l180 -369l198 369h39zM399 837q-64 -78 -95 -78q-18 0 -45.5 22.5t-45.5 22.5q-29 0 -68 -45l-24 20q64 78 95 78q18 0 45.5 -22.5t45.5 -22.5q29 0 68 45z" />
    <glyph glyph-name="ytilde" unicode="&#x1ef9;" horiz-adv-x="455" 
d="M383 -58q0 -73 -32.5 -126.5t-89.5 -53.5q-75 0 -149 37v22q62 -25 128 -25q43 0 64 42.5t21 103.5v114q-71 -64 -141 -64q-50 0 -83 40t-33 95v323h58v-323q0 -41 22.5 -71t57.5 -30q59 0 119 53v371h58v-508zM351 629q-60 -72 -87 -72q-16 0 -40 19.5t-39 19.5
q-26 0 -59 -39l-25 20q60 72 87 72q16 0 40 -19.5t39 -19.5q26 0 59 39z" />
    <glyph glyph-name="endash" unicode="&#x2013;" horiz-adv-x="500" 
d="M500 212h-500v38h500v-38z" />
    <glyph glyph-name="emdash" unicode="&#x2014;" horiz-adv-x="1000" 
d="M1000 212h-1000v38h1000v-38z" />
    <glyph glyph-name="quoteleft" unicode="&#x2018;" horiz-adv-x="202" 
d="M158 700q-28 -90 -28 -189h-58q0 101 54 189h32z" />
    <glyph glyph-name="quoteright" unicode="&#x2019;" horiz-adv-x="202" 
d="M130 700q0 -101 -54 -189h-32q28 90 28 189h58z" />
    <glyph glyph-name="quotesinglbase" unicode="&#x201a;" horiz-adv-x="202" 
d="M130 74q0 -101 -54 -189h-32q28 90 28 189h58z" />
    <glyph glyph-name="quotedblleft" unicode="&#x201c;" horiz-adv-x="304" 
d="M158 700q-28 -90 -28 -189h-58q0 101 54 189h32zM260 700q-28 -90 -28 -189h-58q0 103 54 189h32z" />
    <glyph glyph-name="quotedblright" unicode="&#x201d;" horiz-adv-x="304" 
d="M130 700q0 -101 -54 -189h-32q28 90 28 189h58zM232 700q0 -101 -54 -189h-32q28 95 28 189h58z" />
    <glyph glyph-name="quotedblbase" unicode="&#x201e;" horiz-adv-x="304" 
d="M130 74q0 -101 -54 -189h-32q28 90 28 189h58zM232 74q0 -101 -54 -189h-32q28 95 28 189h58z" />
    <glyph glyph-name="dagger" unicode="&#x2020;" horiz-adv-x="568" 
d="M534 421h-221v-574h-58v574h-221v58h221v221h58v-221h221v-58z" />
    <glyph glyph-name="daggerdbl" unicode="&#x2021;" horiz-adv-x="568" 
d="M534 68h-221v-221h-58v221h-221v58h221v295h-221v58h221v221h58v-221h221v-58h-221v-295h221v-58z" />
    <glyph glyph-name="bullet" unicode="&#x2022;" horiz-adv-x="500" 
d="M455 250q0 -85 -60 -145t-145 -60t-145 60t-60 145t60 145t145 60t145 -60t60 -145z" />
    <glyph glyph-name="ellipsis" unicode="&#x2026;" horiz-adv-x="464" 
d="M108 37q0 -15 -11 -26t-26 -11t-26 11t-11 26t11 26t26 11t26 -11t11 -26zM269 37q0 -15 -11 -26t-26 -11t-26 11t-11 26t11 26t26 11t26 -11t11 -26zM430 37q0 -15 -11 -26t-26 -11t-26 11t-11 26t11 26t26 11t26 -11t11 -26z" />
    <glyph glyph-name="perthousand" unicode="&#x2030;" horiz-adv-x="787" 
d="M431 509l-345 -364v46l345 364v-46zM259 550q0 -158 -113 -158q-112 0 -112 158t112 158q113 0 113 -158zM483 150q0 -158 -112 -158t-112 158t112 158t112 -158zM753 150q0 -158 -112 -158q-113 0 -113 158t113 158q112 0 112 -158zM209 550q0 134 -63 134
q-62 0 -62 -134t62 -134q63 0 63 134zM434 150q0 134 -63 134t-63 -134t63 -134t63 134zM703 150q0 134 -62 134q-63 0 -63 -134t63 -134q62 0 62 134z" />
    <glyph glyph-name="permyriad" unicode="&#x2031;" horiz-adv-x="1057" 
d="M431 509l-345 -364v46l345 364v-46zM259 550q0 -158 -113 -158q-112 0 -112 158t112 158q113 0 113 -158zM483 150q0 -158 -112 -158t-112 158t112 158t112 -158zM753 150q0 -158 -112 -158q-113 0 -113 158t113 158q112 0 112 -158zM1023 150q0 -158 -113 -158
q-112 0 -112 158t112 158q113 0 113 -158zM209 550q0 134 -63 134q-62 0 -62 -134t62 -134q63 0 63 134zM434 150q0 134 -63 134t-63 -134t63 -134t63 134zM703 150q0 134 -62 134q-63 0 -63 -134t63 -134q62 0 62 134zM973 150q0 134 -63 134t-63 -134t63 -134t63 134z" />
    <glyph glyph-name="prime" unicode="&#x2032;" horiz-adv-x="276" 
d="M287 514q-33 -79 -113 -231t-114 -231l-30 12q35 80 89.5 243t87.5 241z" />
    <glyph glyph-name="guilsinglleft" unicode="&#x2039;" horiz-adv-x="284" 
d="M217 0h-58l-125 225l125 225h58l-106 -225z" />
    <glyph glyph-name="guilsinglright" unicode="&#x203a;" horiz-adv-x="284" 
d="M229 225l-124 -225h-58l105 225l-105 225h58z" />
    <glyph glyph-name="tie" unicode="&#x2040;" horiz-adv-x="278" 
d="M506 541h-38q0 45 -45.5 66t-109.5 21q-65 0 -110 -21t-45 -66h-38q0 59 57.5 92t135.5 33t135.5 -33t57.5 -92z" />
    <glyph glyph-name="fraction" unicode="&#x2044;" horiz-adv-x="18" 
d="M197 700l-340 -700h-36l340 700h36z" />
    <glyph glyph-name="zero.superior" unicode="&#x2070;" horiz-adv-x="303" 
d="M267 596q0 -213 -115 -213q-116 0 -116 213q0 212 116 212q115 0 115 -212zM215 596q0 187 -63 187q-64 0 -64 -187q0 -188 64 -188q63 0 63 188z" />
    <glyph glyph-name="four.superior" unicode="&#x2074;" horiz-adv-x="296" 
d="M260 533h-39v-145h-45v145h-140v27l140 243h45v-243h39v-27zM176 560v193l-111 -193h111z" />
    <glyph glyph-name="five.superior" unicode="&#x2075;" horiz-adv-x="296" 
d="M260 523q0 -63 -30.5 -101.5t-81.5 -38.5q-63 0 -112 41v25q49 -41 112 -41q28 0 44.5 31.5t16.5 83.5t-16.5 83.5t-44.5 31.5q-50 0 -80 -43l-25 1l7 207h201v-36h-177l-4 -135q34 31 78 31q51 0 81.5 -38.5t30.5 -101.5z" />
    <glyph glyph-name="six.superior" unicode="&#x2076;" horiz-adv-x="296" 
d="M260 523q0 -63 -30.5 -101.5t-81.5 -38.5q-59 0 -85.5 50.5t-26.5 162.5q0 56 11.5 101.5t40 78t71.5 32.5q42 0 75 -27v-26q-33 28 -75 28q-23 0 -38 -13.5t-22 -40t-9 -50.5t-2 -58q23 42 71 42q101 0 101 -140zM209 523q0 25 -1.5 41.5t-6 35.5t-15 28.5t-27.5 9.5
q-48 0 -71 -42q0 -17 -1.5 -46t-2 -45.5t2 -37.5t8.5 -32t19.5 -19t33.5 -8q28 0 44.5 31.5t16.5 83.5z" />
    <glyph glyph-name="seven.superior" unicode="&#x2077;" horiz-adv-x="296" 
d="M260 783l-156 -395h-49l151 379h-170v36h224v-20z" />
    <glyph glyph-name="eight.superior" unicode="&#x2078;" horiz-adv-x="296" 
d="M260 504q0 -56 -30 -88.5t-82 -32.5t-82 32.5t-30 88.5q0 89 68 114q-58 22 -58 91q0 46 27.5 72.5t74.5 26.5q48 0 75.5 -26.5t27.5 -72.5q0 -69 -59 -91q68 -25 68 -114zM205 709q0 34 -15.5 54t-41.5 20t-41.5 -20t-15.5 -54t15.5 -53.5t41.5 -19.5t41.5 19.5
t15.5 53.5zM209 504q0 45 -16 70.5t-45 25.5q-28 0 -44 -25.5t-16 -70.5q0 -44 16 -70t44 -26t44.5 26t16.5 70z" />
    <glyph glyph-name="nine.superior" unicode="&#x2079;" horiz-adv-x="296" 
d="M260 595q0 -56 -11.5 -101.5t-40 -78t-71.5 -32.5q-42 0 -75 27v26q33 -28 75 -28q23 0 38 13.5t22 40t9 50.5t2 58q-23 -42 -71 -42q-101 0 -101 140q0 63 30.5 101.5t81.5 38.5q59 0 85.5 -50.5t26.5 -162.5zM208 595q0 17 1.5 46t2 45.5t-2 37.5t-8.5 32t-19.5 19
t-33.5 8q-28 0 -44.5 -31.5t-16.5 -83.5q0 -25 1.5 -41.5t6 -35.5t15 -28.5t27.5 -9.5q48 0 71 42z" />
    <glyph glyph-name="parenleft.superior" unicode="&#x207d;" horiz-adv-x="212" 
d="M167 250h-19q-41 71 -58.5 134t-17.5 145t17.5 145t58.5 134h19q-33 -73 -46.5 -136t-13.5 -143t13.5 -143t46.5 -136z" />
    <glyph glyph-name="parenright.superior" unicode="&#x207e;" horiz-adv-x="212" 
d="M140 529q0 -82 -17.5 -145t-58.5 -134h-19q33 73 46.5 136t13.5 143t-13.5 143t-46.5 136h19q41 -71 58.5 -134t17.5 -145z" />
    <glyph glyph-name="n.superior" unicode="&#x207f;" horiz-adv-x="298" 
d="M260 388h-45v194q0 23 -15 38.5t-37 15.5q-39 0 -78 -32v-216h-45v270h45v-37q47 42 96 42q33 0 56 -24t23 -57v-194z" />
    <glyph glyph-name="zero.inferior" unicode="&#x2080;" horiz-adv-x="303" 
d="M267 108q0 -213 -115 -213q-116 0 -116 213q0 212 116 212q115 0 115 -212zM215 108q0 187 -63 187q-64 0 -64 -187q0 -188 64 -188q63 0 63 188z" />
    <glyph glyph-name="one.inferior" unicode="&#x2081;" horiz-adv-x="204" 
d="M168 -100h-45v359q-39 -42 -87 -64v25q61 35 98 95h34v-415z" />
    <glyph glyph-name="two.inferior" unicode="&#x2082;" horiz-adv-x="296" 
d="M260 -100h-224v27l117 139q58 69 58 158q0 28 -18 49t-45 21q-67 0 -107 -55v25q38 56 107 56q44 0 76 -27.5t32 -68.5q0 -81 -83 -175l-98 -113h185v-36z" />
    <glyph glyph-name="three.inferior" unicode="&#x2083;" horiz-adv-x="296" 
d="M260 14q0 -49 -33 -84t-79 -35q-62 0 -112 35v25q52 -35 112 -35q25 0 43 28t18 66q0 52 -22 73t-76 21v23q50 0 70.5 20.5t20.5 70.5q0 33 -16.5 53t-44.5 20q-52 0 -92 -35v25q38 35 92 35q48 0 77 -27t29 -71q0 -35 -18 -59.5t-50 -33.5q35 -11 58 -43t23 -72z" />
    <glyph glyph-name="four.inferior" unicode="&#x2084;" horiz-adv-x="296" 
d="M260 45h-39v-145h-45v145h-140v27l140 243h45v-243h39v-27zM176 72v193l-111 -193h111z" />
    <glyph glyph-name="five.inferior" unicode="&#x2085;" horiz-adv-x="296" 
d="M260 35q0 -63 -30.5 -101.5t-81.5 -38.5q-63 0 -112 41v25q49 -41 112 -41q28 0 44.5 31.5t16.5 83.5t-16.5 83.5t-44.5 31.5q-50 0 -80 -43l-25 1l7 207h201v-36h-177l-4 -135q34 31 78 31q51 0 81.5 -38.5t30.5 -101.5z" />
    <glyph glyph-name="six.inferior" unicode="&#x2086;" horiz-adv-x="296" 
d="M260 35q0 -63 -30.5 -101.5t-81.5 -38.5q-59 0 -85.5 50.5t-26.5 162.5q0 56 11.5 101.5t40 78t71.5 32.5q42 0 75 -27v-26q-33 28 -75 28q-23 0 -38 -13.5t-22 -40t-9 -50.5t-2 -58q23 42 71 42q101 0 101 -140zM209 35q0 25 -1.5 41.5t-6 35.5t-15 28.5t-27.5 9.5
q-48 0 -71 -42q0 -17 -1.5 -46t-2 -45.5t2 -37.5t8.5 -32t19.5 -19t33.5 -8q28 0 44.5 31.5t16.5 83.5z" />
    <glyph glyph-name="seven.inferior" unicode="&#x2087;" horiz-adv-x="296" 
d="M260 295l-156 -395h-49l151 379h-170v36h224v-20z" />
    <glyph glyph-name="eight.inferior" unicode="&#x2088;" horiz-adv-x="296" 
d="M260 16q0 -56 -30 -88.5t-82 -32.5t-82 32.5t-30 88.5q0 89 68 114q-58 22 -58 91q0 46 27.5 72.5t74.5 26.5q48 0 75.5 -26.5t27.5 -72.5q0 -69 -59 -91q68 -25 68 -114zM205 221q0 34 -15.5 54t-41.5 20t-41.5 -20t-15.5 -54t15.5 -53.5t41.5 -19.5t41.5 19.5
t15.5 53.5zM209 16q0 45 -16 70.5t-45 25.5q-28 0 -44 -25.5t-16 -70.5q0 -44 16 -70t44 -26t44.5 26t16.5 70z" />
    <glyph glyph-name="nine.inferior" unicode="&#x2089;" horiz-adv-x="296" 
d="M260 107q0 -56 -11.5 -101.5t-40 -78t-71.5 -32.5q-42 0 -75 27v26q33 -28 75 -28q23 0 38 13.5t22 40t9 50.5t2 58q-23 -42 -71 -42q-101 0 -101 140q0 63 30.5 101.5t81.5 38.5q59 0 85.5 -50.5t26.5 -162.5zM208 107q0 17 1.5 46t2 45.5t-2 37.5t-8.5 32t-19.5 19
t-33.5 8q-28 0 -44.5 -31.5t-16.5 -83.5q0 -25 1.5 -41.5t6 -35.5t15 -28.5t27.5 -9.5q48 0 71 42z" />
    <glyph glyph-name="parenleft.inferior" unicode="&#x208d;" horiz-adv-x="212" 
d="M167 -238h-19q-41 71 -58.5 134t-17.5 145t17.5 145t58.5 134h19q-33 -73 -46.5 -136t-13.5 -143t13.5 -143t46.5 -136z" />
    <glyph glyph-name="parenright.inferior" unicode="&#x208e;" horiz-adv-x="212" 
d="M140 41q0 -82 -17.5 -145t-58.5 -134h-19q33 73 46.5 136t13.5 143t-13.5 143t-46.5 136h19q41 -71 58.5 -134t17.5 -145z" />
    <glyph glyph-name="lira" unicode="&#x20a4;" horiz-adv-x="530" 
d="M485 0h-440v34q98 62 124 175l2 8h-126v32h129q1 38 -10 82h-119v32h111q-30 105 -30 149q0 78 53.5 133t129.5 55q71 0 123.5 -44t52.5 -110h-58q0 50 -34.5 85t-83.5 35q-55 0 -90 -46t-35 -108q0 -30 17 -149h108v-32h-103q5 -50 3 -82h100v-32h-103q-2 -12 -4 -16
q-18 -80 -76 -143h359v-58z" />
    <glyph glyph-name="peseta" unicode="&#x20a7;" horiz-adv-x="618" 
d="M566 514q0 -95 -66.5 -145t-175.5 -50q-78 0 -160 14v-333h-60v498h-52v32h52v170h58q86 8 162 8q109 0 175.5 -50t66.5 -144zM492 514q0 67 -49.5 113.5t-118.5 46.5q-75 0 -160 -8v-136h119v-32h-119v-131q82 -14 160 -14q69 0 118.5 47t49.5 114z" />
    <glyph glyph-name="Euro" unicode="&#x20ac;" horiz-adv-x="551" 
d="M506 593l-8 -21q-21 47 -63.5 74.5t-94.5 27.5q-43 0 -71.5 -17t-44 -50.5t-21.5 -71t-8 -90.5h259l-14 -38h-246v-57v-57h206l-13 -38h-192q2 -53 8 -90.5t21.5 -71t44 -50.5t71.5 -17q85 0 150 57v-34q-65 -57 -150 -57q-188 0 -216 263h-70v38h67q-1 19 -1 57t1 57
h-67v38h70q28 263 216 263q55 0 100.5 -31.5t65.5 -83.5z" />
    <glyph glyph-name="centigrade" unicode="&#x2103;" horiz-adv-x="851" 
d="M797 553q-32 56 -88 88.5t-121 32.5q-201 0 -201 -324t201 -324q106 0 195 57v-34q-89 -57 -195 -57q-136 0 -205.5 98.5t-69.5 259.5t69.5 259.5t205.5 98.5q64 0 119.5 -31t89.5 -84v-40zM285 540q0 -48 -34 -82t-81 -34q-48 0 -82 34t-34 82t34 81.5t82 33.5
q47 0 81 -33.5t34 -81.5zM253 540q0 34 -24.5 58.5t-58.5 24.5q-35 0 -59.5 -24t-24.5 -59t24.5 -59.5t59.5 -24.5q34 0 58.5 24.5t24.5 59.5z" />
    <glyph glyph-name="l.script" unicode="&#x2113;" horiz-adv-x="369" 
d="M316 58q0 -29 -25.5 -47t-60.5 -18q-117 0 -150 163q-15 -10 -37 -21l-16 30q22 11 46 27q-9 63 -9 154q0 58 3 104t13.5 96.5t27.5 83.5t48.5 55t73.5 22q40 0 62.5 -36.5t22.5 -87.5q0 -115 -50 -218.5t-138 -174.5q14 -165 103 -165q21 0 36.5 8.5t15.5 24.5h34z
M283 583q0 38 -13 65t-40 27q-16 0 -29.5 -5t-23.5 -15.5t-18 -22t-13.5 -31l-10 -35t-7 -41t-4 -42.5t-2 -46t-0.5 -45v-46q0 -77 2 -115q75 67 117 159t42 193z" />
    <glyph glyph-name="afii61352" unicode="&#x2116;" horiz-adv-x="1002" 
d="M607 0h-40l-443 607v-607h-34v700h40l443 -607v607h34v-700zM912 367q0 -53 -34 -91t-83 -38t-82.5 38t-33.5 91t33.5 91t82.5 38t83 -38t34 -91zM912 102h-233v34h233v-34zM878 367q0 38 -24 66.5t-59 28.5t-58.5 -28.5t-23.5 -66.5t23.5 -66.5t58.5 -28.5t59 28.5
t24 66.5z" />
    <glyph glyph-name="weierstrass" unicode="&#x2118;" horiz-adv-x="523" 
d="M489 229q0 -99 -33.5 -168t-102.5 -69q-34 0 -61.5 19.5t-38.5 51.5l32 11q7 -22 26 -35t42 -13q27 0 44 16.5t24 51.5t8.5 61.5t1.5 73.5q0 166 -78 166q-24 0 -49.5 -21t-45 -50t-42.5 -77.5t-37 -84l-34 -88.5l29 -64.5t18.5 -56t10.5 -68.5q0 -47 -25.5 -81
t-65.5 -34q-34 0 -50 33.5t-16 81.5q0 26 58 178q-25 44 -35 63.5t-22.5 56.5t-12.5 69q0 66 36 124t97 96l18 -28q-46 -30 -69.5 -81t-23.5 -111q0 -59 33 -134q20 52 36 89.5t39.5 82.5t45 72.5t50 47t57.5 19.5q64 0 100 -59.5t36 -140.5zM169 -115q0 61 -43 140
q-46 -125 -46 -140q0 -26 1 -39.5t8.5 -27.5t22.5 -14q26 0 41.5 24t15.5 57z" />
    <glyph glyph-name="servicemark" unicode="&#x2120;" horiz-adv-x="821" 
d="M332 364q0 -54 -41 -90.5t-98 -36.5q-74 0 -139 43v18q60 -41 139 -41q43 0 73.5 28.5t30.5 69.5q0 61 -111 96q-127 37 -127 112q0 48 40 79t94 31q67 0 121 -43v-18q-52 41 -121 41q-40 0 -69.5 -23t-29.5 -58q0 -14 7 -25.5t15 -18.5t25.5 -14.5t27 -10.5l30.5 -10
q57 -17 95 -49.5t38 -79.5zM767 245h-36l-17 357l-149 -357h-21l-148 354l-17 -354h-21l21 420h29l155 -372l155 372h28z" />
    <glyph glyph-name="trademark" unicode="&#x2122;" horiz-adv-x="826" 
d="M344 645h-127v-400h-36v400h-127v20h290v-20zM772 245h-36l-18 357l-149 -357h-21l-147 354l-18 -354h-21l21 420h29l155 -372l155 372h29z" />
    <glyph glyph-name="estimated" unicode="&#x212e;" horiz-adv-x="760" 
d="M730 306h-563q-9 0 -9 -9v-175q1 -4 2 -6q89 -98 220 -98q66 0 124.5 27.5t100.5 76.5h52q-49 -57 -122 -89.5t-155 -32.5q-143 0 -246.5 90.5t-103.5 224.5t103.5 224.5t246.5 90.5t246.5 -90.5t103.5 -224.5v-9zM602 333v175q-1 4 -2 6q-89 98 -220 98t-220 -98l-2 -6
v-175q0 -9 9 -9h426q9 0 9 9z" />
    <glyph glyph-name="aleph" unicode="&#x2135;" horiz-adv-x="612" 
d="M530 159q33 -34 30.5 -81t-38.5 -78h-26q23 24 20 58.5t-28 60.5l-303 310q-42 -29 -57 -83t2 -107q6 -20 37.5 -81.5t31.5 -99.5q0 -22 -13 -36.5t-38 -20.5t-47.5 -8t-55.5 -2v19q96 0 96 48q0 35 -30.5 90t-36.5 75q-18 63 10 124t87 97l-89 91q-33 34 -30.5 81
t38.5 78h26q-23 -24 -20 -58.5t28 -60.5l255 -262l76 166l-66 54q-39 32 -38 81.5t41 79.5h30q-27 -23 -26 -58t30 -58l101 -84q39 -32 38 -81.5t-41 -79.5h-30q27 23 26 58t-29 58l-21 17l-76 -167z" />
    <glyph glyph-name="onethird" unicode="&#x2153;" horiz-adv-x="634" 
d="M476 700l-340 -700h-36l340 700h36zM186 288h-45v359q-39 -42 -87 -64v25q61 35 98 95h34v-415zM580 114q0 -49 -33 -84t-79 -35q-62 0 -112 35v25q52 -35 112 -35q25 0 43 28t18 66q0 52 -22 73t-76 21v23q50 0 70.5 20.5t20.5 70.5q0 33 -16.5 53t-44.5 20
q-52 0 -92 -35v25q38 35 92 35q48 0 77 -27t29 -71q0 -35 -18 -59.5t-50 -33.5q35 -11 58 -43t23 -72z" />
    <glyph glyph-name="twothirds" unicode="&#x2154;" horiz-adv-x="726" 
d="M568 700l-340 -700h-36l340 700h36zM278 288h-224v27l117 139q58 69 58 158q0 28 -18 49t-45 21q-67 0 -107 -55v25q38 56 107 56q44 0 76 -27.5t32 -68.5q0 -81 -83 -175l-98 -113h185v-36zM672 114q0 -49 -33 -84t-79 -35q-62 0 -112 35v25q52 -35 112 -35q25 0 43 28
t18 66q0 52 -22 73t-76 21v23q50 0 70.5 20.5t20.5 70.5q0 33 -16.5 53t-44.5 20q-52 0 -92 -35v25q38 35 92 35q48 0 77 -27t29 -71q0 -35 -18 -59.5t-50 -33.5q35 -11 58 -43t23 -72z" />
    <glyph glyph-name="oneeighth" unicode="&#x215b;" horiz-adv-x="634" 
d="M476 700l-340 -700h-36l340 700h36zM186 288h-45v359q-39 -42 -87 -64v25q61 35 98 95h34v-415zM580 116q0 -56 -30 -88.5t-82 -32.5t-82 32.5t-30 88.5q0 89 68 114q-58 22 -58 91q0 46 27.5 72.5t74.5 26.5q48 0 75.5 -26.5t27.5 -72.5q0 -69 -59 -91q68 -25 68 -114z
M525 321q0 34 -15.5 54t-41.5 20t-41.5 -20t-15.5 -54t15.5 -53.5t41.5 -19.5t41.5 19.5t15.5 53.5zM529 116q0 45 -16 70.5t-45 25.5q-28 0 -44 -25.5t-16 -70.5q0 -44 16 -70t44 -26t44.5 26t16.5 70z" />
    <glyph glyph-name="threeeighths" unicode="&#x215c;" horiz-adv-x="692" 
d="M534 700l-340 -700h-36l340 700h36zM278 402q0 -49 -33 -84t-79 -35q-62 0 -112 35v25q52 -35 112 -35q25 0 43 28t18 66q0 52 -22 73t-76 21v23q50 0 70.5 20.5t20.5 70.5q0 33 -16.5 53t-44.5 20q-52 0 -92 -35v25q38 35 92 35q48 0 77 -27t29 -71q0 -35 -18 -59.5
t-50 -33.5q35 -11 58 -43t23 -72zM638 116q0 -56 -30 -88.5t-82 -32.5t-82 32.5t-30 88.5q0 89 68 114q-58 22 -58 91q0 46 27.5 72.5t74.5 26.5q48 0 75.5 -26.5t27.5 -72.5q0 -69 -59 -91q68 -25 68 -114zM583 321q0 34 -15.5 54t-41.5 20t-41.5 -20t-15.5 -54t15.5 -53.5
t41.5 -19.5t41.5 19.5t15.5 53.5zM587 116q0 45 -16 70.5t-45 25.5q-28 0 -44 -25.5t-16 -70.5q0 -44 16 -70t44 -26t44.5 26t16.5 70z" />
    <glyph glyph-name="fiveeighths" unicode="&#x215d;" horiz-adv-x="692" 
d="M534 700l-340 -700h-36l340 700h36zM278 423q0 -63 -30.5 -101.5t-81.5 -38.5q-63 0 -112 41v25q49 -41 112 -41q28 0 44.5 31.5t16.5 83.5t-16.5 83.5t-44.5 31.5q-50 0 -80 -43l-25 1l7 207h201v-36h-177l-4 -135q34 31 78 31q51 0 81.5 -38.5t30.5 -101.5zM638 116
q0 -56 -30 -88.5t-82 -32.5t-82 32.5t-30 88.5q0 89 68 114q-58 22 -58 91q0 46 27.5 72.5t74.5 26.5q48 0 75.5 -26.5t27.5 -72.5q0 -69 -59 -91q68 -25 68 -114zM583 321q0 34 -15.5 54t-41.5 20t-41.5 -20t-15.5 -54t15.5 -53.5t41.5 -19.5t41.5 19.5t15.5 53.5zM587 116
q0 45 -16 70.5t-45 25.5q-28 0 -44 -25.5t-16 -70.5q0 -44 16 -70t44 -26t44.5 26t16.5 70z" />
    <glyph glyph-name="seveneighths" unicode="&#x215e;" horiz-adv-x="590" 
d="M432 700l-340 -700h-36l340 700h36zM278 683l-156 -395h-49l151 379h-170v36h224v-20zM536 116q0 -56 -30 -88.5t-82 -32.5t-82 32.5t-30 88.5q0 89 68 114q-58 22 -58 91q0 46 27.5 72.5t74.5 26.5q48 0 75.5 -26.5t27.5 -72.5q0 -69 -59 -91q68 -25 68 -114zM481 321
q0 34 -15.5 54t-41.5 20t-41.5 -20t-15.5 -54t15.5 -53.5t41.5 -19.5t41.5 19.5t15.5 53.5zM485 116q0 45 -16 70.5t-45 25.5q-28 0 -44 -25.5t-16 -70.5q0 -44 16 -70t44 -26t44.5 26t16.5 70z" />
    <glyph glyph-name="uni2190" unicode="&#x2190;" horiz-adv-x="1000" 
d="M933 231h-781q82 -67 138 -145l-38 -26q-86 124 -192 190q106 66 192 190l38 -26q-56 -78 -138 -145h781v-38z" />
    <glyph glyph-name="uni2191" unicode="&#x2191;" horiz-adv-x="500" 
d="M440 509l-26 -37q-79 54 -145 138v-804h-38v804q-66 -84 -145 -138l-26 37q124 86 190 193q66 -107 190 -193z" />
    </font>
</defs>
</svg>
